<?xml version="1.0" encoding="utf-8"?>
<!-- Generator: Adobe Illustrator 18.1.1, SVG Export Plug-In . SVG Version: 6.00 Build 0)  -->
<!DOCTYPE svg PUBLIC "-//W3C//DTD SVG 1.1//EN" "http://www.w3.org/Graphics/SVG/1.1/DTD/svg11.dtd">
<svg version="1.1" id="TYPE" xmlns="http://www.w3.org/2000/svg" xmlns:xlink="http://www.w3.org/1999/xlink" x="0px" y="0px"
	 viewBox="0 0 449.8 25" enable-background="new 0 0 449.8 25" xml:space="preserve">
<g>
	<g>
		<path fill="#FFF4D3" d="M76.7,11.1c-0.1-0.1-0.2-0.1-0.4-0.2c-0.4-0.2-0.8-0.2-1.2-0.3c-1.9,0.1-5.4,0.1-7.3,0.2
			c-0.3,0-0.5-0.1-0.7-0.2c-0.7,0-1.3-0.1-1.9-0.2c0.6,0.6,0.8,1.8,0.4,2.7l0.1,0.2c0.5,0,0.4-0.7,0.7-0.9c0.8,0,3.4-0.1,4.1,0
			c0.1,0.2,0.1,0.5,0.4,0.5c0.2,0,0.3,0,0.2-0.2c0.4-0.4,1.1-0.4,1.6-0.3c1.2,0,2.4,0.2,3.6,0.2c0.1,0,0.1-0.1,0.2-0.2
			C76.7,11.9,76.8,11.4,76.7,11.1z"/>
		<path fill="#FFF4D3" d="M64.5,10.8c0.5,0.5,0.6,1.2,0.5,1.9C64.8,13,64.6,13,64.3,13c-0.3-0.3-0.7-0.5-1.2-0.6
			c-0.3,0-0.6,0.2-0.9,0c-0.6-0.1-1,0.4-1.4,0.7l0-0.3c0-0.2-0.3-0.2-0.4-0.2L56.8,13l-0.5,0.3c-0.3,0.2-0.7,0.4-1.1,0.3
			c0,0,0.1-0.2,0-0.3c-1.4,0-3,0.7-4.4,0.8c0.2-0.6,0.1-1.2-0.1-1.7c-0.2-0.5,0.1-0.7,1.1-0.6c0.7,0.1,3,0.1,4.4-0.3
			c1.8-0.5,3.7-0.6,5.5-0.6C62.6,10.9,63.7,10.4,64.5,10.8z"/>
		<path fill="#FFF4D3" d="M50,11.8c-0.1,0.5,0.6,1.9-0.2,2.1c0,0-0.1,0-0.2,0c-0.1,0-0.3-0.1-0.4-0.2c-0.5-0.1-0.7-0.1-1.2-0.1
			c-0.6,0.1-4.2-0.1-6.2,0c0.1-0.4,0.6-0.9,0.5-1.3c0-0.2-0.1-0.4-0.1-0.6c0,0.1,3.7-0.1,4.1-0.1C47.6,11.7,48.8,11.8,50,11.8z"/>
		<path fill="#FFF4D3" d="M40.6,11.8c-0.1,0.2,0.7,1.4,0.1,1.9c-2.6-0.1-8.6,0-9.3-0.1c-0.4,0-1-0.2-1.1,0.3
			c-0.3,0.1-0.6,0.3-0.6,0.6c-0.1,0-0.1,0-0.2,0c-0.2-0.8-0.2-1.6,0.1-2.4C30.5,11.5,37.8,11.7,40.6,11.8z"/>
		<path fill="#FFF4D3" d="M27.6,11.7c1-0.1,1.3,0.1,1.1,0.6c-0.2,0.5-0.3,1.1-0.1,1.7c-1.4-0.1-3-0.7-4.4-0.8c-0.1,0.1,0,0.3,0,0.3
			c-0.4,0.1-0.7-0.1-1.1-0.3L22.7,13l-3.6-0.3c-0.1,0-0.4,0-0.4,0.2l0,0.3c-0.4-0.3-0.8-0.7-1.4-0.7c-0.3,0.2-0.6-0.1-0.9,0
			c-0.4,0.1-0.9,0.3-1.2,0.6c-0.3,0-0.5-0.1-0.6-0.3c-0.1-0.7,0-1.4,0.5-1.9c0.8-0.4,1.8,0.1,2.7,0c1.8,0.1,3.7,0.2,5.5,0.6
			C24.6,11.8,27,11.8,27.6,11.7z"/>
		<path fill="#FFF4D3" d="M14.3,10.3c-0.6,0.1-1.3,0.2-1.9,0.2c-0.2,0.2-0.4,0.2-0.7,0.2c-1.9-0.1-5.5-0.1-7.3-0.2
			c-0.5,0.2-1,0.2-1.5,0.5c0,0,0,0-0.1,0c-0.1,0.3-0.1,0.6,0.1,1c0.1,0.1,0.2,0.3,0.3,0.4c1.2,0,2.4-0.3,3.6-0.2
			c0.6-0.1,1.2-0.1,1.6,0.3c0,0.2,0.1,0.3,0.2,0.2c0.3,0,0.2-0.3,0.4-0.5c0.7-0.1,3.3,0,4.1,0c0.3,0.3,0.1,0.9,0.7,0.9l0.1-0.2
			C13.6,12,13.8,10.9,14.3,10.3z"/>
		<path fill="#754C29" d="M77.2,12.3c-0.3-0.6,0.1-1.2-0.1-1.8c-0.1,0-0.2,0-0.2-0.1c-0.2-0.1-0.3-0.1-0.5-0.1
			c-1.1-0.3-2.4-0.3-3.7-0.2c-1.6,0.1-4.8,0.1-6.1-0.3c-1.4-0.4-2.6,0-3.1,0.3c-0.5,0.3-4.6,0.4-7.8,1c-1.6,0.3-3.8,0.5-5.2-0.2
			c-0.4,0-1,0.2-1.3,0.3c-0.9,0.3-2.1,0.1-3,0.1c-0.8,0-1.6,0-2.4,0c-0.6,0-1.5,0.2-2.1,0c-0.1,0-0.2-0.1-0.2-0.2c0,0,0-0.1,0-0.1
			c0-0.1-0.2-0.1-0.3,0c-0.2,0.3-0.1,0.3-0.6,0.3c-0.2,0-0.4-0.1-0.6,0c0,0-0.1,0-0.1,0c-3.3,0-9.1-0.1-9.3-0.2
			c-0.3-0.1-0.9-0.3-1.3-0.3c-1.4,0.7-3.7,0.5-5.2,0.2c-3.2-0.6-7.3-0.6-7.8-1c-0.5-0.3-1.7-0.8-3.1-0.3c-1.4,0.5-4.6,0.4-6.1,0.3
			c-1.5-0.1-2.9,0-4.2,0.4c-0.1,0-0.1,0-0.2,0.1c-0.2,0.4,0.1,0.8,0,1.3c0,0.4-0.2,0.7-0.3,1.1c0,0.2-0.1,0.5,0,0.7
			c0.4,0.9,1.6,0.6,2.2,0.4c1-0.3,2.1-0.6,3.2-0.5c1.5,0.1,3.6-0.2,4.6-0.1c0.8,0.3,1.2,0.5,2.1,0.6c0.6,0,1.3,0,2.1-0.2
			c0.8-0.2,7,0.4,12.8,1.4c0.6,0.1,1.1-0.2,1.8-0.4c0.5-0.1,6.2,0,8.9,0.1c0.2,0.1,0.4-0.1,0.7,0.1c-0.1,0.1,0,0.3,0.1,0.3
			c0.1,0.1,0.3,0,0.4,0c0.2-0.2,0.3-0.2,0.5-0.4c2.2-0.1,6.3-0.2,6.8,0c0.7,0.2,1.1,0.5,1.8,0.4c5.8-1.1,12.1-1.6,12.9-1.4
			c0.8,0.2,1.5,0.2,2.1,0.2c0.9-0.2,1.3-0.3,2.1-0.6c1-0.2,3.2,0.2,4.6,0.1c1-0.1,4.9,1.4,5.5,0.1C77.5,13.3,77.4,12.9,77.2,12.3z
			 M14,12.9l-0.1,0.2c-0.5,0-0.4-0.7-0.7-0.9c-0.8,0-3.4-0.1-4.1,0C9,12.4,9,12.7,8.7,12.7c-0.2,0-0.3,0-0.2-0.2
			c-0.4-0.4-1.1-0.4-1.6-0.3c-1.2,0-2.4,0.2-3.6,0.2C3.1,12.3,3,12.2,2.9,12c0,0.4-0.1,0.9-0.3,1.3c0.2-0.4,0.3-0.8,0.3-1.3
			c-0.2-0.3-0.2-0.7-0.1-1c0,0,0,0,0.1,0c0.5-0.3,1-0.3,1.5-0.5c1.9,0.1,5.4,0.1,7.3,0.2c0.3,0,0.5-0.1,0.7-0.2
			c0.7,0,1.3-0.1,1.9-0.2C13.8,10.9,13.6,12,14,12.9z M28.7,12.4c-0.2,0.5-0.3,1.1-0.1,1.7c-1.4-0.1-3-0.7-4.4-0.8
			c-0.1,0.1,0,0.3,0,0.3c-0.4,0.1-0.7-0.1-1.1-0.3L22.7,13l-3.6-0.3c-0.1,0-0.4,0-0.4,0.2l0,0.3c-0.4-0.3-0.8-0.7-1.4-0.7
			c-0.3,0.2-0.6-0.1-0.9,0c-0.4,0.1-0.9,0.3-1.2,0.6c-0.3,0-0.5-0.1-0.6-0.3c-0.1-0.7,0-1.4,0.5-1.9c0.8-0.4,1.8,0.1,2.7,0
			c1.8,0.1,3.7,0.2,5.5,0.6c1.4,0.3,3.8,0.3,4.4,0.3C28.6,11.6,28.9,11.8,28.7,12.4z M40.7,13.7c-2.6-0.1-8.6,0-9.3-0.1
			c-0.4,0-1-0.2-1.1,0.3c-0.3,0.1-0.6,0.3-0.6,0.6c-0.1,0-0.1,0-0.2,0c-0.2-0.8-0.2-1.6,0.1-2.4c0.9-0.7,8.2-0.5,11-0.4
			C40.5,12,41.3,13.2,40.7,13.7z M49.9,14c0,0-0.1,0-0.2,0c-0.1,0-0.3-0.1-0.4-0.2c-0.5-0.1-0.7-0.1-1.2-0.1c-0.6,0.1-4.2-0.1-6.2,0
			c0.1-0.4,0.6-0.9,0.5-1.3c0-0.2-0.1-0.4-0.1-0.6c0,0.1,3.7-0.1,4.1-0.1c1.2,0,2.5,0.1,3.7,0.2C49.9,12.4,50.7,13.7,49.9,14z
			 M65,12.7C64.8,13,64.6,13,64.3,13c-0.3-0.3-0.7-0.5-1.2-0.6c-0.3,0-0.6,0.2-0.9,0c-0.6-0.1-1,0.4-1.4,0.7l0-0.3
			c0-0.2-0.3-0.2-0.4-0.2L56.8,13l-0.5,0.3c-0.3,0.2-0.7,0.4-1.1,0.3c0,0,0.1-0.2,0-0.3c-1.4,0-3,0.7-4.4,0.8
			c0.2-0.6,0.1-1.2-0.1-1.7c-0.2-0.5,0.1-0.7,1.1-0.6c0.7,0.1,3,0.1,4.4-0.3c1.8-0.5,3.7-0.6,5.5-0.6c0.8,0.1,1.9-0.4,2.7,0
			C64.9,11.3,65.1,12,65,12.7z M76.4,12.3L76.4,12.3c0,0.1-0.1,0.1-0.2,0.2c-1.2,0-2.4-0.3-3.6-0.2c-0.6-0.1-1.2-0.1-1.6,0.3
			c0,0.2-0.1,0.3-0.2,0.2c-0.3,0-0.2-0.3-0.4-0.5c-0.7-0.1-3.3,0-4.1,0c-0.3,0.3-0.1,0.9-0.7,0.9l-0.1-0.2c0.4-0.9,0.2-2.1-0.4-2.7
			c0.6,0.1,1.3,0.2,1.9,0.2c0.2,0.2,0.4,0.2,0.7,0.2c1.9-0.1,5.5-0.1,7.3-0.2c0.4,0.1,0.8,0.2,1.2,0.3c0.1,0,0.2,0.1,0.4,0.2
			C76.8,11.4,76.7,11.9,76.4,12.3z"/>
	</g>
	<g>
		<path fill="#FFF4D3" d="M73.9,11.1c0.1-0.1,0.2-0.1,0.4-0.2c0.4-0.2,0.8-0.2,1.2-0.3c1.9,0.1,5.4,0.1,7.3,0.2
			c0.3,0,0.5-0.1,0.7-0.2c0.7,0,1.3-0.1,1.9-0.2c-0.6,0.6-0.8,1.8-0.4,2.7L85,13.2c-0.5,0-0.4-0.7-0.7-0.9c-0.8,0-3.4-0.1-4.1,0
			c-0.1,0.2-0.1,0.5-0.4,0.5c-0.2,0-0.3,0-0.2-0.2c-0.4-0.4-1.1-0.4-1.6-0.3c-1.2,0-2.4,0.2-3.6,0.2c-0.1,0-0.1-0.1-0.2-0.2
			C73.9,11.9,73.8,11.4,73.9,11.1z"/>
		<path fill="#FFF4D3" d="M86.1,10.8c-0.5,0.5-0.6,1.2-0.5,1.9C85.8,13,86,13,86.3,13c0.3-0.3,0.7-0.5,1.2-0.6c0.3,0,0.6,0.2,0.9,0
			c0.6-0.1,1,0.4,1.4,0.7l0-0.3c0-0.2,0.3-0.2,0.4-0.2l3.6,0.3l0.5,0.3c0.3,0.2,0.7,0.4,1.1,0.3c0,0-0.1-0.2,0-0.3
			c1.4,0,3,0.7,4.4,0.8c-0.2-0.6-0.1-1.2,0.1-1.7c0.2-0.5-0.1-0.7-1.1-0.6c-0.7,0.1-3,0.1-4.4-0.3c-1.8-0.5-3.7-0.6-5.5-0.6
			C88,10.9,86.9,10.4,86.1,10.8z"/>
		<path fill="#FFF4D3" d="M100.6,11.8c0.1,0.5-0.6,1.9,0.2,2.1c0,0,0.1,0,0.2,0c0.1,0,0.3-0.1,0.4-0.2c0.5-0.1,0.7-0.1,1.2-0.1
			c0.6,0.1,4.2-0.1,6.2,0c-0.1-0.4-0.6-0.9-0.5-1.3c0-0.2,0.1-0.4,0.1-0.6c0,0.1-3.7-0.1-4.1-0.1C103,11.7,101.8,11.8,100.6,11.8z"
			/>
		<path fill="#FFF4D3" d="M110,11.8c0.1,0.2-0.7,1.4-0.1,1.9c2.6-0.1,8.6,0,9.3-0.1c0.4,0,1-0.2,1.1,0.3c0.3,0.1,0.6,0.3,0.6,0.6
			c0.1,0,0.1,0,0.2,0c0.2-0.8,0.2-1.6-0.1-2.4C120.1,11.5,112.8,11.7,110,11.8z"/>
		<path fill="#FFF4D3" d="M123,11.7c-1-0.1-1.3,0.1-1.1,0.6c0.2,0.5,0.3,1.1,0.1,1.7c1.4-0.1,3-0.7,4.4-0.8c0.1,0.1,0,0.3,0,0.3
			c0.4,0.1,0.7-0.1,1.1-0.3l0.5-0.3l3.6-0.3c0.1,0,0.4,0,0.4,0.2l0,0.3c0.4-0.3,0.8-0.7,1.4-0.7c0.3,0.2,0.6-0.1,0.9,0
			c0.4,0.1,0.9,0.3,1.2,0.6c0.3,0,0.5-0.1,0.6-0.3c0.1-0.7,0-1.4-0.5-1.9c-0.8-0.4-1.8,0.1-2.7,0c-1.8,0.1-3.7,0.2-5.5,0.6
			C126,11.8,123.6,11.8,123,11.7z"/>
		<path fill="#FFF4D3" d="M136.3,10.3c0.6,0.1,1.3,0.2,1.9,0.2c0.2,0.2,0.4,0.2,0.7,0.2c1.9-0.1,5.5-0.1,7.3-0.2
			c0.5,0.2,1,0.2,1.5,0.5c0,0,0,0,0.1,0c0.1,0.3,0.1,0.6-0.1,1c-0.1,0.1-0.2,0.3-0.3,0.4c-1.2,0-2.4-0.3-3.6-0.2
			c-0.6-0.1-1.2-0.1-1.6,0.3c0,0.2-0.1,0.3-0.2,0.2c-0.3,0-0.2-0.3-0.4-0.5c-0.7-0.1-3.3,0-4.1,0c-0.3,0.3-0.1,0.9-0.7,0.9l-0.1-0.2
			C137,12,136.8,10.9,136.3,10.3z"/>
		<path fill="#754C29" d="M73.2,13.6c0.5,1.3,4.5-0.2,5.5-0.1c1.5,0.1,3.6-0.2,4.6-0.1c0.8,0.3,1.2,0.5,2.1,0.6c0.6,0,1.3,0,2.1-0.2
			c0.8-0.2,7,0.4,12.9,1.4c0.6,0.1,1.1-0.2,1.8-0.4c0.5-0.1,4.6,0,6.8,0c0.2,0.1,0.3,0.2,0.5,0.4c0.1,0.1,0.3,0.1,0.4,0
			c0.1-0.1,0.2-0.2,0.1-0.3c0.2-0.1,0.4,0.1,0.7-0.1c2.7-0.1,8.4-0.2,8.9-0.1c0.7,0.2,1.1,0.5,1.8,0.4c5.8-1.1,12.1-1.6,12.8-1.4
			c0.8,0.2,1.5,0.2,2.1,0.2c0.9-0.2,1.3-0.3,2.1-0.6c1-0.2,3.2,0.2,4.6,0.1c1.1-0.1,2.1,0.3,3.2,0.5c0.7,0.2,1.9,0.5,2.2-0.4
			c0.1-0.2,0.1-0.5,0-0.7c-0.1-0.4-0.3-0.7-0.3-1.1c0-0.4,0.2-0.8,0-1.3c-0.1,0-0.1,0-0.2-0.1c-1.3-0.4-2.7-0.4-4.2-0.4
			c-1.6,0.1-4.8,0.1-6.1-0.3c-1.4-0.4-2.6,0-3.1,0.3c-0.5,0.3-4.6,0.4-7.8,1c-1.6,0.3-3.8,0.5-5.2-0.2c-0.4,0-1,0.2-1.3,0.3
			c-0.2,0.1-6,0.2-9.3,0.2c0,0-0.1,0-0.1,0c-0.2,0-0.4,0-0.6,0c-0.4,0-0.3,0-0.6-0.3c-0.1-0.1-0.3-0.1-0.3,0c0,0,0,0.1,0,0.1
			c0,0.1-0.1,0.2-0.2,0.2c-0.6,0.2-1.5,0-2.1,0c-0.8,0-1.6,0-2.4,0c-0.9,0-2.1,0.1-3-0.1c-0.3-0.1-0.9-0.3-1.3-0.3
			c-1.4,0.7-3.7,0.5-5.2,0.2c-3.2-0.6-7.3-0.6-7.8-1c-0.5-0.3-1.7-0.8-3.1-0.3c-1.4,0.5-4.6,0.4-6.1,0.3c-1.3-0.1-2.5,0-3.7,0.2
			c-0.2,0-0.3,0.1-0.5,0.1c-0.1,0-0.2,0-0.2,0.1c-0.2,0.6,0.1,1.2-0.1,1.8C73.2,12.9,73.1,13.3,73.2,13.6z M136.3,10.3
			c0.6,0.1,1.3,0.2,1.9,0.2c0.2,0.2,0.4,0.2,0.7,0.2c1.9-0.1,5.5-0.1,7.3-0.2c0.5,0.2,1,0.2,1.5,0.5c0,0,0,0,0.1,0
			c0.1,0.3,0.1,0.6-0.1,1c0,0.4,0.1,0.9,0.3,1.3c-0.2-0.4-0.3-0.8-0.3-1.3c-0.1,0.1-0.2,0.3-0.3,0.4c-1.2,0-2.4-0.3-3.6-0.2
			c-0.6-0.1-1.2-0.1-1.6,0.3c0,0.2-0.1,0.3-0.2,0.2c-0.3,0-0.2-0.3-0.4-0.5c-0.7-0.1-3.3,0-4.1,0c-0.3,0.3-0.1,0.9-0.7,0.9l-0.1-0.2
			C137,12,136.8,10.9,136.3,10.3z M123,11.7c0.7,0.1,3,0.1,4.4-0.3c1.8-0.5,3.7-0.6,5.5-0.6c0.8,0.1,1.9-0.4,2.7,0
			c0.5,0.5,0.6,1.2,0.5,1.9c-0.1,0.3-0.4,0.3-0.6,0.3c-0.3-0.3-0.7-0.5-1.2-0.6c-0.3,0-0.6,0.2-0.9,0c-0.6-0.1-1,0.4-1.4,0.7l0-0.3
			c0-0.2-0.3-0.2-0.4-0.2l-3.6,0.3l-0.5,0.3c-0.3,0.2-0.7,0.4-1.1,0.3c0,0,0.1-0.2,0-0.3c-1.4,0-3,0.7-4.4,0.8
			c0.2-0.6,0.1-1.2-0.1-1.7C121.7,11.8,122,11.6,123,11.7z M110,11.8c2.9-0.1,10.1-0.3,11,0.4c0.3,0.7,0.3,1.6,0.1,2.4
			c-0.1,0-0.1,0-0.2,0c0-0.3-0.4-0.5-0.6-0.6c-0.1-0.5-0.7-0.3-1.1-0.3c-0.6,0.1-6.6-0.1-9.3,0.1C109.3,13.2,110.1,12,110,11.8z
			 M100.6,11.8c1.2-0.1,2.5-0.1,3.7-0.2c0.4,0,4,0.3,4.1,0.1c-0.1,0.2-0.1,0.3-0.1,0.6c-0.1,0.4,0.4,0.9,0.5,1.3
			c-2-0.1-5.6,0.1-6.2,0c-0.5,0-0.8,0-1.2,0.1c-0.1,0.1-0.2,0.2-0.4,0.2c-0.1,0-0.1,0-0.2,0C99.9,13.7,100.7,12.4,100.6,11.8z
			 M86.1,10.8c0.8-0.4,1.8,0.1,2.7,0c1.8,0.1,3.7,0.2,5.5,0.6c1.4,0.3,3.8,0.3,4.4,0.3c1-0.1,1.3,0.1,1.1,0.6
			c-0.2,0.5-0.3,1.1-0.1,1.7c-1.4-0.1-3-0.7-4.4-0.8c-0.1,0.1,0,0.3,0,0.3c-0.4,0.1-0.7-0.1-1.1-0.3L93.8,13l-3.6-0.3
			c-0.1,0-0.4,0-0.4,0.2l0,0.3c-0.4-0.3-0.8-0.7-1.4-0.7c-0.3,0.2-0.6-0.1-0.9,0c-0.4,0.1-0.9,0.3-1.2,0.6c-0.3,0-0.5-0.1-0.6-0.3
			C85.5,12,85.7,11.3,86.1,10.8z M73.9,11.1c0.1-0.1,0.2-0.1,0.4-0.2c0.4-0.2,0.8-0.2,1.2-0.3c1.9,0.1,5.4,0.1,7.3,0.2
			c0.3,0,0.5-0.1,0.7-0.2c0.7,0,1.3-0.1,1.9-0.2c-0.6,0.6-0.8,1.8-0.4,2.7L85,13.2c-0.5,0-0.4-0.7-0.7-0.9c-0.8,0-3.4-0.1-4.1,0
			c-0.1,0.2-0.1,0.5-0.4,0.5c-0.2,0-0.3,0-0.2-0.2c-0.4-0.4-1.1-0.4-1.6-0.3c-1.2,0-2.4,0.2-3.6,0.2c-0.1,0-0.1-0.1-0.2-0.2v0
			C73.9,11.9,73.8,11.4,73.9,11.1z"/>
	</g>
	<g>
		<path fill="#FFF4D3" d="M218.8,11.1c-0.1-0.1-0.2-0.1-0.4-0.2c-0.4-0.2-0.8-0.2-1.2-0.3c-1.9,0.1-5.4,0.1-7.3,0.2
			c-0.3,0-0.5-0.1-0.7-0.2c-0.7,0-1.3-0.1-1.9-0.2c0.6,0.6,0.8,1.8,0.4,2.7l0.1,0.2c0.5,0,0.4-0.7,0.7-0.9c0.8,0,3.4-0.1,4.1,0
			c0.1,0.2,0.1,0.5,0.4,0.5c0.2,0,0.3,0,0.2-0.2c0.4-0.4,1.1-0.4,1.6-0.3c1.2,0,2.4,0.2,3.6,0.2c0.1,0,0.1-0.1,0.2-0.2
			C218.8,11.9,218.9,11.4,218.8,11.1z"/>
		<path fill="#FFF4D3" d="M206.6,10.8c0.5,0.5,0.6,1.2,0.5,1.9c-0.1,0.3-0.4,0.3-0.6,0.3c-0.3-0.3-0.7-0.5-1.2-0.6
			c-0.3,0-0.6,0.2-0.9,0c-0.6-0.1-1,0.4-1.4,0.7l0-0.3c0-0.2-0.3-0.2-0.4-0.2L199,13l-0.5,0.3c-0.3,0.2-0.7,0.4-1.1,0.3
			c0,0,0.1-0.2,0-0.3c-1.4,0-3,0.7-4.4,0.8c0.2-0.6,0.1-1.2-0.1-1.7c-0.2-0.5,0.1-0.7,1.1-0.6c0.7,0.1,3,0.1,4.4-0.3
			c1.8-0.5,3.7-0.6,5.5-0.6C204.8,10.9,205.8,10.4,206.6,10.8z"/>
		<path fill="#FFF4D3" d="M192.2,11.8c-0.1,0.5,0.6,1.9-0.2,2.1c0,0-0.1,0-0.2,0c-0.1,0-0.3-0.1-0.4-0.2c-0.5-0.1-0.7-0.1-1.2-0.1
			c-0.6,0.1-4.2-0.1-6.2,0c0.1-0.4,0.6-0.9,0.5-1.3c0-0.2-0.1-0.4-0.1-0.6c0,0.1,3.7-0.1,4.1-0.1C189.7,11.7,191,11.8,192.2,11.8z"
			/>
		<path fill="#FFF4D3" d="M182.8,11.8c-0.1,0.2,0.7,1.4,0.1,1.9c-2.6-0.1-8.6,0-9.3-0.1c-0.4,0-1-0.2-1.1,0.3
			c-0.3,0.1-0.6,0.3-0.6,0.6c-0.1,0-0.1,0-0.2,0c-0.2-0.8-0.2-1.6,0.1-2.4C172.7,11.5,179.9,11.7,182.8,11.8z"/>
		<path fill="#FFF4D3" d="M169.8,11.7c1-0.1,1.3,0.1,1.1,0.6c-0.2,0.5-0.3,1.1-0.1,1.7c-1.4-0.1-3-0.7-4.4-0.8c-0.1,0.1,0,0.3,0,0.3
			c-0.4,0.1-0.7-0.1-1.1-0.3l-0.5-0.3l-3.6-0.3c-0.1,0-0.4,0-0.4,0.2l0,0.3c-0.4-0.3-0.8-0.7-1.4-0.7c-0.3,0.2-0.6-0.1-0.9,0
			c-0.4,0.1-0.9,0.3-1.2,0.6c-0.3,0-0.5-0.1-0.6-0.3c-0.1-0.7,0-1.4,0.5-1.9c0.8-0.4,1.8,0.1,2.7,0c1.8,0.1,3.7,0.2,5.5,0.6
			C166.7,11.8,169.1,11.8,169.8,11.7z"/>
		<path fill="#FFF4D3" d="M156.5,10.3c-0.6,0.1-1.3,0.2-1.9,0.2c-0.2,0.2-0.4,0.2-0.7,0.2c-1.9-0.1-5.5-0.1-7.3-0.2
			c-0.5,0.2-1,0.2-1.5,0.5c0,0,0,0-0.1,0c-0.1,0.3-0.1,0.6,0.1,1c0.1,0.1,0.2,0.3,0.3,0.4c1.2,0,2.4-0.3,3.6-0.2
			c0.6-0.1,1.2-0.1,1.6,0.3c0,0.2,0.1,0.3,0.2,0.2c0.3,0,0.2-0.3,0.4-0.5c0.7-0.1,3.3,0,4.1,0c0.3,0.3,0.1,0.9,0.7,0.9l0.1-0.2
			C155.8,12,155.9,10.9,156.5,10.3z"/>
		<path fill="#754C29" d="M219.3,12.3c-0.3-0.6,0.1-1.2-0.1-1.8c-0.1,0-0.2,0-0.2-0.1c-0.2-0.1-0.3-0.1-0.5-0.1
			c-1.1-0.3-2.4-0.3-3.7-0.2c-1.6,0.1-4.8,0.1-6.1-0.3c-1.4-0.4-2.6,0-3.1,0.3c-0.5,0.3-4.6,0.4-7.8,1c-1.6,0.3-3.8,0.5-5.2-0.2
			c-0.4,0-1,0.2-1.3,0.3c-0.9,0.3-2.1,0.1-3,0.1c-0.8,0-1.6,0-2.4,0c-0.6,0-1.5,0.2-2.1,0c-0.1,0-0.2-0.1-0.2-0.2c0,0,0-0.1,0-0.1
			c0-0.1-0.2-0.1-0.3,0c-0.2,0.3-0.1,0.3-0.6,0.3c-0.2,0-0.4-0.1-0.6,0c0,0-0.1,0-0.1,0c-3.3,0-9.1-0.1-9.3-0.2
			c-0.3-0.1-0.9-0.3-1.3-0.3c-1.4,0.7-3.7,0.5-5.2,0.2c-3.2-0.6-7.3-0.6-7.8-1c-0.5-0.3-1.7-0.8-3.1-0.3c-1.4,0.5-4.6,0.4-6.1,0.3
			c-1.5-0.1-2.9,0-4.2,0.4c-0.1,0-0.1,0-0.2,0.1c-0.2,0.4,0.1,0.8,0,1.3c0,0.4-0.2,0.7-0.3,1.1c0,0.2-0.1,0.5,0,0.7
			c0.4,0.9,1.6,0.6,2.2,0.4c1-0.3,2.1-0.6,3.2-0.5c1.5,0.1,3.6-0.2,4.6-0.1c0.8,0.3,1.2,0.5,2.1,0.6c0.6,0,1.3,0,2.1-0.2
			c0.8-0.2,7,0.4,12.8,1.4c0.6,0.1,1.1-0.2,1.8-0.4c0.5-0.1,6.2,0,8.9,0.1c0.2,0.1,0.4-0.1,0.7,0.1c-0.1,0.1,0,0.3,0.1,0.3
			c0.1,0.1,0.3,0,0.4,0c0.2-0.2,0.3-0.2,0.5-0.4c2.2-0.1,6.3-0.2,6.8,0c0.7,0.2,1.1,0.5,1.8,0.4c5.8-1.1,12.1-1.6,12.9-1.4
			c0.8,0.2,1.5,0.2,2.1,0.2c0.9-0.2,1.3-0.3,2.1-0.6c1-0.2,3.2,0.2,4.6,0.1c1-0.1,4.9,1.4,5.5,0.1C219.6,13.3,219.6,12.9,219.3,12.3
			z M156.1,12.9l-0.1,0.2c-0.5,0-0.4-0.7-0.7-0.9c-0.8,0-3.4-0.1-4.1,0c-0.1,0.2-0.1,0.5-0.4,0.5c-0.2,0-0.3,0-0.2-0.2
			c-0.4-0.4-1.1-0.4-1.6-0.3c-1.2,0-2.4,0.2-3.6,0.2c-0.1-0.1-0.2-0.3-0.3-0.4c0,0.4-0.1,0.9-0.3,1.3c0.2-0.4,0.3-0.8,0.3-1.3
			c-0.2-0.3-0.2-0.7-0.1-1c0,0,0,0,0.1,0c0.5-0.3,1-0.3,1.5-0.5c1.9,0.1,5.4,0.1,7.3,0.2c0.3,0,0.5-0.1,0.7-0.2
			c0.7,0,1.3-0.1,1.9-0.2C155.9,10.9,155.8,12,156.1,12.9z M170.9,12.4c-0.2,0.5-0.3,1.1-0.1,1.7c-1.4-0.1-3-0.7-4.4-0.8
			c-0.1,0.1,0,0.3,0,0.3c-0.4,0.1-0.7-0.1-1.1-0.3l-0.5-0.3l-3.6-0.3c-0.1,0-0.4,0-0.4,0.2l0,0.3c-0.4-0.3-0.8-0.7-1.4-0.7
			c-0.3,0.2-0.6-0.1-0.9,0c-0.4,0.1-0.9,0.3-1.2,0.6c-0.3,0-0.5-0.1-0.6-0.3c-0.1-0.7,0-1.4,0.5-1.9c0.8-0.4,1.8,0.1,2.7,0
			c1.8,0.1,3.7,0.2,5.5,0.6c1.4,0.3,3.8,0.3,4.4,0.3C170.7,11.6,171.1,11.8,170.9,12.4z M182.9,13.7c-2.6-0.1-8.6,0-9.3-0.1
			c-0.4,0-1-0.2-1.1,0.3c-0.3,0.1-0.6,0.3-0.6,0.6c-0.1,0-0.1,0-0.2,0c-0.2-0.8-0.2-1.6,0.1-2.4c0.9-0.7,8.2-0.5,11-0.4
			C182.7,12,183.4,13.2,182.9,13.7z M192,14c0,0-0.1,0-0.2,0c-0.1,0-0.3-0.1-0.4-0.2c-0.5-0.1-0.7-0.1-1.2-0.1
			c-0.6,0.1-4.2-0.1-6.2,0c0.1-0.4,0.6-0.9,0.5-1.3c0-0.2-0.1-0.4-0.1-0.6c0,0.1,3.7-0.1,4.1-0.1c1.2,0,2.5,0.1,3.7,0.2
			C192.1,12.4,192.8,13.7,192,14z M207.1,12.7c-0.1,0.3-0.4,0.3-0.6,0.3c-0.3-0.3-0.7-0.5-1.2-0.6c-0.3,0-0.6,0.2-0.9,0
			c-0.6-0.1-1,0.4-1.4,0.7l0-0.3c0-0.2-0.3-0.2-0.4-0.2L199,13l-0.5,0.3c-0.3,0.2-0.7,0.4-1.1,0.3c0,0,0.1-0.2,0-0.3
			c-1.4,0-3,0.7-4.4,0.8c0.2-0.6,0.1-1.2-0.1-1.7c-0.2-0.5,0.1-0.7,1.1-0.6c0.7,0.1,3,0.1,4.4-0.3c1.8-0.5,3.7-0.6,5.5-0.6
			c0.8,0.1,1.9-0.4,2.7,0C207.1,11.3,207.2,12,207.1,12.7z M218.6,12.3L218.6,12.3c0,0.1-0.1,0.1-0.2,0.2c-1.2,0-2.4-0.3-3.6-0.2
			c-0.6-0.1-1.2-0.1-1.6,0.3c0,0.2-0.1,0.3-0.2,0.2c-0.3,0-0.2-0.3-0.4-0.5c-0.7-0.1-3.3,0-4.1,0c-0.3,0.3-0.1,0.9-0.7,0.9l-0.1-0.2
			c0.4-0.9,0.2-2.1-0.4-2.7c0.6,0.1,1.3,0.2,1.9,0.2c0.2,0.2,0.4,0.2,0.7,0.2c1.9-0.1,5.5-0.1,7.3-0.2c0.4,0.1,0.8,0.2,1.2,0.3
			c0.1,0,0.2,0.1,0.4,0.2C218.9,11.4,218.8,11.9,218.6,12.3z"/>
	</g>
</g>
<g>
	<g>
		<path fill="#FFF4D3" d="M293.1,11.1c-0.1-0.1-0.2-0.1-0.4-0.2c-0.4-0.2-0.8-0.2-1.2-0.3c-1.9,0.1-5.4,0.1-7.3,0.2
			c-0.3,0-0.5-0.1-0.7-0.2c-0.7,0-1.3-0.1-1.9-0.2c0.6,0.6,0.8,1.8,0.4,2.7l0.1,0.2c0.5,0,0.4-0.7,0.7-0.9c0.8,0,3.4-0.1,4.1,0
			c0.1,0.2,0.1,0.5,0.4,0.5c0.2,0,0.3,0,0.2-0.2c0.4-0.4,1.1-0.4,1.6-0.3c1.2,0,2.4,0.2,3.6,0.2c0.1,0,0.1-0.1,0.2-0.2
			C293.1,11.9,293.2,11.4,293.1,11.1z"/>
		<path fill="#FFF4D3" d="M280.9,10.8c0.5,0.5,0.6,1.2,0.5,1.9c-0.1,0.3-0.4,0.3-0.6,0.3c-0.3-0.3-0.7-0.5-1.2-0.6
			c-0.3,0-0.6,0.2-0.9,0c-0.6-0.1-1,0.4-1.4,0.7l0-0.3c0-0.2-0.3-0.2-0.4-0.2l-3.6,0.3l-0.5,0.3c-0.3,0.2-0.7,0.4-1.1,0.3
			c0,0,0.1-0.2,0-0.3c-1.4,0-3,0.7-4.4,0.8c0.2-0.6,0.1-1.2-0.1-1.7c-0.2-0.5,0.1-0.7,1.1-0.6c0.7,0.1,3,0.1,4.4-0.3
			c1.8-0.5,3.7-0.6,5.5-0.6C279,10.9,280.1,10.4,280.9,10.8z"/>
		<path fill="#FFF4D3" d="M266.4,11.8c-0.1,0.5,0.6,1.9-0.2,2.1c0,0-0.1,0-0.2,0c-0.1,0-0.3-0.1-0.4-0.2c-0.5-0.1-0.7-0.1-1.2-0.1
			c-0.6,0.1-4.2-0.1-6.2,0c0.1-0.4,0.6-0.9,0.5-1.3c0-0.2-0.1-0.4-0.1-0.6c0,0.1,3.7-0.1,4.1-0.1C264,11.7,265.2,11.8,266.4,11.8z"
			/>
		<path fill="#FFF4D3" d="M257,11.8c-0.1,0.2,0.7,1.4,0.1,1.9c-2.6-0.1-8.6,0-9.3-0.1c-0.4,0-1-0.2-1.1,0.3
			c-0.3,0.1-0.6,0.3-0.6,0.6c-0.1,0-0.1,0-0.2,0c-0.2-0.8-0.2-1.6,0.1-2.4C246.9,11.5,254.2,11.7,257,11.8z"/>
		<path fill="#FFF4D3" d="M244,11.7c1-0.1,1.3,0.1,1.1,0.6c-0.2,0.5-0.3,1.1-0.1,1.7c-1.4-0.1-3-0.7-4.4-0.8c-0.1,0.1,0,0.3,0,0.3
			c-0.4,0.1-0.7-0.1-1.1-0.3l-0.5-0.3l-3.6-0.3c-0.1,0-0.4,0-0.4,0.2l0,0.3c-0.4-0.3-0.8-0.7-1.4-0.7c-0.3,0.2-0.6-0.1-0.9,0
			c-0.4,0.1-0.9,0.3-1.2,0.6c-0.3,0-0.5-0.1-0.6-0.3c-0.1-0.7,0-1.4,0.5-1.9c0.8-0.4,1.8,0.1,2.7,0c1.8,0.1,3.7,0.2,5.5,0.6
			C241,11.8,243.4,11.8,244,11.7z"/>
		<path fill="#FFF4D3" d="M230.7,10.3c-0.6,0.1-1.3,0.2-1.9,0.2c-0.2,0.2-0.4,0.2-0.7,0.2c-1.9-0.1-5.5-0.1-7.3-0.2
			c-0.5,0.2-1,0.2-1.5,0.5c0,0,0,0-0.1,0c-0.1,0.3-0.1,0.6,0.1,1c0.1,0.1,0.2,0.3,0.3,0.4c1.2,0,2.4-0.3,3.6-0.2
			c0.6-0.1,1.2-0.1,1.6,0.3c0,0.2,0.1,0.3,0.2,0.2c0.3,0,0.2-0.3,0.4-0.5c0.7-0.1,3.3,0,4.1,0c0.3,0.3,0.1,0.9,0.7,0.9l0.1-0.2
			C230,12,230.2,10.9,230.7,10.3z"/>
		<path fill="#754C29" d="M293.6,12.3c-0.3-0.6,0.1-1.2-0.1-1.8c-0.1,0-0.2,0-0.2-0.1c-0.2-0.1-0.3-0.1-0.5-0.1
			c-1.1-0.3-2.4-0.3-3.7-0.2c-1.6,0.1-4.8,0.1-6.1-0.3c-1.4-0.4-2.6,0-3.1,0.3c-0.5,0.3-4.6,0.4-7.8,1c-1.6,0.3-3.8,0.5-5.2-0.2
			c-0.4,0-1,0.2-1.3,0.3c-0.9,0.3-2.1,0.1-3,0.1c-0.8,0-1.6,0-2.4,0c-0.6,0-1.5,0.2-2.1,0c-0.1,0-0.2-0.1-0.2-0.2c0,0,0-0.1,0-0.1
			c0-0.1-0.2-0.1-0.3,0c-0.2,0.3-0.1,0.3-0.6,0.3c-0.2,0-0.4-0.1-0.6,0c0,0-0.1,0-0.1,0c-3.3,0-9.1-0.1-9.3-0.2
			c-0.3-0.1-0.9-0.3-1.3-0.3c-1.4,0.7-3.7,0.5-5.2,0.2c-3.2-0.6-7.3-0.6-7.8-1c-0.5-0.3-1.7-0.8-3.1-0.3c-1.4,0.5-4.6,0.4-6.1,0.3
			c-1.5-0.1-2.9,0-4.2,0.4c-0.1,0-0.1,0-0.2,0.1c-0.2,0.4,0.1,0.8,0,1.3c0,0.4-0.2,0.7-0.3,1.1c0,0.2-0.1,0.5,0,0.7
			c0.4,0.9,1.6,0.6,2.2,0.4c1-0.3,2.1-0.6,3.2-0.5c1.5,0.1,3.6-0.2,4.6-0.1c0.8,0.3,1.2,0.5,2.1,0.6c0.6,0,1.3,0,2.1-0.2
			c0.8-0.2,7,0.4,12.8,1.4c0.6,0.1,1.1-0.2,1.8-0.4c0.5-0.1,6.2,0,8.9,0.1c0.2,0.1,0.4-0.1,0.7,0.1c-0.1,0.1,0,0.3,0.1,0.3
			c0.1,0.1,0.3,0,0.4,0c0.2-0.2,0.3-0.2,0.5-0.4c2.2-0.1,6.3-0.2,6.8,0c0.7,0.2,1.1,0.5,1.8,0.4c5.8-1.1,12.1-1.6,12.9-1.4
			c0.8,0.2,1.5,0.2,2.1,0.2c0.9-0.2,1.3-0.3,2.1-0.6c1-0.2,3.2,0.2,4.6,0.1c1-0.1,4.9,1.4,5.5,0.1C293.9,13.3,293.8,12.9,293.6,12.3
			z M230.4,12.9l-0.1,0.2c-0.5,0-0.4-0.7-0.7-0.9c-0.8,0-3.4-0.1-4.1,0c-0.1,0.2-0.1,0.5-0.4,0.5c-0.2,0-0.3,0-0.2-0.2
			c-0.4-0.4-1.1-0.4-1.6-0.3c-1.2,0-2.4,0.2-3.6,0.2c-0.1-0.1-0.2-0.3-0.3-0.4c0,0.4-0.1,0.9-0.3,1.3c0.2-0.4,0.3-0.8,0.3-1.3
			c-0.2-0.3-0.2-0.7-0.1-1c0,0,0,0,0.1,0c0.5-0.3,1-0.3,1.5-0.5c1.9,0.1,5.4,0.1,7.3,0.2c0.3,0,0.5-0.1,0.7-0.2
			c0.7,0,1.3-0.1,1.9-0.2C230.2,10.9,230,12,230.4,12.9z M245.1,12.4c-0.2,0.5-0.3,1.1-0.1,1.7c-1.4-0.1-3-0.7-4.4-0.8
			c-0.1,0.1,0,0.3,0,0.3c-0.4,0.1-0.7-0.1-1.1-0.3l-0.5-0.3l-3.6-0.3c-0.1,0-0.4,0-0.4,0.2l0,0.3c-0.4-0.3-0.8-0.7-1.4-0.7
			c-0.3,0.2-0.6-0.1-0.9,0c-0.4,0.1-0.9,0.3-1.2,0.6c-0.3,0-0.5-0.1-0.6-0.3c-0.1-0.7,0-1.4,0.5-1.9c0.8-0.4,1.8,0.1,2.7,0
			c1.8,0.1,3.7,0.2,5.5,0.6c1.4,0.3,3.8,0.3,4.4,0.3C245,11.6,245.3,11.8,245.1,12.4z M257.1,13.7c-2.6-0.1-8.6,0-9.3-0.1
			c-0.4,0-1-0.2-1.1,0.3c-0.3,0.1-0.6,0.3-0.6,0.6c-0.1,0-0.1,0-0.2,0c-0.2-0.8-0.2-1.6,0.1-2.4c0.9-0.7,8.2-0.5,11-0.4
			C257,12,257.7,13.2,257.1,13.7z M266.3,14c0,0-0.1,0-0.2,0c-0.1,0-0.3-0.1-0.4-0.2c-0.5-0.1-0.7-0.1-1.2-0.1
			c-0.6,0.1-4.2-0.1-6.2,0c0.1-0.4,0.6-0.9,0.5-1.3c0-0.2-0.1-0.4-0.1-0.6c0,0.1,3.7-0.1,4.1-0.1c1.2,0,2.5,0.1,3.7,0.2
			C266.3,12.4,267.1,13.7,266.3,14z M281.4,12.7c-0.1,0.3-0.4,0.3-0.6,0.3c-0.3-0.3-0.7-0.5-1.2-0.6c-0.3,0-0.6,0.2-0.9,0
			c-0.6-0.1-1,0.4-1.4,0.7l0-0.3c0-0.2-0.3-0.2-0.4-0.2l-3.6,0.3l-0.5,0.3c-0.3,0.2-0.7,0.4-1.1,0.3c0,0,0.1-0.2,0-0.3
			c-1.4,0-3,0.7-4.4,0.8c0.2-0.6,0.1-1.2-0.1-1.7c-0.2-0.5,0.1-0.7,1.1-0.6c0.7,0.1,3,0.1,4.4-0.3c1.8-0.5,3.7-0.6,5.5-0.6
			c0.8,0.1,1.9-0.4,2.7,0C281.3,11.3,281.5,12,281.4,12.7z M292.8,12.3L292.8,12.3c0,0.1-0.1,0.1-0.2,0.2c-1.2,0-2.4-0.3-3.6-0.2
			c-0.6-0.1-1.2-0.1-1.6,0.3c0,0.2-0.1,0.3-0.2,0.2c-0.3,0-0.2-0.3-0.4-0.5c-0.7-0.1-3.3,0-4.1,0c-0.3,0.3-0.1,0.9-0.7,0.9l-0.1-0.2
			c0.4-0.9,0.2-2.1-0.4-2.7c0.6,0.1,1.3,0.2,1.9,0.2c0.2,0.2,0.4,0.2,0.7,0.2c1.9-0.1,5.5-0.1,7.3-0.2c0.4,0.1,0.8,0.2,1.2,0.3
			c0.1,0,0.2,0.1,0.4,0.2C293.2,11.4,293.1,11.9,292.8,12.3z"/>
	</g>
	<g>
		<path fill="#FFF4D3" d="M290.3,11.1c0.1-0.1,0.2-0.1,0.4-0.2c0.4-0.2,0.8-0.2,1.2-0.3c1.9,0.1,5.4,0.1,7.3,0.2
			c0.3,0,0.5-0.1,0.7-0.2c0.7,0,1.3-0.1,1.9-0.2c-0.6,0.6-0.8,1.8-0.4,2.7l-0.1,0.2c-0.5,0-0.4-0.7-0.7-0.9c-0.8,0-3.4-0.1-4.1,0
			c-0.1,0.2-0.1,0.5-0.4,0.5c-0.2,0-0.3,0-0.2-0.2c-0.4-0.4-1.1-0.4-1.6-0.3c-1.2,0-2.4,0.2-3.6,0.2c-0.1,0-0.1-0.1-0.2-0.2
			C290.3,11.9,290.2,11.4,290.3,11.1z"/>
		<path fill="#FFF4D3" d="M302.5,10.8c-0.5,0.5-0.6,1.2-0.5,1.9c0.1,0.3,0.4,0.3,0.6,0.3c0.3-0.3,0.7-0.5,1.2-0.6
			c0.3,0,0.6,0.2,0.9,0c0.6-0.1,1,0.4,1.4,0.7l0-0.3c0-0.2,0.3-0.2,0.4-0.2l3.6,0.3l0.5,0.3c0.3,0.2,0.7,0.4,1.1,0.3
			c0,0-0.1-0.2,0-0.3c1.4,0,3,0.7,4.4,0.8c-0.2-0.6-0.1-1.2,0.1-1.7c0.2-0.5-0.1-0.7-1.1-0.6c-0.7,0.1-3,0.1-4.4-0.3
			c-1.8-0.5-3.7-0.6-5.5-0.6C304.4,10.9,303.3,10.4,302.5,10.8z"/>
		<path fill="#FFF4D3" d="M317,11.8c0.1,0.5-0.6,1.9,0.2,2.1c0,0,0.1,0,0.2,0c0.1,0,0.3-0.1,0.4-0.2c0.5-0.1,0.7-0.1,1.2-0.1
			c0.6,0.1,4.2-0.1,6.2,0c-0.1-0.4-0.6-0.9-0.5-1.3c0-0.2,0.1-0.4,0.1-0.6c0,0.1-3.7-0.1-4.1-0.1C319.4,11.7,318.2,11.8,317,11.8z"
			/>
		<path fill="#FFF4D3" d="M326.4,11.8c0.1,0.2-0.7,1.4-0.1,1.9c2.6-0.1,8.6,0,9.3-0.1c0.4,0,1-0.2,1.1,0.3c0.3,0.1,0.6,0.3,0.6,0.6
			c0.1,0,0.1,0,0.2,0c0.2-0.8,0.2-1.6-0.1-2.4C336.5,11.5,329.2,11.7,326.4,11.8z"/>
		<path fill="#FFF4D3" d="M339.4,11.7c-1-0.1-1.3,0.1-1.1,0.6c0.2,0.5,0.3,1.1,0.1,1.7c1.4-0.1,3-0.7,4.4-0.8c0.1,0.1,0,0.3,0,0.3
			c0.4,0.1,0.7-0.1,1.1-0.3l0.5-0.3l3.6-0.3c0.1,0,0.4,0,0.4,0.2l0,0.3c0.4-0.3,0.8-0.7,1.4-0.7c0.3,0.2,0.6-0.1,0.9,0
			c0.4,0.1,0.9,0.3,1.2,0.6c0.3,0,0.5-0.1,0.6-0.3c0.1-0.7,0-1.4-0.5-1.9c-0.8-0.4-1.8,0.1-2.7,0c-1.8,0.1-3.7,0.2-5.5,0.6
			C342.4,11.8,340,11.8,339.4,11.7z"/>
		<path fill="#FFF4D3" d="M352.7,10.3c0.6,0.1,1.3,0.2,1.9,0.2c0.2,0.2,0.4,0.2,0.7,0.2c1.9-0.1,5.5-0.1,7.3-0.2
			c0.5,0.2,1,0.2,1.5,0.5c0,0,0,0,0.1,0c0.1,0.3,0.1,0.6-0.1,1c-0.1,0.1-0.2,0.3-0.3,0.4c-1.2,0-2.4-0.3-3.6-0.2
			c-0.6-0.1-1.2-0.1-1.6,0.3c0,0.2-0.1,0.3-0.2,0.2c-0.3,0-0.2-0.3-0.4-0.5c-0.7-0.1-3.3,0-4.1,0c-0.3,0.3-0.1,0.9-0.7,0.9l-0.1-0.2
			C353.4,12,353.2,10.9,352.7,10.3z"/>
		<path fill="#754C29" d="M289.6,13.6c0.5,1.3,4.5-0.2,5.5-0.1c1.5,0.1,3.6-0.2,4.6-0.1c0.8,0.3,1.2,0.5,2.1,0.6
			c0.6,0,1.3,0,2.1-0.2c0.8-0.2,7,0.4,12.9,1.4c0.6,0.1,1.1-0.2,1.8-0.4c0.5-0.1,4.6,0,6.8,0c0.2,0.1,0.3,0.2,0.5,0.4
			c0.1,0.1,0.3,0.1,0.4,0c0.1-0.1,0.2-0.2,0.1-0.3c0.2-0.1,0.4,0.1,0.7-0.1c2.7-0.1,8.4-0.2,8.9-0.1c0.7,0.2,1.1,0.5,1.8,0.4
			c5.8-1.1,12.1-1.6,12.9-1.4c0.8,0.2,1.5,0.2,2.1,0.2c0.9-0.2,1.3-0.3,2.1-0.6c1-0.2,3.2,0.2,4.6,0.1c1.1-0.1,2.1,0.3,3.2,0.5
			c0.7,0.2,1.9,0.5,2.2-0.4c0.1-0.2,0.1-0.5,0-0.7c-0.1-0.4-0.3-0.7-0.3-1.1c0-0.4,0.2-0.8,0-1.3c-0.1,0-0.1,0-0.2-0.1
			c-1.3-0.4-2.7-0.4-4.2-0.4c-1.6,0.1-4.8,0.1-6.1-0.3c-1.4-0.4-2.6,0-3.1,0.3c-0.5,0.3-4.6,0.4-7.8,1c-1.6,0.3-3.8,0.5-5.2-0.2
			c-0.4,0-1,0.2-1.3,0.3c-0.2,0.1-6,0.2-9.3,0.2c0,0-0.1,0-0.1,0c-0.2,0-0.4,0-0.6,0c-0.4,0-0.3,0-0.6-0.3c-0.1-0.1-0.3-0.1-0.3,0
			c0,0,0,0.1,0,0.1c0,0.1-0.1,0.2-0.2,0.2c-0.6,0.2-1.5,0-2.1,0c-0.8,0-1.6,0-2.4,0c-0.9,0-2.1,0.1-3-0.1c-0.3-0.1-0.9-0.3-1.3-0.3
			c-1.4,0.7-3.7,0.5-5.2,0.2c-3.2-0.6-7.3-0.6-7.8-1c-0.5-0.3-1.7-0.8-3.1-0.3c-1.4,0.5-4.6,0.4-6.1,0.3c-1.3-0.1-2.5,0-3.7,0.2
			c-0.2,0-0.3,0.1-0.5,0.1c-0.1,0-0.2,0-0.2,0.1c-0.2,0.6,0.1,1.2-0.1,1.8C289.6,12.9,289.5,13.3,289.6,13.6z M352.7,10.3
			c0.6,0.1,1.3,0.2,1.9,0.2c0.2,0.2,0.4,0.2,0.7,0.2c1.9-0.1,5.5-0.1,7.3-0.2c0.5,0.2,1,0.2,1.5,0.5c0,0,0,0,0.1,0
			c0.1,0.3,0.1,0.6-0.1,1c0,0.4,0.1,0.9,0.3,1.3c-0.2-0.4-0.3-0.8-0.3-1.3c-0.1,0.1-0.2,0.3-0.3,0.4c-1.2,0-2.4-0.3-3.6-0.2
			c-0.6-0.1-1.2-0.1-1.6,0.3c0,0.2-0.1,0.3-0.2,0.2c-0.3,0-0.2-0.3-0.4-0.5c-0.7-0.1-3.3,0-4.1,0c-0.3,0.3-0.1,0.9-0.7,0.9l-0.1-0.2
			C353.4,12,353.2,10.9,352.7,10.3z M339.4,11.7c0.7,0.1,3,0.1,4.4-0.3c1.8-0.5,3.7-0.6,5.5-0.6c0.8,0.1,1.9-0.4,2.7,0
			c0.5,0.5,0.6,1.2,0.5,1.9c-0.1,0.3-0.4,0.3-0.6,0.3c-0.3-0.3-0.7-0.5-1.2-0.6c-0.3,0-0.6,0.2-0.9,0c-0.6-0.1-1,0.4-1.4,0.7l0-0.3
			c0-0.2-0.3-0.2-0.4-0.2l-3.6,0.3l-0.5,0.3c-0.3,0.2-0.7,0.4-1.1,0.3c0,0,0.1-0.2,0-0.3c-1.4,0-3,0.7-4.4,0.8
			c0.2-0.6,0.1-1.2-0.1-1.7C338.1,11.8,338.4,11.6,339.4,11.7z M326.4,11.8c2.9-0.1,10.1-0.3,11,0.4c0.3,0.7,0.3,1.6,0.1,2.4
			c-0.1,0-0.1,0-0.2,0c0-0.3-0.4-0.5-0.6-0.6c-0.1-0.5-0.7-0.3-1.1-0.3c-0.6,0.1-6.6-0.1-9.3,0.1C325.7,13.2,326.5,12,326.4,11.8z
			 M317,11.8c1.2-0.1,2.5-0.1,3.7-0.2c0.4,0,4,0.3,4.1,0.1c-0.1,0.2-0.1,0.3-0.1,0.6c-0.1,0.4,0.4,0.9,0.5,1.3c-2-0.1-5.6,0.1-6.2,0
			c-0.5,0-0.8,0-1.2,0.1c-0.1,0.1-0.2,0.2-0.4,0.2c-0.1,0-0.1,0-0.2,0C316.3,13.7,317.1,12.4,317,11.8z M302.5,10.8
			c0.8-0.4,1.8,0.1,2.7,0c1.8,0.1,3.7,0.2,5.5,0.6c1.4,0.3,3.8,0.3,4.4,0.3c1-0.1,1.3,0.1,1.1,0.6c-0.2,0.5-0.3,1.1-0.1,1.7
			c-1.4-0.1-3-0.7-4.4-0.8c-0.1,0.1,0,0.3,0,0.3c-0.4,0.1-0.7-0.1-1.1-0.3l-0.5-0.3l-3.6-0.3c-0.1,0-0.4,0-0.4,0.2l0,0.3
			c-0.4-0.3-0.8-0.7-1.4-0.7c-0.3,0.2-0.6-0.1-0.9,0c-0.4,0.1-0.9,0.3-1.2,0.6c-0.3,0-0.5-0.1-0.6-0.3
			C301.9,12,302.1,11.3,302.5,10.8z M290.3,11.1c0.1-0.1,0.2-0.1,0.4-0.2c0.4-0.2,0.8-0.2,1.2-0.3c1.9,0.1,5.4,0.1,7.3,0.2
			c0.3,0,0.5-0.1,0.7-0.2c0.7,0,1.3-0.1,1.9-0.2c-0.6,0.6-0.8,1.8-0.4,2.7l-0.1,0.2c-0.5,0-0.4-0.7-0.7-0.9c-0.8,0-3.4-0.1-4.1,0
			c-0.1,0.2-0.1,0.5-0.4,0.5c-0.2,0-0.3,0-0.2-0.2c-0.4-0.4-1.1-0.4-1.6-0.3c-1.2,0-2.4,0.2-3.6,0.2c-0.1,0-0.1-0.1-0.2-0.2v0
			C290.3,11.9,290.2,11.4,290.3,11.1z"/>
	</g>
	<g>
		<path fill="#FFF4D3" d="M435.2,11.1c-0.1-0.1-0.2-0.1-0.4-0.2c-0.4-0.2-0.8-0.2-1.2-0.3c-1.9,0.1-5.4,0.1-7.3,0.2
			c-0.3,0-0.5-0.1-0.7-0.2c-0.7,0-1.3-0.1-1.9-0.2c0.6,0.6,0.8,1.8,0.4,2.7l0.1,0.2c0.5,0,0.4-0.7,0.7-0.9c0.8,0,3.4-0.1,4.1,0
			c0.1,0.2,0.1,0.5,0.4,0.5c0.2,0,0.3,0,0.2-0.2c0.4-0.4,1.1-0.4,1.6-0.3c1.2,0,2.4,0.2,3.6,0.2c0.1,0,0.1-0.1,0.2-0.2
			C435.2,11.9,435.3,11.4,435.2,11.1z"/>
		<path fill="#FFF4D3" d="M423,10.8c0.5,0.5,0.6,1.2,0.5,1.9c-0.1,0.3-0.4,0.3-0.6,0.3c-0.3-0.3-0.7-0.5-1.2-0.6
			c-0.3,0-0.6,0.2-0.9,0c-0.6-0.1-1,0.4-1.4,0.7l0-0.3c0-0.2-0.3-0.2-0.4-0.2l-3.6,0.3l-0.5,0.3c-0.3,0.2-0.7,0.4-1.1,0.3
			c0,0,0.1-0.2,0-0.3c-1.4,0-3,0.7-4.4,0.8c0.2-0.6,0.1-1.2-0.1-1.7c-0.2-0.5,0.1-0.7,1.1-0.6c0.7,0.1,3,0.1,4.4-0.3
			c1.8-0.5,3.7-0.6,5.5-0.6C421.2,10.9,422.2,10.4,423,10.8z"/>
		<path fill="#FFF4D3" d="M408.6,11.8c-0.1,0.5,0.6,1.9-0.2,2.1c0,0-0.1,0-0.2,0c-0.1,0-0.3-0.1-0.4-0.2c-0.5-0.1-0.7-0.1-1.2-0.1
			c-0.6,0.1-4.2-0.1-6.2,0c0.1-0.4,0.6-0.9,0.5-1.3c0-0.2-0.1-0.4-0.1-0.6c0,0.1,3.7-0.1,4.1-0.1C406.1,11.7,407.4,11.8,408.6,11.8z
			"/>
		<path fill="#FFF4D3" d="M399.2,11.8c-0.1,0.2,0.7,1.4,0.1,1.9c-2.6-0.1-8.6,0-9.3-0.1c-0.4,0-1-0.2-1.1,0.3
			c-0.3,0.1-0.6,0.3-0.6,0.6c-0.1,0-0.1,0-0.2,0c-0.2-0.8-0.2-1.6,0.1-2.4C389.1,11.5,396.3,11.7,399.2,11.8z"/>
		<path fill="#FFF4D3" d="M386.2,11.7c1-0.1,1.3,0.1,1.1,0.6c-0.2,0.5-0.3,1.1-0.1,1.7c-1.4-0.1-3-0.7-4.4-0.8c-0.1,0.1,0,0.3,0,0.3
			c-0.4,0.1-0.7-0.1-1.1-0.3l-0.5-0.3l-3.6-0.3c-0.1,0-0.4,0-0.4,0.2l0,0.3c-0.4-0.3-0.8-0.7-1.4-0.7c-0.3,0.2-0.6-0.1-0.9,0
			c-0.4,0.1-0.9,0.3-1.2,0.6c-0.3,0-0.5-0.1-0.6-0.3c-0.1-0.7,0-1.4,0.5-1.9c0.8-0.4,1.8,0.1,2.7,0c1.8,0.1,3.7,0.2,5.5,0.6
			C383.1,11.8,385.5,11.8,386.2,11.7z"/>
		<path fill="#FFF4D3" d="M372.9,10.3c-0.6,0.1-1.3,0.2-1.9,0.2c-0.2,0.2-0.4,0.2-0.7,0.2c-1.9-0.1-5.5-0.1-7.3-0.2
			c-0.5,0.2-1,0.2-1.5,0.5c0,0,0,0-0.1,0c-0.1,0.3-0.1,0.6,0.1,1c0.1,0.1,0.2,0.3,0.3,0.4c1.2,0,2.4-0.3,3.6-0.2
			c0.6-0.1,1.2-0.1,1.6,0.3c0,0.2,0.1,0.3,0.2,0.2c0.3,0,0.2-0.3,0.4-0.5c0.7-0.1,3.3,0,4.1,0c0.3,0.3,0.1,0.9,0.7,0.9l0.1-0.2
			C372.2,12,372.3,10.9,372.9,10.3z"/>
		<path fill="#754C29" d="M435.7,12.3c-0.3-0.6,0.1-1.2-0.1-1.8c-0.1,0-0.2,0-0.2-0.1c-0.2-0.1-0.3-0.1-0.5-0.1
			c-1.1-0.3-2.4-0.3-3.7-0.2c-1.6,0.1-4.8,0.1-6.1-0.3c-1.4-0.4-2.6,0-3.1,0.3c-0.5,0.3-4.6,0.4-7.8,1c-1.6,0.3-3.8,0.5-5.2-0.2
			c-0.4,0-1,0.2-1.3,0.3c-0.9,0.3-2.1,0.1-3,0.1c-0.8,0-1.6,0-2.4,0c-0.6,0-1.5,0.2-2.1,0c-0.1,0-0.2-0.1-0.2-0.2c0,0,0-0.1,0-0.1
			c0-0.1-0.2-0.1-0.3,0c-0.2,0.3-0.1,0.3-0.6,0.3c-0.2,0-0.4-0.1-0.6,0c0,0-0.1,0-0.1,0c-3.3,0-9.1-0.1-9.3-0.2
			c-0.3-0.1-0.9-0.3-1.3-0.3c-1.4,0.7-3.7,0.5-5.2,0.2c-3.2-0.6-7.3-0.6-7.8-1c-0.5-0.3-1.7-0.8-3.1-0.3c-1.4,0.5-4.6,0.4-6.1,0.3
			c-1.5-0.1-2.9,0-4.2,0.4c-0.1,0-0.1,0-0.2,0.1c-0.2,0.4,0.1,0.8,0,1.3c0,0.4-0.2,0.7-0.3,1.1c0,0.2-0.1,0.5,0,0.7
			c0.4,0.9,1.6,0.6,2.2,0.4c1-0.3,2.1-0.6,3.2-0.5c1.5,0.1,3.6-0.2,4.6-0.1c0.8,0.3,1.2,0.5,2.1,0.6c0.6,0,1.3,0,2.1-0.2
			c0.8-0.2,7,0.4,12.9,1.4c0.6,0.1,1.1-0.2,1.8-0.4c0.5-0.1,6.2,0,8.9,0.1c0.2,0.1,0.4-0.1,0.7,0.1c-0.1,0.1,0,0.3,0.1,0.3
			c0.1,0.1,0.3,0,0.4,0c0.2-0.2,0.3-0.2,0.5-0.4c2.2-0.1,6.3-0.2,6.8,0c0.7,0.2,1.1,0.5,1.8,0.4c5.8-1.1,12.1-1.6,12.9-1.4
			c0.8,0.2,1.5,0.2,2.1,0.2c0.9-0.2,1.3-0.3,2.1-0.6c1-0.2,3.2,0.2,4.6,0.1c1-0.1,4.9,1.4,5.5,0.1C436,13.3,436,12.9,435.7,12.3z
			 M372.5,12.9l-0.1,0.2c-0.5,0-0.4-0.7-0.7-0.9c-0.8,0-3.4-0.1-4.1,0c-0.1,0.2-0.1,0.5-0.4,0.5c-0.2,0-0.3,0-0.2-0.2
			c-0.4-0.4-1.1-0.4-1.6-0.3c-1.2,0-2.4,0.2-3.6,0.2c-0.1-0.1-0.2-0.3-0.3-0.4c0,0.4-0.1,0.9-0.3,1.3c0.2-0.4,0.3-0.8,0.3-1.3
			c-0.2-0.3-0.2-0.7-0.1-1c0,0,0,0,0.1,0c0.5-0.3,1-0.3,1.5-0.5c1.9,0.1,5.4,0.1,7.3,0.2c0.3,0,0.5-0.1,0.7-0.2
			c0.7,0,1.3-0.1,1.9-0.2C372.3,10.9,372.2,12,372.5,12.9z M387.3,12.4c-0.2,0.5-0.3,1.1-0.1,1.7c-1.4-0.1-3-0.7-4.4-0.8
			c-0.1,0.1,0,0.3,0,0.3c-0.4,0.1-0.7-0.1-1.1-0.3l-0.5-0.3l-3.6-0.3c-0.1,0-0.4,0-0.4,0.2l0,0.3c-0.4-0.3-0.8-0.7-1.4-0.7
			c-0.3,0.2-0.6-0.1-0.9,0c-0.4,0.1-0.9,0.3-1.2,0.6c-0.3,0-0.5-0.1-0.6-0.3c-0.1-0.7,0-1.4,0.5-1.9c0.8-0.4,1.8,0.1,2.7,0
			c1.8,0.1,3.7,0.2,5.5,0.6c1.4,0.3,3.8,0.3,4.4,0.3C387.2,11.6,387.5,11.8,387.3,12.4z M399.3,13.7c-2.6-0.1-8.6,0-9.3-0.1
			c-0.4,0-1-0.2-1.1,0.3c-0.3,0.1-0.6,0.3-0.6,0.6c-0.1,0-0.1,0-0.2,0c-0.2-0.8-0.2-1.6,0.1-2.4c0.9-0.7,8.2-0.5,11-0.4
			C399.1,12,399.8,13.2,399.3,13.7z M408.4,14c0,0-0.1,0-0.2,0c-0.1,0-0.3-0.1-0.4-0.2c-0.5-0.1-0.7-0.1-1.2-0.1
			c-0.6,0.1-4.2-0.1-6.2,0c0.1-0.4,0.6-0.9,0.5-1.3c0-0.2-0.1-0.4-0.1-0.6c0,0.1,3.7-0.1,4.1-0.1c1.2,0,2.5,0.1,3.7,0.2
			C408.5,12.4,409.2,13.7,408.4,14z M423.5,12.7c-0.1,0.3-0.4,0.3-0.6,0.3c-0.3-0.3-0.7-0.5-1.2-0.6c-0.3,0-0.6,0.2-0.9,0
			c-0.6-0.1-1,0.4-1.4,0.7l0-0.3c0-0.2-0.3-0.2-0.4-0.2l-3.6,0.3l-0.5,0.3c-0.3,0.2-0.7,0.4-1.1,0.3c0,0,0.1-0.2,0-0.3
			c-1.4,0-3,0.7-4.4,0.8c0.2-0.6,0.1-1.2-0.1-1.7c-0.2-0.5,0.1-0.7,1.1-0.6c0.7,0.1,3,0.1,4.4-0.3c1.8-0.5,3.7-0.6,5.5-0.6
			c0.8,0.1,1.9-0.4,2.7,0C423.5,11.3,423.6,12,423.5,12.7z M435,12.3L435,12.3c0,0.1-0.1,0.1-0.2,0.2c-1.2,0-2.4-0.3-3.6-0.2
			c-0.6-0.1-1.2-0.1-1.6,0.3c0,0.2-0.1,0.3-0.2,0.2c-0.3,0-0.2-0.3-0.4-0.5c-0.7-0.1-3.3,0-4.1,0c-0.3,0.3-0.1,0.9-0.7,0.9l-0.1-0.2
			c0.4-0.9,0.2-2.1-0.4-2.7c0.6,0.1,1.3,0.2,1.9,0.2c0.2,0.2,0.4,0.2,0.7,0.2c1.9-0.1,5.5-0.1,7.3-0.2c0.4,0.1,0.8,0.2,1.2,0.3
			c0.1,0,0.2,0.1,0.4,0.2C435.3,11.4,435.2,11.9,435,12.3z"/>
	</g>
</g>
</svg>
