<?xml version="1.0" encoding="utf-8"?>
<!-- Generator: Adobe Illustrator 18.1.1, SVG Export Plug-In . SVG Version: 6.00 Build 0)  -->
<!DOCTYPE svg PUBLIC "-//W3C//DTD SVG 1.1//EN" "http://www.w3.org/Graphics/SVG/1.1/DTD/svg11.dtd">
<svg version="1.1" id="Layer_1" xmlns="http://www.w3.org/2000/svg" xmlns:xlink="http://www.w3.org/1999/xlink" x="0px" y="0px"
	 viewBox="0 0 305 329" enable-background="new 0 0 305 329" xml:space="preserve">
<g>
	<path fill="#944836" d="M183.4,291.4c-3.7,1-7.4,1.8-11.2,2.4l7.4,7.3L183.4,291.4z"/>
	<path fill="#944836" d="M205.2,283c-3.4,1.7-6.9,3.3-10.5,4.7l8.8,5.6L205.2,283z"/>
	<path fill="#944836" d="M215.4,277.2c-3.2,2.1-6.5,4-9.9,5.8l9.3,4.7L215.4,277.2z"/>
	<path fill="#944836" d="M194.5,287.8c-3.5,1.4-7.2,2.5-10.9,3.5l8.1,6.5L194.5,287.8z"/>
	<path fill="#944836" d="M72.3,112.9H77c13-14.8,29.8-25.6,48.5-31.1l0.1-2C105.2,85.6,86.5,97.1,72.3,112.9z"/>
	<path fill="#944836" d="M233.5,262.5c-2.7,2.7-5.6,5.3-8.5,7.7l10.1,2.6L233.5,262.5z"/>
	<path fill="#944836" d="M151.8,288.3c-30.6-1.1-58.9-16.6-77.7-40.3l-4.3,3.6c20.6,25.1,51.5,39.9,84.4,40.1
		c32.8,0.2,64.3-14.8,85.3-39.5l-3.2-2.7C215.8,274.9,184.9,289.5,151.8,288.3z"/>
	<path fill="#944836" d="M215.6,277l9.8,3.7l-0.5-10.4C221.9,272.7,218.8,274.9,215.6,277z"/>
	<path fill="#944836" d="M241.4,253.8L241.4,253.8c-2.4,3-5,5.8-7.7,8.5l10.3,1.6L241.4,253.8z"/>
	<path fill="#944836" d="M256.3,267.3c-3.1,0-6.1,0-9.2,0.1c1.5-1.6,3-3.3,4.4-5l-3.5-3c-20.2,24.7-49.2,40.5-80.8,43.7l0,0l0,0
		c-4.1,0.4-8.3,0.6-12.5,0.6l5.7-8.6c-1.9,0.1-3.8,0.1-5.7,0.1c-1.9,0-3.8,0-5.7-0.1l5.7,8.6c-0.5,0-0.9,0-1.4,0
		c-3.7-0.1-7.4-0.3-11-0.7l6.4-7.9c-3.8-0.2-7.6-0.6-11.4-1.2l4.7,9c-4.1-0.5-8.1-1.2-12-2.1l7.1-7c-3.8-0.6-7.5-1.4-11.2-2.4
		l3.6,9.3c-3.9-0.9-7.7-2-11.4-3.3l7.6-6.1c-3.7-1-7.3-2.2-10.9-3.5l2.6,9.3c-3.6-1.3-7.2-2.7-10.7-4.3l7.9-5.1
		c-3.6-1.4-7.1-2.9-10.5-4.7l1.5,9.3c-3.4-1.6-6.7-3.4-9.9-5.3l8.2-4.1c-3.4-1.7-6.7-3.7-9.9-5.8l0.5,9.1c-3.1-1.9-6.2-3.9-9.1-6.1
		l8.4-3.2c-3.2-2.1-6.3-4.4-9.3-6.8l-0.4,9c-2.9-2.2-5.6-4.5-8.3-6.9l8.5-2.2c-3-2.4-5.8-5-8.5-7.7l-1.3,8.7
		c-2.6-2.4-5.1-4.9-7.4-7.5l8.6-1.3c-2.7-2.7-5.3-5.6-7.7-8.5l-2.2,8.4c-1.2-1.4-2.4-2.8-3.5-4.2l-4.4,3.6c1.4,1.7,2.8,3.3,4.2,4.9
		c-3.1,0-6.1-0.1-9.2-0.1c0.1-0.3,0.1-0.5,0.2-0.8l-4.1,3.4c0.2,0.1,0.5,0.2,0.7,0.2c3.9,0.1,7.9,0.1,11.8,0.2
		c-0.3,4-0.5,8.1-0.8,12.1c-0.1,1,1.1,1.3,1.9,1.2c3.8-0.5,7.6-0.9,11.3-1.4c0.3,4.1,0.6,8.2,0.9,12.2c0.1,1,1.9,0.8,2.5,0.7
		c3.5-0.9,7.1-1.9,10.6-2.8c0.8,3.9,1.7,7.8,2.5,11.7c0.3,1.2,2.3,0.8,3.1,0.5c3.3-1.4,6.5-2.7,9.8-4.1c1.3,3.7,2.6,7.3,4,11
		c0.5,1.4,2.7,0.7,3.6,0.2c2.9-1.7,5.9-3.5,8.8-5.2c1.8,3.3,3.5,6.7,5.3,10c0.6,1.2,2.6,1,3.6,0.2c2.7-2.2,5.5-4.3,8.2-6.5
		c2.2,3,4.4,6.1,6.6,9.2c0.8,1.1,3,0.4,3.8-0.4c2.4-2.5,4.7-4.9,7.1-7.4c2.5,2.6,5,5.3,7.4,7.9c1.1,1.1,3.3,0.3,4.1-0.8
		c2-2.7,4-5.5,6-8.2c2.8,2.3,5.6,4.5,8.5,6.8c1,0.8,3.2,0,3.8-1c1.7-3.1,3.3-6.2,5-9.2c3,1.8,6,3.6,9,5.4c1.3,0.8,3.4,0,3.9-1.4
		c1.2-3.3,2.4-6.6,3.7-9.8c3.1,1.3,6.2,2.6,9.3,4c1.2,0.5,3.5,0.2,3.9-1.4c0.8-3.5,1.6-7.1,2.4-10.6c3.3,0.9,6.6,1.8,9.9,2.7
		c1,0.3,3.4-0.2,3.5-1.5c0.3-3.8,0.6-7.5,0.9-11.3c3.5,0.5,6.9,0.9,10.4,1.4c1.2,0.2,3-0.6,3-2c-0.2-3.8-0.4-7.5-0.6-11.3
		c3.4,0,6.8,0,10.2-0.1c0.5,0,1.3-0.1,2-0.4l-3.9-3.3C256.2,266.6,256.3,267,256.3,267.3z M65.1,279.6c0.2-3.1,0.4-6.1,0.6-9.2
		c2.8,2.8,5.7,5.5,8.7,8C71.3,278.8,68.2,279.2,65.1,279.6z M79,290.9c-0.2-3.1-0.5-6.2-0.7-9.3c3.2,2.5,6.5,4.8,10,6.9
		C85.2,289.3,82.1,290.1,79,290.9z M94.4,300.3c-0.7-3.1-1.3-6.2-2-9.3c3.6,2,7.2,3.9,10.9,5.6C100.4,297.8,97.4,299,94.4,300.3z
		 M110.9,307.4c-1.1-3-2.2-6-3.3-9c3.8,1.5,7.7,2.9,11.7,4.1C116.5,304.1,113.7,305.7,110.9,307.4z M128.1,312.1
		c-1.5-2.8-3-5.7-4.5-8.5c4,1,8,1.9,12.1,2.5C133.2,308.1,130.6,310.1,128.1,312.1z M145.8,314.5c-1.9-2.6-3.7-5.2-5.6-7.8
		c4.1,0.5,8.1,0.8,12.3,0.8C150.2,309.9,148,312.2,145.8,314.5z M163.6,314.5c-2.2-2.3-4.4-4.6-6.6-6.9c4.1-0.1,8.2-0.3,12.2-0.8
		C167.4,309.4,165.5,311.9,163.6,314.5z M181.2,312.2c-2.5-2-5-4-7.5-6c4.1-0.6,8.1-1.5,12-2.5C184.2,306.5,182.7,309.3,181.2,312.2
		z M198.4,307.5c-2.8-1.7-5.5-3.3-8.3-5c3.9-1.2,7.8-2.5,11.6-4C200.6,301.4,199.5,304.4,198.4,307.5z M214.7,300.5
		c-3-1.3-5.9-2.5-8.9-3.8c3.7-1.7,7.4-3.5,10.9-5.5C216.1,294.3,215.4,297.4,214.7,300.5z M230,291.3c-3.1-0.8-6.2-1.7-9.2-2.5
		c3.4-2.1,6.8-4.4,10-6.8C230.5,285.1,230.3,288.2,230,291.3z M234.6,279c3.1-2.5,6-5.2,8.9-8c0.2,3.1,0.3,6.1,0.5,9.2
		C240.9,279.8,237.7,279.4,234.6,279z"/>
	<path fill="#944836" d="M184.2,79.2c0,0.8,0,2-0.1,3.3c18,5.7,34.3,16.4,47,30.4h7.2C224,96.4,205.1,84.8,184.2,79.2z"/>
	<path fill="#944836" d="M172,293.8c-3.7,0.6-7.5,1-11.4,1.2l6.6,8c0,0,0,0,0,0L172,293.8z"/>
	<path fill="#944836" d="M84.4,96.4c3-2.4,6.1-4.7,9.3-6.8L83.9,86L84.4,96.4z"/>
	<path fill="#944836" d="M259.7,97.3c-4,0-8-0.1-11.9-0.1c0.2-4.1,0.5-8.3,0.7-12.4c0.1-0.9-1.2-0.9-1.9-0.8
		c-3.8,0.5-7.6,1-11.4,1.4c-0.3-4.2-0.7-8.3-1-12.5c-0.1-0.9-2-0.6-2.4-0.4c-3.5,0.9-7.1,1.9-10.6,2.8c-0.9-4-1.7-8-2.6-12
		c-0.2-1.1-2.4-0.5-3-0.2c-3.2,1.4-6.5,2.7-9.7,4.1c-1.4-3.7-2.7-7.4-4.1-11.2c-0.4-1.2-2.8-0.4-3.5,0c-2.9,1.7-5.8,3.5-8.8,5.2
		c-1.8-3.4-3.6-6.8-5.4-10.1c-0.7-1.3-3.1-0.4-3.9,0.3c-0.7,0.6-1.4,1.1-2.2,1.7c0,0,0,0,0,0c1,0.3,1.9,0.7,2.7,1.2c0,0,0,0,0.1-0.1
		c0,0,0,0.1,0.1,0.1c0,0,0.1,0,0.1,0.1c1.4,1,2.3,2.2,2.6,3.5c0.2,0.6,0.2,1.3,0.3,2.1c0.5,1,1.1,2,1.6,3c-0.5-0.1-1-0.3-1.6-0.4
		c0,0.4,0,0.7,0,1l-0.1,3.2c2.5,0.7,5,1.4,7.4,2.3l-7,5.6c0,0.2,0,0.5,0.1,0.7c3.5,1,6.8,2.1,10.2,3.3l-2.6-9.5
		c3.7,1.3,7.3,2.8,10.9,4.4l-8,5.1c3.6,1.4,7.1,2.9,10.5,4.7l-1.5-9.4c3.4,1.6,6.8,3.4,10,5.4l-8.3,4.2c3.4,1.7,6.7,3.7,9.9,5.8
		l-0.5-9.3c3.2,1.9,6.2,4,9.2,6.2l-8.5,3.2c3.2,2.1,6.3,4.4,9.3,6.8l0.4-9.1c2.9,2.2,5.7,4.5,8.4,6.9l-8.6,2.2c3,2.4,5.8,5,8.5,7.7
		l1.3-8.8c2.6,2.4,5.1,5,7.5,7.6l-8.7,1.3c2.7,2.7,5.2,5.5,7.7,8.5h0l2.2-8.5c2.4,2.7,4.6,5.5,6.8,8.5h7c0-0.1-0.1-0.1-0.1-0.2
		c1.3-4.8,2.5-9.7,3.8-14.5C261.2,97.5,260.2,97.4,259.7,97.3z M189.3,64.2c0.1,0,0.2-0.1,0.3-0.1c2.9-1.7,5.7-3.4,8.6-5.1
		c1.2,3.2,2.3,6.3,3.5,9.5C197.5,66.8,193.4,65.4,189.3,64.2z M205.1,69.9c3.2-1.3,6.3-2.7,9.5-4c0.7,3.3,1.4,6.6,2.1,9.9
		C213,73.7,209.1,71.7,205.1,69.9z M220.1,77.8c3.3-0.9,6.6-1.8,9.9-2.7c0.3,3.3,0.5,6.7,0.8,10C227.4,82.6,223.8,80.1,220.1,77.8z
		 M243.5,96.4c-3-3-6.2-5.9-9.5-8.6c3.3-0.4,6.7-0.8,10-1.3C243.9,89.8,243.7,93.1,243.5,96.4z M254.1,108.5
		c-2.4-3.1-4.9-6.1-7.5-8.9c3.3,0,6.6,0.1,9.9,0.1C255.7,102.6,254.9,105.6,254.1,108.5z"/>
	<path fill="#944836" d="M57.1,112.9c2.5-3.5,5.2-6.8,8-10l2.6,10h0c2.4-3,5-5.8,7.7-8.5l-10.3-1.6c2.8-3.1,5.8-6.1,8.8-8.9
		l1.6,10.3c2.7-2.7,5.6-5.3,8.5-7.7l-10.1-2.6c14.5-13.1,32.1-22.6,51.2-27.4c0-1.6-0.1-2.6-0.1-2.6c0,0,0-0.1,0-0.1
		c0-0.3,0-0.6,0-1c0,0,0,0,0-0.1c-0.7,0.2-1.4,0.3-2.1,0.5c0.7-1.4,1.5-2.7,2.2-4.1c0.1-0.4,0.1-0.9,0.3-1.4c0.4-1.6,1.6-2.6,2-2.9
		c0.1-0.1,0.1-0.2,0.2-0.3c0,0,0.1,0.1,0.1,0.1c1.1-0.8,2.2-1.2,3.2-1.5c-0.1-0.3-0.2-0.7-0.3-1.1c-0.5-0.4-1-0.8-1.5-1.2
		c-0.9-0.8-3.5-0.3-4,0.8c-1.6,3.1-3.3,6.2-4.9,9.3c-3-1.8-6-3.6-9-5.3c-1-0.6-3.5,0.2-3.9,1.3c-1.2,3.3-2.4,6.6-3.6,9.9
		c-3.1-1.3-6.2-2.6-9.3-3.9c-1-0.4-3.6,0-3.9,1.3c-0.8,3.6-1.6,7.2-2.3,10.8c-3.3-0.9-6.5-1.8-9.8-2.6c-0.8-0.2-3.4,0.3-3.5,1.4
		c-0.3,3.8-0.6,7.6-0.9,11.4c-3.3-0.4-6.5-0.8-9.8-1.2c-1-0.1-3.6,0.3-3.5,1.7c0.2,3.8,0.4,7.7,0.7,11.5c-3.4,0-6.8,0.1-10.2,0.1
		c-0.8,0-3.2,0.5-3,1.8c0.8,4.6,1.5,9.2,2.3,13.8H57.1z M110.6,59.4c2.8,1.7,5.6,3.4,8.5,5c-4,1.2-8,2.6-11.9,4.2
		C108.4,65.5,109.5,62.4,110.6,59.4z M94.3,66.4c3,1.3,6,2.5,8.9,3.8c0.1,0,0.1,0,0.2,0.1c-3.8,1.7-7.6,3.6-11.2,5.7
		C92.9,72.7,93.6,69.6,94.3,66.4z M79.1,75.6c3.2,0.8,6.3,1.7,9.5,2.5c-3.5,2.2-6.9,4.5-10.2,7C78.6,81.9,78.8,78.7,79.1,75.6z
		 M74.7,87.9C74.7,87.9,74.7,87.9,74.7,87.9c-3.1,2.6-6.1,5.3-9,8.1c-0.2-3.1-0.4-6.2-0.5-9.3C68.3,87.1,71.5,87.5,74.7,87.9z
		 M62.2,99.6c-2.8,3-5.4,6.1-7.9,9.3c-0.5-3.1-1-6.1-1.5-9.2C55.9,99.6,59.1,99.6,62.2,99.6z"/>
	<path fill="#944836" d="M114.6,78.9c3.5-1.4,7.2-2.5,10.9-3.5l-8.1-6.5L114.6,78.9z"/>
	<path fill="#944836" d="M93.8,89.5c3.2-2.1,6.5-4,9.9-5.8l-9.3-4.7L93.8,89.5z"/>
	<path fill="#944836" d="M104,83.7c3.4-1.7,6.9-3.3,10.5-4.7l-8.8-5.6L104,83.7z"/>
</g>
<path fill="#944836" d="M132.5,233.9l0.6,12.2l-26-0.3v-2.3l0.6-2.1l-0.6-2.8l-0.2-26.4l0.5-1.6l-0.6-1.9l-0.3-12l-18.3,0.4
	l-2.1-0.6L84,197l-14.1,0l0.3-10.9l-0.3-2l23.5,0.5l14.2,0.8l0.7,0.3l10.2-0.6l13.4,0.6l-0.6,10.5l-5.8-0.3l-4.4,0.3l-2.4,0.2
	l1.4,1.7L120,205l6.1,0.6l6.6-0.3l0.4,8.9l-0.3,3.6l-11.7,1.1l-3.1-0.3l0.7,1.5l0.5,13.7l4.2-0.1l1.8,0.5l1.2-0.8L132.5,233.9z
	 M204,243.6l0.9,2l-15-0.8l0.3-17.2l-3.3-8.4l-2.6-0.3l-1.4-0.9v10.4l1,3.7l-4.5-0.3l-8.4,0.3l0.5-12.7l-0.3-21.2l-0.1-10.5
	l-0.9-2.1l23.8,0.2l6.5,5.3l2.8,6.9l-2.7,14.1l-5.7,4.4l7.5,6.9l0.3,5.1l-0.3,5.3l0.8,3.8L204,243.6z M189.2,197.9l0.9-1.5l-6.4,0.1
	l0.1,3.4l-0.7,2.5l0.7,1.6l0.1,4.6l5.6-0.7L189.2,197.9z M225.6,186.4l-0.3,20.2l0.1,10.4l-1.7-1.1l-5.1,0.3l-0.8-27l-12.2,0.3
	l0.9,3.8l0.4,4.6l-0.7,4.1l-0.4,15.8l8,10.5l11.8,0.9l-2.2,5.8l-13-1.4l-3.2-1l-0.3,12.3l8.3-0.1l14.9,0.4l6-10.3l2-18l-0.3-11.3
	l0.6-2.7l0.2-11.7l0.9-5.2L225.6,186.4z M185.9,235.7l0.6,9.7l-30-0.3v-0.6l-0.1,0l-1.3-11.8l-3.9-10.2l-3.3,0.6v5.1l0.9,8.3
	l0.9,10.3l-4.5-0.3l-8.4,0.3l-0.6-5.7l0.7-1.7l-0.6-3.8l0.3-11l-0.3-21.6l0.6-3.1l-0.7-1.5l-0.1-10.5l-0.9-2.1l23.8,0.2l6.5,5.3
	l1.9,19.9l-1.8,6.2l-5.7,4.4l5.6,3.1l2.3,8.8l-0.3,2.1l1.9,0.2l4.5-0.1l1.9,0.4l1.3-0.6L185.9,235.7z M154.9,201.3l-1.2-5.4
	l-5.2,0.6l0.1,8.5l0.7,3l-0.7,1.1l0.1,4.6l4.6,0L154.9,201.3z M102.5,231.1l1.1,4.4l-0.2,2l-2.5,6.1l-5.1,3.1l-5.7-0.7l-1.5-1
	l-1.2,0.9L74,245.8l-0.5-23.5l0.7-1.9l-0.8-0.2L73,204.7l-0.8-2.9l4.6-0.3l1.6,0.6l1.4-0.6l15.7-0.1l6,13l-1.2,4.9l-3.1,3.4
	L102.5,231.1z M81.5,221.2l9.4-0.1l-0.1-0.9l0.4-0.2l-0.5-1.4v-7.5l-9.5,0.7L81.5,221.2z M91.7,236.5l-1.1-7.5l-8.2,0.7v1.5
	l-0.6,1.8l0.6,1.5v1L91.7,236.5z M131.9,165.2l10.2-2l-0.5-2.1l0.6-6.8l0.7-8.7h-9.8l-0.3,2.8l-0.9,3.7l0.4,1.9l-1.6-0.2l-4.1-0.5
	l-1.1-6.8l0.2-2.9l0.5-11.9l-0.7-1.9l2.3-0.1l4.8-0.2l0.7,7.3l-0.1,3l-0.9,2l10,0.1l-0.5-8.4v-0.3l-0.6-0.8l0.6-2.3v-4.2l-8.4-5.8
	l-6.9-0.4l-5.9,2.3l-5.6,10.5l-0.9,4.8l-0.9,9.9l6.8,14.1L131.9,165.2z M173.6,168.8l0.2,5.3l-10.7,0.5l0.7-16.7l1.1-1.7l-3.2,0.1
	l-3.5,0.2l0.2,14.3l0.3,9.3l-12.7-0.6l0.1-0.7l-2.5,0l-2.9-0.8l-1,0.7l-12.1-0.1l-14.6-0.4c-2.8,0.1-8,1.2-10.2-0.1
	c-0.4-0.2-0.7-0.5-1-0.8c-2.3-2.7-2.2-9-2.7-11.9l0.4-1.5l-0.6-0.8l-6.7,0.7l-0.4,8.5l-0.1,3.3l-1.8-0.1l-1.7-0.7l-1.3,0.7l-6.9-0.4
	l4.9-25.7l2.7-16.6l1.2-2.5l-0.4-1.5l-3.2,0l0-0.3l-0.9,0l-16.4,0.4l-1.5-0.4l-1.6,0.5l-13.1,0l-0.6-8.1l-0.2-1.5l21,0.4l10.6,0.6
	l1.4,0.6l2.2-0.4l1.9,0.1l0,0.3l1.4,0.3l1.4-0.5l10.7-0.3l12,0.2l-0.3,1.5l0,8.1l-4.9-0.4l-1-0.3l2.2,17.7l-0.5,2l0.8,0.9l2.3,16.5
	l19.3,1.3l15.1-0.3l-0.2-28.3l-0.3-14.8l12-0.3l0.5,17.4l0.2,2.4l1.8-1.1l4-0.4v-12.7l0.5-1.4l-0.4-1.5v-8.4l8.6,0.3l0.1,23.1
	l0.1,6.3L173.6,168.8z M98.7,150.4l-2.4-18.2l-2.8,17.5l-0.7,1.6l1.2,0.3L98.7,150.4z M207.1,162l1.1,4.4l-0.2,2l-2.5,6.1l-5.1,3.1
	l-5.7-0.7l-1.5-1l-1.2,0.9l-13.4-0.1l-0.5-23.5l0.7-1.9l-0.8-0.2l-0.4-15.6l-0.8-2.9l4.6-0.3l1.6,0.6l1.4-0.6l15.7-0.1l6,13
	l-1.2,4.9l-3.1,3.4L207.1,162z M186.1,152.2l9.4-0.1l-0.1-0.9l0.4-0.2l-0.5-1.4v-7.5l-9.5,0.7L186.1,152.2z M196.3,167.4l-1.1-7.5
	l-8.2,0.7v1.5l-0.6,1.8l0.6,1.5v1L196.3,167.4z M237.7,119.4l-14.1-0.1l1.5,10.6l-1.5,36l-3.2,0.2l-1.5,1.1l-0.2-3.2l-0.5-3.1l0.4-2
	l-0.1-27.8l0-2.1l0.5,0l0.3-8l-1.9-0.1l-2.2,0.4l-1.4-0.6l-9.7-0.6l0-0.4l-4.6,0.1l-0.3,0.1l-7.8-0.2l0,0.3l-11.6,0.3l-3.2-0.1
	l-0.3,8l1.9,0.1l2.2-0.4l1.4,0.6l9.7,0.6l0,0.4l4.6-0.1l0.3-0.1l7.8,0.2l0-0.3l4.6-0.1l-0.3,6.5l2.9,36.7l-0.5,2.3l13.6,2.4
	l11.2-4.9l1.7-29.9l-0.6-2.4l1-1.5l0.4-3.7l-0.2-9.4L237.7,119.4z M290.8,166.8l0.9-1.2l-0.2-14.7l-0.6-22.6l-0.1-6.3l1.1-3
	l-13.7-0.1l-3.7,0.7l-2.4-0.6l-4.4-0.1l-1,12.4l0.2,4.4l-0.8,2.8l-1.7,20.5l-5.6-34.7l-0.3-4.3l-17.6-0.4l0.6,2.4l-0.4,33.2
	l0.2,22.9l9,0.1l-0.2-7l-0.5-2.7l0.3-1.9l-0.8-22.1l0.4-14.9l1.2,2.4l2.2,13.6l1.2,2.3l-0.2,3.5l4.1,25.9l7.9,0.2l5.9-0.2l-0.6-3.2
	l4.3-41.5l1.3-3.4l1.8,25.7l-0.5,21.5l13.8-0.2l-0.1-6.1L290.8,166.8z M47.8,142.4l-5.4,5.1l5.2,8.5l1.1,10l-0.2,2l-2.5,6.1
	l-5.1,3.1l-5.7-0.7l-1.5-1l-1.2,0.9l-13.4-0.1l-0.5-29.1l0.7-1.9l-0.8-1.9L18.1,123l-0.8-2.9l4.6-0.3l1.6,0.6l1.4-0.6l15.7-0.1
	l6.6,5.7l1.7,8.9L47.8,142.4z M29.9,130.4l0.3,15.8l5.8-0.2l-0.1-0.9l0.4-1.8l-0.5-1.4v-12.4L29.9,130.4z M36.8,167L36,155.7
	l-6.3,0.6v2.8l-0.5,1.4l0.5,1.1v4.6L36.8,167z M75.7,164.3l3.3-0.5L77,174.9l-17.3,0.5l-2.6-3.4l-0.1-1l-1.3-0.5l-3.6-4.7l-0.8-16.8
	l0.5-0.9l-0.6-1.8l-0.1-2.4l5.5-11.9l18.9,0.5L81,144l-2,7.1l-0.9,1.7l-0.1,1.7l-0.9,3.4l-14.3,0.3l-2.6,0.3l0.7,1l-0.2,5.5
	L75.7,164.3z M60.3,149.5l1.9-0.1l8.1-0.3V141l-8.7-0.3l-0.5,7.5L60.3,149.5z"/>
<g>
	<g>
		<path fill="#944836" d="M8.2,203.7c0,0,0.2,0.2,0.6,0.5c0.2,0.2,0.4,0.4,0.7,0.6c0.3,0.2,0.6,0.4,1,0.7c0.4,0.2,0.8,0.4,1.3,0.6
			c0.5,0.2,1,0.3,1.5,0.5c0.5,0.1,1.1,0.2,1.7,0.3c0.6,0,1.2,0.1,1.8,0.1c0.6,0,1.2,0,1.8-0.1c0.6,0,1.1-0.1,1.7-0.2
			c0.2,0,0.3-0.1,0.5-0.1c-0.4,0.2-0.7,0.4-1.1,0.6c-0.5,0.3-1.1,0.7-1.6,1.1c-0.5,0.4-1,0.8-1.5,1.3c-0.5,0.5-0.9,1-1.3,1.5
			c-0.2,0.3-0.4,0.5-0.6,0.8c-0.2,0.3-0.3,0.6-0.5,0.8c-0.2,0.3-0.3,0.5-0.5,0.8c-0.1,0.3-0.2,0.6-0.3,0.8c-0.1,0.3-0.2,0.5-0.3,0.8
			c-0.1,0.3-0.1,0.5-0.2,0.8c-0.1,0.5-0.2,0.9-0.3,1.3c0,0.1,0,0.1,0,0.2l0,0l0,1.3c0,0.3,0,0.4,0,0.4s0.3,0,0.9-0.2
			c0.2,0,0.4-0.1,0.7-0.1l0.1,0l0,0c0.4-0.1,0.9-0.2,1.5-0.4c0.5-0.1,1-0.3,1.5-0.5c0.3-0.1,0.5-0.2,0.8-0.3
			c0.3-0.1,0.5-0.2,0.8-0.4c0.6-0.2,1.1-0.5,1.7-0.8c0.3-0.2,0.6-0.3,0.8-0.5c0.3-0.2,0.6-0.3,0.8-0.5c0.5-0.4,1-0.8,1.5-1.3
			c0.5-0.5,0.9-0.9,1.3-1.4c0.4-0.5,0.7-1,1-1.4c0.3-0.5,0.6-0.9,0.8-1.3c0.4-0.7,0.7-1.3,1-1.8l0,0c-0.2,0.5-0.5,1-0.7,1.7
			c-0.2,0.4-0.4,0.9-0.5,1.4c-0.2,0.5-0.4,1-0.5,1.6c-0.1,0.6-0.3,1.1-0.4,1.8c-0.1,0.6-0.2,1.2-0.3,1.9c0,0.6-0.1,1.3,0,1.9
			c0,0.3,0,0.6,0,0.9c0,0.3,0.1,0.6,0.1,0.9c0.1,0.6,0.3,1.1,0.4,1.7c0.2,0.5,0.4,1,0.6,1.4c0.2,0.4,0.5,0.8,0.7,1.1
			c0.2,0.3,0.4,0.6,0.6,0.8c0.4,0.4,0.6,0.6,0.6,0.6s0.2-0.2,0.7-0.5c0.2-0.2,0.5-0.4,0.7-0.6c0.3-0.3,0.6-0.6,0.9-1
			c0.3-0.3,0.6-0.8,0.9-1.2c1.6-2.3,2.5-5.4,2.5-8.2c0-1.3-0.1-2.5-0.4-3.8c-0.2-0.8-0.4-1.5-0.6-2c0.2,0.5,0.4,1,0.6,1.6
			c0.3,0.8,0.6,1.5,0.9,2.3c0.4,0.7,0.8,1.5,1.2,2.1c0.5,0.7,1,1.3,1.6,1.9c0.3,0.3,0.6,0.6,0.9,0.9c0.3,0.3,0.7,0.5,1,0.7
			c0.4,0.2,0.7,0.4,1.1,0.6c0.4,0.2,0.8,0.3,1.2,0.5c0.4,0.1,0.8,0.2,1.2,0.3c0.4,0.1,0.8,0.1,1.3,0.2c0.4,0,0.8,0,1.3,0
			c0.4,0,0.8-0.1,1.3-0.1l0.4,0l0.1-0.4c0.1-0.4,0.2-0.8,0.3-1.3c0.1-0.4,0.1-0.9,0.1-1.3c0-0.2,0-0.4-0.1-0.7
			c0-0.2-0.1-0.4-0.1-0.6c-0.1-0.2-0.1-0.4-0.2-0.6c-0.1-0.2-0.2-0.4-0.3-0.6c-0.2-0.4-0.4-0.7-0.7-1.1c-0.2-0.3-0.5-0.7-0.8-1
			c-0.3-0.3-0.6-0.6-0.9-0.8c-0.3-0.3-0.6-0.5-1-0.8c-0.5-0.3-0.9-0.6-1.4-0.9c0.1,0,0.1,0,0.2,0c0.3,0.1,0.7,0.2,1,0.2l1,0.2
			c0.7,0.1,1.4,0.1,2,0.2c0.3,0,0.7,0,1,0c0.3,0,0.7,0,1-0.1c0.3-0.1,0.6-0.1,0.9-0.1c0.2,0,0.3-0.1,0.5-0.1c0.1,0,0.3-0.1,0.4-0.1
			c0.6-0.2,1.1-0.3,1.6-0.5c0.5-0.2,0.9-0.4,1.3-0.6c0.4-0.2,0.7-0.4,0.9-0.6c0.5-0.3,0.8-0.5,0.8-0.5s-0.2-0.3-0.5-0.7
			c-0.2-0.2-0.4-0.5-0.6-0.8c-0.3-0.3-0.6-0.6-0.9-1c-0.4-0.3-0.8-0.7-1.2-1c-0.5-0.3-1-0.7-1.5-0.9c-0.6-0.3-1.1-0.6-1.8-0.8
			c-0.6-0.2-1.3-0.4-1.9-0.6c-0.7-0.1-1.3-0.2-2-0.3c-0.6-0.1-1.3-0.1-1.9-0.1c-0.2,0-0.5,0-0.7,0c0.9-0.2,1.7-0.4,2.6-0.7
			c0.4-0.2,0.9-0.4,1.3-0.6c0.4-0.2,0.9-0.4,1.3-0.7c0.4-0.2,0.8-0.5,1.2-0.8l0.6-0.5l0.5-0.5c0.3-0.3,0.7-0.7,1-1
			c0.3-0.4,0.6-0.7,0.9-1.1c0.3-0.4,0.6-0.8,0.8-1.2c0.2-0.4,0.5-0.8,0.7-1.3c0.2-0.4,0.4-0.9,0.6-1.3c0.2-0.4,0.3-0.9,0.5-1.3
			l0.4-1l-1,0.1c-1.9,0.3-3.8,0.6-5.8,1c-1,0.2-1.9,0.5-2.8,0.8c-0.9,0.3-1.9,0.7-2.8,1.2c-0.9,0.5-1.7,1.1-2.4,1.8
			c-0.7,0.7-1.4,1.4-2,2.2c-0.5,0.6-1,1.2-1.4,1.8l0,0c0,0,0,0,0-0.1c0.3-0.4,0.7-0.9,1.1-1.4c0.4-0.5,0.7-1.1,1.1-1.6
			c0.2-0.3,0.3-0.6,0.5-0.9c0.2-0.3,0.4-0.6,0.5-1c0.3-0.7,0.6-1.3,0.8-2c0.3-0.7,0.4-1.4,0.6-2.1c0.1-0.4,0.1-0.7,0.2-1.1
			c0-0.4,0.1-0.7,0.1-1.1c0-0.7,0-1.4-0.1-2c-0.1-0.6-0.2-1.2-0.3-1.8c-0.2-0.5-0.3-1-0.5-1.4c-0.1-0.4-0.4-0.8-0.5-1
			c-0.3-0.6-0.5-0.9-0.5-0.9s-0.3,0.1-0.9,0.4c-0.3,0.1-0.6,0.3-1,0.5c-0.4,0.2-0.8,0.5-1.3,0.8c-0.2,0.1-0.5,0.3-0.7,0.5
			c-0.3,0.2-0.5,0.4-0.7,0.6c-0.5,0.4-1,0.8-1.5,1.3c-0.2,0.3-0.5,0.5-0.7,0.8c-0.2,0.3-0.4,0.6-0.7,0.9c-0.5,0.6-0.8,1.3-1.2,1.9
			c-0.2,0.3-0.3,0.7-0.4,1l-0.2,0.5l-0.2,0.5c-0.1,0.4-0.2,0.7-0.3,1.1c-0.1,0.4-0.1,0.7-0.2,1c-0.1,0.3-0.1,0.7-0.1,1
			c0,0.3-0.1,0.7-0.1,1c0,0.3,0,0.6,0,0.9c-0.1-0.3-0.2-0.6-0.3-0.9c-0.2-0.6-0.5-1.2-0.8-1.9c-0.2-0.3-0.3-0.6-0.5-0.9l-0.3-0.5
			l-0.3-0.4c-0.2-0.3-0.4-0.6-0.7-0.9c-0.2-0.3-0.5-0.6-0.8-0.8c-0.5-0.6-1.1-1-1.7-1.5c-0.3-0.3-0.6-0.4-0.9-0.6
			c-0.3-0.2-0.6-0.4-0.9-0.6c-0.6-0.4-1.3-0.6-1.8-0.8c-0.6-0.3-1.2-0.4-1.7-0.5c-0.5-0.1-1-0.3-1.5-0.3c-0.4-0.1-0.8-0.1-1.2-0.1
			c-0.6-0.1-1-0.1-1-0.1s0,0.4,0,1c0,0.3,0,0.7,0,1.1c0,0.4,0.1,0.9,0.2,1.5c0.1,0.5,0.2,1.1,0.4,1.7c0.1,0.3,0.2,0.6,0.3,0.9
			c0,0.2,0.1,0.3,0.2,0.5c0.1,0.2,0.1,0.3,0.2,0.5c0.1,0.3,0.3,0.6,0.4,1l0.2,0.5l0.3,0.5c0.4,0.6,0.7,1.3,1.2,1.8l0.7,0.9
			c0.2,0.3,0.5,0.5,0.7,0.8c0.5,0.6,1,1,1.5,1.5c0.5,0.4,1,0.9,1.5,1.2c0.5,0.3,0.9,0.7,1.4,0.9c-0.3-0.1-0.6-0.2-0.9-0.3
			c-0.5-0.1-1.1-0.2-1.7-0.3c-0.6-0.1-1.2-0.1-1.8-0.1c-0.6,0-1.3,0-1.9,0.1l-0.9,0.1c-0.3,0.1-0.6,0.2-0.9,0.2
			c-0.3,0.1-0.6,0.1-0.9,0.3c-0.3,0.1-0.6,0.2-0.8,0.3c-0.3,0.1-0.6,0.2-0.8,0.4c-0.2,0.1-0.5,0.3-0.7,0.4c-0.2,0.1-0.5,0.3-0.7,0.4
			c-0.2,0.2-0.4,0.3-0.6,0.5c-0.4,0.3-0.7,0.6-1,0.8c-0.3,0.3-0.5,0.5-0.7,0.7C8.4,203.5,8.2,203.7,8.2,203.7z M41.3,197.4
			c-0.5,0.2-1,0.6-1.6,0.9c-0.6,0.3-1.2,0.6-1.9,1c-0.3,0.2-0.6,0.3-0.9,0.5c-0.3,0.2-0.6,0.3-0.9,0.5c-0.6,0.3-1.2,0.6-1.7,0.8
			c-0.5,0.2-0.9,0.4-1.2,0.5c-0.3,0.1-0.5,0.2-0.5,0.2s0.5-0.6,1.3-1.3c0.2-0.2,0.4-0.4,0.7-0.5c0.3-0.2,0.5-0.4,0.8-0.6
			c0.6-0.4,1.2-0.8,1.8-1.1c0.3-0.2,0.7-0.3,1-0.5c0.3-0.2,0.7-0.3,1-0.4c0.3-0.1,0.6-0.2,0.9-0.3c0.3-0.1,0.6-0.2,0.8-0.3
			c1.1-0.3,1.8-0.4,1.8-0.4S42.3,196.9,41.3,197.4z M39.8,204.8c-0.6-0.1-1.3-0.2-2-0.3c-0.7-0.1-1.3-0.2-2-0.4
			c-0.6-0.1-1.2-0.3-1.7-0.4c-1-0.3-1.7-0.5-1.7-0.5s0.7-0.1,1.7-0.1c0.5,0,1.1,0,1.8,0.1c0.6,0,1.3,0.1,2,0.2
			c1.4,0.2,2.7,0.6,3.7,1c0.5,0.2,0.9,0.4,1.1,0.6c0.3,0.2,0.4,0.3,0.4,0.3s-0.2,0-0.5-0.1c-0.1,0-0.3,0-0.5-0.1
			c-0.2,0-0.4-0.1-0.7-0.1C41,204.9,40.4,204.8,39.8,204.8z M31.7,204.3c0,0,0.7,0.4,1.6,1.1c0.5,0.3,1,0.8,1.5,1.2
			c0.5,0.5,1.1,1,1.6,1.6c0.5,0.5,1,1.1,1.5,1.7c0.4,0.6,0.8,1.1,1.2,1.6c0.7,0.9,1,1.6,1,1.6s-0.6-0.5-1.5-1.2
			c-0.4-0.4-0.9-0.8-1.4-1.3c-0.2-0.3-0.5-0.5-0.8-0.8c-0.3-0.3-0.5-0.5-0.8-0.8c-0.3-0.3-0.5-0.6-0.8-0.8c-0.2-0.3-0.5-0.5-0.7-0.8
			c-0.5-0.5-0.9-1-1.3-1.5c-0.4-0.4-0.6-0.8-0.8-1.1C31.8,204.4,31.7,204.3,31.7,204.3z M30.7,200.1c0,0,0-0.9,0.2-2.2
			c0.1-0.7,0.3-1.4,0.4-2.2c0.2-0.8,0.5-1.7,0.7-2.5c0.2-0.4,0.3-0.8,0.5-1.2c0.2-0.4,0.3-0.8,0.5-1.2c0.2-0.4,0.4-0.7,0.6-1.1
			c0.2-0.3,0.4-0.7,0.5-0.9c0.8-1.1,1.4-1.8,1.4-1.8s-0.3,0.9-0.8,2c-0.1,0.3-0.2,0.6-0.4,1c-0.1,0.3-0.3,0.7-0.4,1.1
			c-0.2,0.4-0.3,0.8-0.4,1.2c-0.1,0.4-0.3,0.8-0.4,1.2c-0.1,0.4-0.3,0.8-0.4,1.2c-0.1,0.4-0.3,0.8-0.4,1.2c-0.3,0.8-0.5,1.5-0.8,2.1
			c-0.2,0.6-0.4,1.1-0.6,1.5C30.7,199.9,30.7,200.1,30.7,200.1z M28.7,213.5c0-0.3,0-0.6,0-1c0-0.7,0-1.4,0.1-2.1
			c0.1-0.7,0.1-1.4,0.2-2.1c0.1-0.7,0.2-1.3,0.3-1.8c0.2-1.1,0.4-1.8,0.4-1.8c0,0,0.1,0.7,0.2,1.8c0,0.5,0.1,1.2,0,1.9
			c0,0.7,0,1.4-0.1,2.1c-0.1,0.7-0.1,1.4-0.2,2.1c-0.1,0.7-0.2,1.3-0.3,1.8c-0.2,1.1-0.5,1.8-0.5,1.8s-0.1-0.7-0.1-1.8
			C28.7,214.1,28.7,213.8,28.7,213.5z M28.3,200.1c0,0-0.1-0.1-0.4-0.4c-0.2-0.3-0.6-0.6-1-1.1c-0.4-0.5-0.9-1-1.3-1.6
			c-0.2-0.3-0.5-0.6-0.7-0.9c-0.2-0.3-0.5-0.6-0.7-0.9c-0.2-0.3-0.5-0.6-0.7-0.9c-0.2-0.3-0.5-0.6-0.7-0.9c-0.2-0.3-0.5-0.6-0.7-0.9
			c-0.2-0.3-0.4-0.5-0.6-0.8c-0.7-0.9-1.2-1.7-1.2-1.7s0.7,0.4,1.6,1.2c0.2,0.2,0.5,0.4,0.7,0.7c0.2,0.2,0.5,0.5,0.8,0.8
			c0.5,0.5,1,1.2,1.6,1.8c0.5,0.6,1,1.3,1.4,1.9c0.2,0.3,0.4,0.6,0.6,0.9c0.2,0.3,0.3,0.6,0.5,0.9C28,199.3,28.3,200.1,28.3,200.1z
			 M20.9,209.8c0.3-0.5,0.7-1,1.1-1.5c0.4-0.5,0.9-1,1.5-1.5c0.5-0.5,1.1-0.9,1.7-1.3c0.6-0.4,1.1-0.7,1.6-0.9
			c1-0.5,1.7-0.7,1.7-0.7s-0.5,0.5-1.4,1.2c-0.4,0.3-0.9,0.7-1.4,1.2c-0.5,0.4-1,0.9-1.5,1.4c-1,0.9-2,1.9-2.8,2.6
			c-0.4,0.4-0.7,0.7-0.9,0.9c-0.2,0.2-0.4,0.3-0.4,0.3s0.1-0.2,0.2-0.4C20.4,210.7,20.6,210.3,20.9,209.8z M17,202.9
			c0,0,0.6-0.3,1.6-0.5c0.5-0.1,1-0.2,1.7-0.3c0.6-0.1,1.3-0.2,1.9-0.2c0.7,0,1.3,0,1.9,0c0.3,0,0.6,0,0.9,0.1
			c0.3,0,0.6,0.1,0.8,0.1c0.2,0,0.5,0.1,0.7,0.2c0.2,0.1,0.4,0.1,0.5,0.2c0.3,0.1,0.4,0.2,0.4,0.2s-0.2,0-0.5,0c-0.1,0-0.3,0-0.5,0
			c-0.2,0-0.4,0-0.7,0c-0.5,0-1,0.1-1.6,0.1c-0.3,0-0.6,0-0.9,0.1c-0.3,0-0.6,0-1,0c-0.6,0-1.3,0-1.9,0c-0.6,0-1.2,0-1.7,0
			C17.7,203,17,202.9,17,202.9z"/>
	</g>
	<g>
		<path fill="#944836" d="M34.3,257.5c0,0,0.2,0,0.6,0c0.2,0,0.5,0,0.7-0.1c0.3-0.1,0.6-0.1,1-0.2c0.3-0.1,0.7-0.3,1.1-0.4
			c0.4-0.2,0.7-0.4,1.1-0.6c0.4-0.2,0.7-0.5,1.1-0.8c0.3-0.3,0.7-0.6,1-1c0.3-0.4,0.7-0.7,0.9-1.1c0.3-0.4,0.6-0.7,0.8-1.1
			c0.1-0.1,0.2-0.2,0.2-0.3c-0.1,0.3-0.2,0.7-0.3,1c-0.1,0.5-0.2,1-0.3,1.5c0,0.5-0.1,1.1-0.1,1.6c0,0.5,0,1.1,0.1,1.6
			c0,0.3,0.1,0.5,0.1,0.8c0.1,0.3,0.1,0.5,0.2,0.8c0.1,0.2,0.1,0.5,0.2,0.7c0.1,0.2,0.2,0.4,0.3,0.7c0.1,0.2,0.2,0.4,0.3,0.6
			c0.1,0.2,0.2,0.4,0.3,0.5c0.2,0.3,0.4,0.7,0.6,0.9c0,0,0.1,0.1,0.1,0.1l0,0l0.7,0.8c0.2,0.2,0.3,0.3,0.3,0.3s0.2-0.2,0.4-0.6
			c0.1-0.1,0.2-0.3,0.3-0.5l0.1-0.1h0c0.2-0.3,0.4-0.7,0.6-1.1c0.2-0.3,0.4-0.7,0.6-1.1c0.1-0.2,0.2-0.4,0.3-0.6
			c0.1-0.2,0.2-0.5,0.3-0.7c0.2-0.5,0.3-1,0.5-1.5c0.1-0.2,0.1-0.5,0.2-0.8c0.1-0.3,0.1-0.5,0.1-0.8c0.1-0.5,0.1-1.1,0.1-1.6
			c0-0.5,0-1-0.1-1.5c-0.1-0.5-0.1-1-0.2-1.4c-0.1-0.4-0.2-0.9-0.3-1.2c-0.2-0.6-0.4-1.2-0.5-1.6l0,0c0.1,0.4,0.3,0.8,0.6,1.4
			c0.1,0.3,0.3,0.7,0.5,1.1c0.2,0.4,0.4,0.8,0.6,1.2c0.2,0.4,0.5,0.8,0.8,1.2c0.3,0.4,0.6,0.8,0.9,1.2c0.4,0.4,0.7,0.8,1.1,1.1
			c0.2,0.2,0.4,0.3,0.6,0.5c0.2,0.1,0.4,0.3,0.6,0.4c0.4,0.3,0.8,0.5,1.2,0.7c0.4,0.2,0.8,0.3,1.2,0.5c0.4,0.1,0.7,0.2,1,0.2
			c0.3,0.1,0.6,0.1,0.8,0.1c0.4,0,0.7,0,0.7,0s0-0.2,0.1-0.7c0-0.2,0-0.5,0.1-0.8c0-0.3,0-0.7-0.1-1c0-0.4-0.1-0.8-0.2-1.2
			c-0.4-2.2-1.8-4.5-3.4-6.1c-0.8-0.7-1.5-1.4-2.4-1.9c-0.6-0.3-1.1-0.6-1.5-0.8c0.4,0.2,0.8,0.4,1.2,0.6c0.6,0.3,1.2,0.5,1.8,0.7
			c0.6,0.2,1.3,0.4,1.9,0.5c0.7,0.1,1.3,0.2,2,0.2c0.3,0,0.7,0,1-0.1c0.3,0,0.7-0.1,1-0.2c0.3-0.1,0.7-0.2,1-0.3
			c0.3-0.1,0.6-0.3,0.9-0.4c0.3-0.2,0.6-0.4,0.9-0.6c0.3-0.2,0.5-0.4,0.8-0.6c0.3-0.2,0.5-0.5,0.7-0.7c0.2-0.2,0.4-0.5,0.7-0.8
			l0.2-0.3l-0.2-0.3c-0.2-0.3-0.3-0.6-0.6-0.9c-0.2-0.3-0.5-0.5-0.7-0.8c-0.1-0.1-0.3-0.2-0.4-0.3c-0.1-0.1-0.3-0.2-0.5-0.3
			c-0.2-0.1-0.3-0.2-0.5-0.2c-0.2-0.1-0.3-0.1-0.5-0.2c-0.3-0.1-0.7-0.2-1-0.2c-0.3-0.1-0.7-0.1-1-0.1c-0.3,0-0.7,0-1,0
			c-0.3,0-0.7,0.1-1,0.1c-0.4,0.1-0.9,0.2-1.3,0.3c0,0,0.1-0.1,0.1-0.1c0.2-0.1,0.5-0.3,0.7-0.4l0.7-0.5c0.5-0.3,0.8-0.7,1.3-1.1
			c0.2-0.2,0.4-0.4,0.5-0.6c0.2-0.2,0.4-0.4,0.5-0.6c0.2-0.2,0.3-0.4,0.4-0.6c0.1-0.1,0.1-0.2,0.2-0.3c0.1-0.1,0.1-0.2,0.2-0.3
			c0.2-0.4,0.5-0.8,0.6-1.2c0.1-0.4,0.3-0.8,0.4-1.1c0.1-0.3,0.1-0.6,0.2-0.9c0.1-0.5,0.1-0.7,0.1-0.7s-0.3,0-0.7-0.1
			c-0.2,0-0.5-0.1-0.8-0.1c-0.3,0-0.7,0-1.1,0c-0.4,0-0.8,0.1-1.3,0.2c-0.4,0.1-0.9,0.2-1.4,0.4c-0.5,0.2-1,0.3-1.4,0.6
			c-0.5,0.2-0.9,0.5-1.4,0.8c-0.4,0.3-0.9,0.6-1.3,1c-0.4,0.3-0.8,0.7-1.1,1c-0.1,0.1-0.3,0.3-0.4,0.4c0.4-0.6,0.7-1.3,1-1.9
			c0.2-0.4,0.3-0.7,0.4-1.1c0.1-0.4,0.2-0.7,0.3-1.1c0.1-0.4,0.1-0.8,0.2-1.2l0.1-0.6l0-0.6c0-0.4,0-0.8,0-1.2
			c0-0.4-0.1-0.8-0.2-1.2c-0.1-0.4-0.1-0.8-0.3-1.1c-0.1-0.4-0.2-0.8-0.4-1.1c-0.1-0.4-0.3-0.7-0.4-1.1c-0.2-0.4-0.3-0.7-0.5-1
			l-0.4-0.8l-0.5,0.7c-0.9,1.3-1.8,2.6-2.7,3.9c-0.4,0.7-0.8,1.4-1.1,2.1c-0.4,0.7-0.7,1.5-0.9,2.3c-0.2,0.8-0.3,1.6-0.4,2.4
			c0,0.8,0.1,1.6,0.2,2.4c0.1,0.6,0.2,1.2,0.2,1.8l0,0c0,0,0,0,0-0.1c-0.1-0.4-0.1-0.9-0.2-1.4c-0.1-0.5-0.2-1-0.3-1.6
			c-0.1-0.3-0.2-0.5-0.2-0.8c-0.1-0.3-0.2-0.6-0.3-0.8c-0.2-0.5-0.4-1.1-0.7-1.6c-0.3-0.5-0.6-1-0.9-1.5c-0.1-0.3-0.3-0.5-0.5-0.7
			c-0.2-0.2-0.4-0.4-0.5-0.7c-0.4-0.4-0.8-0.8-1.2-1.1c-0.4-0.3-0.8-0.6-1.2-0.8c-0.4-0.2-0.8-0.4-1.1-0.5c-0.3-0.2-0.6-0.2-0.9-0.3
			c-0.5-0.1-0.8-0.2-0.8-0.2s-0.1,0.3-0.3,0.8c-0.1,0.2-0.2,0.5-0.3,0.9c-0.1,0.3-0.2,0.7-0.3,1.2c0,0.2-0.1,0.5-0.1,0.7
			c0,0.2-0.1,0.5-0.1,0.7c0,0.5-0.1,1.1-0.1,1.6c0,0.3,0,0.6,0,0.9c0,0.3,0.1,0.6,0.1,0.9c0.1,0.6,0.3,1.2,0.4,1.8
			c0.1,0.3,0.2,0.6,0.3,0.8l0.2,0.4l0.2,0.4c0.1,0.3,0.3,0.5,0.4,0.8c0.2,0.2,0.3,0.5,0.5,0.7c0.2,0.2,0.4,0.4,0.5,0.6
			c0.2,0.2,0.4,0.4,0.5,0.6c0.2,0.2,0.3,0.3,0.5,0.5c-0.2-0.1-0.4-0.2-0.7-0.3c-0.5-0.2-1-0.4-1.5-0.6c-0.3-0.1-0.6-0.1-0.8-0.2
			l-0.4-0.1l-0.4-0.1c-0.3,0-0.6-0.1-0.9-0.1c-0.3,0-0.6,0-0.9,0c-0.6,0-1.2,0.1-1.8,0.1c-0.3,0-0.6,0.1-0.9,0.2
			c-0.3,0.1-0.6,0.1-0.8,0.2c-0.6,0.1-1,0.4-1.5,0.6c-0.5,0.2-0.9,0.5-1.3,0.7c-0.4,0.2-0.7,0.4-1,0.7c-0.3,0.2-0.5,0.4-0.7,0.6
			c-0.4,0.3-0.6,0.5-0.6,0.5s0.2,0.2,0.6,0.5c0.2,0.2,0.4,0.4,0.7,0.6c0.3,0.2,0.6,0.4,1,0.7c0.4,0.2,0.8,0.5,1.2,0.7
			c0.2,0.1,0.5,0.2,0.7,0.4c0.1,0.1,0.2,0.1,0.4,0.2c0.1,0,0.3,0.1,0.4,0.1c0.3,0.1,0.5,0.2,0.8,0.3l0.4,0.1l0.4,0.1
			c0.6,0.1,1.1,0.3,1.7,0.4l0.9,0.1c0.3,0,0.6,0,0.9,0c0.6,0.1,1.2,0,1.7,0c0.6,0,1.1-0.1,1.6-0.2c0.5-0.1,0.9-0.2,1.3-0.3
			c-0.2,0.1-0.4,0.2-0.7,0.4c-0.4,0.2-0.8,0.5-1.1,0.8c-0.4,0.3-0.8,0.6-1.1,1c-0.3,0.4-0.7,0.7-1,1.2l-0.5,0.6
			c-0.1,0.2-0.3,0.4-0.4,0.7c-0.1,0.2-0.3,0.4-0.4,0.7c-0.1,0.2-0.2,0.5-0.3,0.7c-0.1,0.2-0.2,0.4-0.2,0.7c-0.1,0.2-0.1,0.5-0.2,0.7
			c0,0.2-0.1,0.4-0.1,0.6c0,0.2,0,0.4-0.1,0.6c0,0.4-0.1,0.7-0.1,1c0,0.3,0,0.6,0.1,0.8C34.2,257.3,34.3,257.5,34.3,257.5z
			 M49.2,234.7c-0.1,0.4-0.2,0.9-0.4,1.4c-0.2,0.5-0.3,1.1-0.5,1.6c-0.1,0.3-0.2,0.6-0.2,0.8c-0.1,0.3-0.2,0.5-0.3,0.8
			c-0.2,0.5-0.3,1-0.5,1.4c-0.1,0.4-0.3,0.8-0.4,1c-0.1,0.2-0.2,0.4-0.2,0.4s-0.1-0.6,0-1.5c0-0.2,0-0.5,0.1-0.7
			c0-0.3,0.1-0.5,0.1-0.8c0.1-0.5,0.2-1.1,0.4-1.7c0.1-0.3,0.2-0.6,0.3-0.8c0.1-0.3,0.2-0.5,0.3-0.8c0.1-0.3,0.2-0.5,0.3-0.7
			c0.1-0.2,0.2-0.4,0.3-0.6c0.4-0.8,0.8-1.3,0.8-1.3S49.5,233.9,49.2,234.7z M52.7,239.7c-0.4,0.3-0.8,0.7-1.3,1
			c-0.4,0.3-0.9,0.7-1.3,0.9c-0.4,0.3-0.8,0.6-1.2,0.8c-0.7,0.4-1.2,0.7-1.2,0.7s0.3-0.5,0.9-1.1c0.3-0.3,0.6-0.6,1-1
			c0.4-0.3,0.8-0.7,1.3-1c0.9-0.7,1.9-1.3,2.6-1.6c0.4-0.2,0.7-0.3,1-0.3c0.3,0,0.4-0.1,0.4-0.1s-0.1,0.1-0.3,0.2
			c-0.1,0.1-0.2,0.2-0.3,0.3c-0.1,0.1-0.3,0.2-0.4,0.4C53.4,239.1,53.1,239.4,52.7,239.7z M47.8,244.2c0,0,0.6-0.2,1.5-0.3
			c0.5-0.1,1-0.1,1.6-0.2c0.6,0,1.2-0.1,1.8-0.1c0.6,0,1.2,0,1.8,0.1c0.6,0.1,1.1,0.1,1.6,0.2c0.9,0.1,1.5,0.3,1.5,0.3
			s-0.6,0.1-1.5,0.2c-0.5,0-1,0.1-1.6,0.1c-0.3,0-0.6,0-0.9,0c-0.3,0-0.6,0-0.9,0c-0.3,0-0.6,0-0.9,0c-0.3,0-0.6,0-0.9,0
			c-0.6,0-1.1,0-1.6-0.1c-0.5,0-0.8-0.1-1.1-0.1C48,244.2,47.8,244.2,47.8,244.2z M44.8,242.5c0,0-0.5-0.5-1.2-1.4
			c-0.3-0.4-0.7-0.9-1-1.5c-0.4-0.6-0.7-1.2-1-1.8c-0.1-0.3-0.3-0.7-0.4-1c-0.1-0.3-0.3-0.6-0.4-1c-0.1-0.3-0.2-0.6-0.3-0.9
			c-0.1-0.3-0.2-0.6-0.2-0.8c-0.2-1.1-0.2-1.8-0.2-1.8s0.3,0.7,0.7,1.6c0.1,0.2,0.2,0.5,0.4,0.8c0.1,0.3,0.3,0.6,0.4,0.9
			c0.1,0.3,0.3,0.6,0.5,0.9c0.2,0.3,0.3,0.6,0.5,0.9c0.2,0.3,0.3,0.6,0.5,0.9c0.2,0.3,0.3,0.6,0.5,0.9c0.3,0.6,0.6,1.2,0.8,1.6
			c0.2,0.5,0.4,0.9,0.5,1.2C44.7,242.3,44.8,242.5,44.8,242.5z M51.5,251.1c-0.2-0.2-0.4-0.4-0.6-0.6c-0.4-0.4-0.8-0.8-1.2-1.2
			c-0.4-0.4-0.8-0.9-1.1-1.3c-0.3-0.4-0.6-0.8-0.9-1.2c-0.5-0.7-0.8-1.2-0.8-1.2s0.5,0.3,1.2,0.9c0.3,0.3,0.7,0.6,1.1,1
			c0.4,0.4,0.8,0.8,1.2,1.2c0.4,0.4,0.8,0.9,1.1,1.3c0.3,0.4,0.6,0.9,0.9,1.2c0.5,0.7,0.7,1.3,0.7,1.3s-0.5-0.4-1.1-1
			C51.8,251.4,51.7,251.3,51.5,251.1z M43.5,243.8c0,0-0.2,0-0.5,0c-0.3,0-0.7,0-1.2,0c-0.5,0-1.1-0.1-1.7-0.1c-0.3,0-0.6,0-0.9-0.1
			c-0.3,0-0.6-0.1-1-0.1c-0.3,0-0.6-0.1-1-0.1c-0.3,0-0.6-0.1-0.9-0.1c-0.3,0-0.6-0.1-0.9-0.1c-0.3,0-0.5-0.1-0.8-0.1
			c-1-0.1-1.6-0.2-1.6-0.2s0.6-0.2,1.6-0.3c0.2,0,0.5,0,0.8-0.1c0.3,0,0.6,0,0.9,0c0.6,0,1.3,0.1,1.9,0.1c0.7,0.1,1.3,0.2,1.9,0.3
			c0.3,0.1,0.6,0.1,0.9,0.2c0.3,0.1,0.5,0.1,0.8,0.2C42.9,243.6,43.5,243.8,43.5,243.8z M45,253.6c-0.1-0.4-0.2-0.9-0.2-1.5
			c-0.1-0.5-0.1-1.1-0.1-1.7c0-0.6,0.1-1.2,0.2-1.7c0.1-0.5,0.2-1,0.3-1.5c0.3-0.8,0.6-1.3,0.6-1.3s0,0.6-0.1,1.4
			c0,0.4-0.1,0.9-0.1,1.4c0,0.5-0.1,1.1-0.1,1.6c0,1.1,0,2.2-0.1,3.1c0,0.4,0,0.8,0,1c0,0.3,0,0.4,0,0.4s-0.1-0.1-0.1-0.4
			C45.2,254.4,45.1,254,45,253.6z M38.7,252c0,0,0.2-0.5,0.6-1.2c0.2-0.3,0.5-0.7,0.8-1.1c0.3-0.4,0.6-0.8,1-1.2
			c0.4-0.4,0.7-0.8,1.1-1.1c0.2-0.2,0.4-0.3,0.6-0.5c0.2-0.1,0.4-0.3,0.5-0.4c0.2-0.1,0.3-0.2,0.5-0.3c0.1-0.1,0.3-0.2,0.4-0.2
			c0.2-0.1,0.4-0.1,0.4-0.1s-0.1,0.1-0.2,0.3c-0.1,0.1-0.2,0.2-0.3,0.3c-0.1,0.1-0.2,0.3-0.3,0.4c-0.3,0.3-0.5,0.6-0.9,1
			c-0.2,0.2-0.3,0.4-0.5,0.6c-0.2,0.2-0.3,0.4-0.5,0.6c-0.3,0.4-0.7,0.8-1,1.1c-0.3,0.4-0.7,0.7-1,1C39.1,251.6,38.7,252,38.7,252z"
			/>
	</g>
	<g>
		<path fill="#944836" d="M268.7,255.5c0-0.2,0-0.5,0.1-0.8c0-0.3,0-0.7-0.1-1c0-0.2,0-0.4-0.1-0.6c0-0.2-0.1-0.4-0.1-0.6
			c-0.1-0.2-0.1-0.4-0.2-0.7c0-0.2-0.2-0.4-0.2-0.7c-0.1-0.2-0.2-0.5-0.3-0.7c-0.1-0.2-0.2-0.4-0.4-0.7c-0.1-0.2-0.2-0.5-0.4-0.7
			l-0.5-0.6c-0.3-0.4-0.7-0.8-1-1.2c-0.4-0.4-0.7-0.7-1.1-1c-0.4-0.3-0.8-0.6-1.1-0.8c-0.2-0.2-0.5-0.3-0.7-0.4
			c0.4,0.1,0.8,0.2,1.3,0.3c0.5,0.1,1,0.2,1.6,0.2c0.6,0,1.1,0.1,1.7,0c0.3,0,0.6,0,0.9,0l0.9-0.1c0.6-0.1,1.2-0.2,1.7-0.4l0.4-0.1
			l0.4-0.1c0.3-0.1,0.5-0.2,0.8-0.3c0.1,0,0.3-0.1,0.4-0.1c0.1-0.1,0.2-0.1,0.4-0.2c0.2-0.1,0.5-0.2,0.7-0.4
			c0.5-0.2,0.9-0.5,1.2-0.7c0.4-0.3,0.7-0.5,1-0.7c0.3-0.2,0.5-0.4,0.7-0.6c0.4-0.3,0.6-0.5,0.6-0.5s-0.2-0.2-0.6-0.5
			c-0.2-0.2-0.4-0.4-0.7-0.6c-0.3-0.3-0.6-0.4-1-0.7c-0.4-0.2-0.8-0.5-1.3-0.7c-0.5-0.2-1-0.5-1.5-0.6c-0.3-0.1-0.6-0.1-0.8-0.2
			c-0.3-0.1-0.6-0.2-0.9-0.2c-0.6-0.1-1.2-0.2-1.8-0.1c-0.3,0-0.6,0-0.9,0c-0.3,0-0.6,0.1-0.9,0.1l-0.4,0.1l-0.4,0.1
			c-0.3,0.1-0.6,0.2-0.8,0.2c-0.5,0.2-1.1,0.4-1.5,0.6c-0.2,0.1-0.5,0.2-0.7,0.3c0.2-0.2,0.3-0.3,0.5-0.5c0.2-0.2,0.4-0.4,0.5-0.6
			c0.2-0.2,0.4-0.4,0.5-0.6c0.2-0.2,0.3-0.5,0.5-0.7c0.2-0.2,0.3-0.5,0.4-0.8l0.2-0.4l0.2-0.4c0.1-0.3,0.3-0.6,0.3-0.8
			c0.2-0.6,0.4-1.2,0.4-1.8c0.1-0.3,0.1-0.6,0.1-0.9c0-0.3,0-0.6,0-0.9c0.1-0.6,0-1.1-0.1-1.6c0-0.3,0-0.5-0.1-0.7
			c-0.1-0.2-0.1-0.5-0.1-0.7c-0.1-0.4-0.2-0.8-0.3-1.2c-0.1-0.3-0.2-0.6-0.3-0.9c-0.2-0.5-0.3-0.8-0.3-0.8s-0.3,0.1-0.8,0.2
			c-0.2,0.1-0.6,0.1-0.9,0.3c-0.3,0.2-0.7,0.3-1.1,0.5c-0.4,0.2-0.8,0.5-1.2,0.8c-0.4,0.3-0.8,0.7-1.2,1.1c-0.2,0.2-0.4,0.4-0.5,0.7
			c-0.2,0.2-0.4,0.4-0.5,0.7c-0.3,0.5-0.6,1-0.9,1.5c-0.3,0.5-0.5,1.1-0.7,1.6c-0.1,0.3-0.2,0.6-0.3,0.8c-0.1,0.3-0.2,0.5-0.2,0.8
			c-0.1,0.5-0.3,1.1-0.3,1.6c-0.1,0.5-0.2,1-0.2,1.4c0,0,0,0,0,0.1l0,0c0.1-0.6,0.1-1.2,0.2-1.8c0.1-0.8,0.2-1.6,0.2-2.4
			c0-0.8-0.1-1.6-0.4-2.4c-0.2-0.8-0.5-1.5-0.9-2.3c-0.4-0.7-0.7-1.4-1.1-2.1c-0.8-1.3-1.7-2.7-2.7-3.9l-0.5-0.7l-0.4,0.8
			c-0.2,0.3-0.4,0.7-0.5,1c-0.2,0.4-0.3,0.7-0.4,1.1c-0.1,0.4-0.3,0.7-0.4,1.1c-0.1,0.4-0.2,0.8-0.3,1.1c-0.1,0.4-0.1,0.8-0.2,1.2
			c0,0.4,0,0.8,0,1.2l0,0.6l0.1,0.6c0.1,0.4,0.1,0.8,0.2,1.2c0.1,0.4,0.2,0.8,0.3,1.1c0.1,0.4,0.3,0.7,0.4,1.1
			c0.3,0.7,0.6,1.3,1,1.9c-0.1-0.1-0.3-0.3-0.4-0.4c-0.4-0.3-0.7-0.7-1.1-1c-0.4-0.3-0.8-0.7-1.3-1c-0.5-0.3-0.9-0.6-1.4-0.8
			c-0.5-0.3-1-0.4-1.4-0.6c-0.5-0.2-1-0.3-1.4-0.4c-0.5-0.1-0.9-0.1-1.3-0.2c-0.4,0-0.8,0-1.1,0c-0.3,0-0.6,0.1-0.8,0.1
			c-0.5,0.1-0.7,0.1-0.7,0.1s0,0.3,0.1,0.7c0,0.2,0.1,0.5,0.2,0.9c0.1,0.3,0.2,0.7,0.4,1.1c0.1,0.4,0.4,0.8,0.6,1.2
			c0.1,0.1,0.1,0.2,0.2,0.3c0.1,0.1,0.1,0.2,0.2,0.3c0.1,0.2,0.3,0.4,0.4,0.6c0.1,0.2,0.3,0.4,0.5,0.6c0.2,0.2,0.4,0.4,0.5,0.6
			c0.4,0.4,0.8,0.8,1.3,1.1l0.7,0.5c0.2,0.2,0.5,0.3,0.7,0.4c0,0,0.1,0.1,0.1,0.1c-0.4-0.1-0.9-0.2-1.3-0.3c-0.3-0.1-0.7-0.1-1-0.1
			c-0.3,0-0.7-0.1-1,0c-0.3,0-0.7,0-1,0.1c-0.3,0-0.7,0.1-1,0.2c-0.2,0-0.3,0.1-0.5,0.2c-0.2,0.1-0.3,0.1-0.5,0.2
			c-0.2,0.1-0.3,0.2-0.5,0.3c-0.1,0.1-0.3,0.2-0.4,0.3c-0.3,0.2-0.5,0.5-0.7,0.8c-0.2,0.3-0.4,0.6-0.6,0.9l-0.2,0.3l0.2,0.3
			c0.2,0.3,0.4,0.5,0.7,0.8c0.2,0.3,0.5,0.5,0.7,0.7c0.3,0.2,0.5,0.5,0.8,0.6c0.3,0.2,0.6,0.4,0.9,0.6c0.3,0.2,0.6,0.3,0.9,0.4
			c0.3,0.1,0.7,0.2,1,0.3c0.3,0.1,0.7,0.1,1,0.2c0.3,0,0.7,0.1,1,0.1c0.7,0,1.4-0.1,2-0.2c0.7-0.1,1.3-0.3,1.9-0.5
			c0.6-0.2,1.2-0.5,1.8-0.7c0.4-0.2,0.8-0.4,1.2-0.6c-0.4,0.2-0.9,0.4-1.5,0.8c-0.9,0.5-1.7,1.2-2.4,1.9c-1.6,1.6-2.9,3.9-3.4,6.1
			c-0.1,0.4-0.2,0.8-0.2,1.2c0,0.4,0,0.7-0.1,1c0,0.3,0,0.6,0.1,0.8c0,0.4,0.1,0.7,0.1,0.7s0.2,0,0.7,0c0.2,0,0.5,0,0.8-0.1
			c0.3-0.1,0.6-0.1,1-0.2c0.4-0.1,0.8-0.3,1.2-0.5c0.4-0.2,0.8-0.4,1.2-0.7c0.2-0.1,0.4-0.3,0.6-0.4c0.2-0.2,0.4-0.3,0.6-0.5
			c0.4-0.3,0.7-0.7,1.1-1.1c0.3-0.4,0.6-0.8,0.9-1.2c0.3-0.4,0.5-0.8,0.8-1.2c0.2-0.4,0.4-0.8,0.6-1.2c0.2-0.4,0.4-0.8,0.5-1.1
			c0.2-0.5,0.4-1,0.6-1.4l0,0c-0.1,0.4-0.3,0.9-0.5,1.6c-0.1,0.4-0.2,0.8-0.3,1.2c-0.1,0.4-0.2,0.9-0.2,1.4c-0.1,0.5-0.1,1-0.1,1.5
			c0,0.5,0,1.1,0.1,1.6c0,0.3,0.1,0.5,0.1,0.8c0.1,0.3,0.1,0.5,0.2,0.8c0.1,0.5,0.3,1,0.5,1.5c0.1,0.2,0.2,0.5,0.3,0.7
			c0.1,0.2,0.2,0.4,0.3,0.6c0.2,0.4,0.4,0.8,0.6,1.1c0.2,0.4,0.4,0.8,0.6,1.1h0l0.1,0.1c0.1,0.2,0.2,0.3,0.3,0.5
			c0.3,0.4,0.4,0.6,0.4,0.6s0.1-0.1,0.3-0.3l0.7-0.8l0,0c0,0,0.1-0.1,0.1-0.1c0.2-0.3,0.4-0.6,0.6-0.9c0.1-0.2,0.2-0.3,0.3-0.5
			c0.1-0.2,0.2-0.4,0.3-0.6c0.1-0.2,0.2-0.4,0.3-0.7c0.1-0.2,0.1-0.5,0.2-0.7c0.1-0.2,0.1-0.5,0.2-0.8c0-0.3,0.1-0.5,0.1-0.8
			c0.1-0.5,0.1-1.1,0.1-1.6c0-0.5-0.1-1.1-0.1-1.6c-0.1-0.5-0.1-1-0.3-1.5c-0.1-0.4-0.2-0.7-0.3-1c0.1,0.1,0.1,0.2,0.2,0.3
			c0.3,0.4,0.5,0.7,0.8,1.1c0.3,0.4,0.6,0.7,0.9,1.1c0.3,0.3,0.7,0.7,1,1c0.4,0.3,0.7,0.6,1.1,0.8c0.4,0.2,0.8,0.5,1.1,0.6
			c0.4,0.2,0.7,0.3,1.1,0.4c0.4,0.1,0.7,0.2,1,0.2c0.3,0.1,0.5,0.1,0.7,0.1c0.4,0,0.6,0,0.6,0S268.7,255.9,268.7,255.5z
			 M253.4,231.9c0,0,0.4,0.5,0.8,1.3c0.1,0.2,0.2,0.4,0.3,0.6c0.1,0.2,0.2,0.5,0.3,0.7c0.1,0.3,0.2,0.5,0.3,0.8
			c0.1,0.3,0.2,0.6,0.3,0.8c0.2,0.6,0.3,1.1,0.4,1.7c0.1,0.3,0.1,0.5,0.1,0.8c0,0.2,0.1,0.5,0.1,0.7c0.1,0.9,0,1.5,0,1.5
			s-0.1-0.1-0.2-0.4c-0.1-0.2-0.2-0.6-0.4-1c-0.1-0.4-0.3-0.9-0.5-1.4c-0.1-0.3-0.2-0.5-0.3-0.8c-0.1-0.3-0.2-0.6-0.2-0.8
			c-0.2-0.6-0.3-1.1-0.5-1.6c-0.2-0.5-0.3-1-0.4-1.4C253.4,232.5,253.4,231.9,253.4,231.9z M249.2,237.5c-0.2-0.1-0.3-0.2-0.4-0.4
			c-0.1-0.1-0.2-0.2-0.3-0.3c-0.2-0.1-0.3-0.2-0.3-0.2s0.1,0,0.4,0.1c0.2,0.1,0.6,0.2,1,0.3c0.8,0.3,1.7,0.9,2.6,1.6
			c0.4,0.3,0.9,0.7,1.3,1c0.4,0.3,0.7,0.7,1,1c0.6,0.6,0.9,1.1,0.9,1.1s-0.5-0.2-1.2-0.7c-0.4-0.2-0.8-0.5-1.2-0.8
			c-0.4-0.3-0.9-0.6-1.3-0.9c-0.4-0.3-0.9-0.7-1.3-1C249.8,238,249.5,237.7,249.2,237.5z M254.7,242.9c-0.3,0-0.7,0.1-1.1,0.1
			c-0.5,0-1,0.1-1.6,0.1c-0.3,0-0.6,0-0.9,0c-0.3,0-0.6,0-0.9,0c-0.3,0-0.6,0-0.9,0c-0.3,0-0.6,0-0.9,0c-0.6,0-1.1,0-1.6-0.1
			c-0.9-0.1-1.5-0.2-1.5-0.2s0.6-0.2,1.5-0.3c0.5-0.1,1-0.2,1.6-0.2c0.6,0,1.2-0.1,1.8-0.1c0.6,0,1.2,0,1.8,0.1
			c0.6,0,1.1,0.1,1.6,0.2c0.9,0.1,1.5,0.3,1.5,0.3S255,242.8,254.7,242.9z M258.3,240.6c0.1-0.3,0.3-0.7,0.5-1.2
			c0.2-0.5,0.5-1,0.8-1.6c0.2-0.3,0.3-0.6,0.5-0.9c0.2-0.3,0.3-0.6,0.5-0.9c0.2-0.3,0.3-0.6,0.5-0.9c0.1-0.3,0.3-0.6,0.5-0.9
			c0.1-0.3,0.3-0.6,0.4-0.9c0.1-0.3,0.3-0.5,0.4-0.8c0.4-1,0.7-1.6,0.7-1.6s0,0.7-0.2,1.8c-0.1,0.3-0.1,0.5-0.2,0.8
			c-0.1,0.3-0.2,0.6-0.3,0.9c-0.1,0.3-0.3,0.6-0.4,1c-0.1,0.3-0.3,0.7-0.4,1c-0.3,0.6-0.7,1.3-1,1.8c-0.4,0.6-0.7,1.1-1,1.5
			c-0.6,0.9-1.2,1.4-1.2,1.4S258.2,240.9,258.3,240.6z M250.9,250.2c-0.6,0.6-1.1,1-1.1,1s0.3-0.5,0.7-1.3c0.2-0.4,0.5-0.8,0.9-1.2
			c0.3-0.4,0.7-0.9,1.1-1.3c0.4-0.4,0.8-0.9,1.2-1.2c0.4-0.4,0.8-0.7,1.1-1c0.7-0.6,1.2-0.9,1.2-0.9c0,0-0.3,0.5-0.8,1.2
			c-0.3,0.4-0.6,0.8-0.9,1.2c-0.3,0.4-0.7,0.9-1.1,1.3c-0.4,0.4-0.8,0.9-1.2,1.2c-0.2,0.2-0.4,0.4-0.6,0.6
			C251.3,249.9,251.1,250.1,250.9,250.2z M261,241.9c0.2-0.1,0.5-0.1,0.8-0.2c0.3-0.1,0.6-0.1,0.9-0.2c0.6-0.1,1.3-0.2,1.9-0.3
			c0.7-0.1,1.3-0.1,1.9-0.1c0.3,0,0.6,0,0.9,0c0.3,0,0.5,0,0.8,0.1c1,0.1,1.6,0.3,1.6,0.3s-0.7,0.1-1.6,0.2c-0.2,0-0.5,0.1-0.8,0.1
			c-0.3,0-0.6,0.1-0.9,0.1c-0.3,0-0.6,0.1-0.9,0.1c-0.3,0-0.6,0.1-1,0.1c-0.3,0-0.6,0.1-1,0.1c-0.3,0-0.6,0-0.9,0.1
			c-0.6,0.1-1.2,0.1-1.7,0.1c-0.5,0-0.9,0-1.2,0c-0.3,0-0.5,0-0.5,0S260,242.2,261,241.9z M257.6,253.2c-0.1,0.2-0.1,0.4-0.1,0.4
			s0-0.1,0-0.4c0-0.3,0-0.6,0-1c0-0.9,0-2-0.1-3.1c0-0.6,0-1.1-0.1-1.6c0-0.5-0.1-1-0.1-1.4c-0.1-0.9-0.1-1.4-0.1-1.4
			s0.3,0.5,0.6,1.3c0.1,0.4,0.3,0.9,0.3,1.5c0.1,0.5,0.1,1.1,0.2,1.7c0,0.6,0,1.2-0.1,1.7c-0.1,0.5-0.1,1-0.2,1.5
			C257.8,252.6,257.7,253,257.6,253.2z M263.2,249.7c-0.3-0.3-0.6-0.6-1-1c-0.3-0.4-0.7-0.7-1-1.1c-0.2-0.2-0.3-0.4-0.5-0.6
			c-0.2-0.2-0.3-0.4-0.5-0.6c-0.3-0.4-0.6-0.7-0.9-1c-0.1-0.2-0.2-0.3-0.3-0.4c-0.1-0.1-0.2-0.2-0.3-0.3c-0.2-0.2-0.2-0.3-0.2-0.3
			s0.1,0,0.4,0.1c0.1,0,0.2,0.1,0.4,0.2c0.1,0.1,0.3,0.2,0.5,0.3c0.2,0.1,0.4,0.2,0.5,0.4c0.2,0.1,0.4,0.3,0.6,0.5
			c0.4,0.3,0.7,0.7,1.1,1.1c0.4,0.4,0.7,0.8,1,1.2c0.3,0.4,0.6,0.8,0.8,1.1c0.4,0.7,0.6,1.2,0.6,1.2S263.8,250.3,263.2,249.7z"/>
	</g>
	<g>
		<path fill="#944836" d="M299.2,207.4c-0.2-0.2-0.4-0.5-0.7-0.7c-0.3-0.3-0.6-0.5-1-0.8c-0.2-0.2-0.4-0.3-0.6-0.5
			c-0.2-0.1-0.4-0.3-0.7-0.4c-0.2-0.1-0.5-0.3-0.7-0.4c-0.2-0.2-0.5-0.2-0.8-0.4c-0.3-0.1-0.6-0.2-0.8-0.3c-0.3-0.1-0.6-0.2-0.9-0.3
			c-0.3-0.1-0.6-0.2-0.9-0.2l-0.9-0.1c-0.6-0.1-1.3-0.1-1.9-0.1c-0.6,0-1.2,0.1-1.8,0.1c-0.6,0.1-1.2,0.2-1.7,0.3
			c-0.3,0.1-0.6,0.2-0.9,0.3c0.4-0.3,0.9-0.6,1.4-0.9c0.5-0.4,1-0.8,1.5-1.2c0.5-0.5,1-0.9,1.5-1.5c0.2-0.3,0.5-0.5,0.7-0.8l0.7-0.9
			c0.4-0.6,0.8-1.2,1.2-1.8l0.3-0.5l0.2-0.5c0.1-0.3,0.3-0.6,0.4-1c0.1-0.2,0.1-0.3,0.2-0.5c0.1-0.2,0.1-0.3,0.2-0.5
			c0.1-0.3,0.2-0.6,0.3-0.9c0.2-0.6,0.3-1.2,0.4-1.7c0.1-0.5,0.2-1,0.2-1.5c0-0.4,0-0.8,0-1.1c0-0.6,0-1,0-1s-0.4,0-1,0.1
			c-0.3,0-0.7,0.1-1.2,0.1c-0.5,0-0.9,0.2-1.5,0.3c-0.5,0.2-1.1,0.2-1.7,0.5c-0.6,0.3-1.2,0.5-1.8,0.8c-0.3,0.2-0.6,0.4-0.9,0.6
			c-0.3,0.2-0.6,0.4-0.9,0.6c-0.6,0.5-1.2,0.9-1.7,1.5c-0.3,0.3-0.5,0.6-0.8,0.8c-0.2,0.3-0.4,0.6-0.7,0.9l-0.3,0.4l-0.3,0.5
			c-0.2,0.3-0.3,0.6-0.5,0.9c-0.3,0.6-0.6,1.3-0.8,1.9c-0.1,0.3-0.2,0.6-0.3,0.9c0-0.3,0-0.6,0-0.9c0-0.3,0-0.6-0.1-1
			c0-0.3-0.1-0.7-0.1-1c-0.1-0.3-0.1-0.7-0.2-1c-0.1-0.4-0.2-0.7-0.3-1.1l-0.2-0.5l-0.2-0.5c-0.1-0.3-0.3-0.7-0.4-1
			c-0.4-0.6-0.7-1.3-1.2-1.9c-0.2-0.3-0.4-0.6-0.7-0.9c-0.2-0.3-0.5-0.5-0.7-0.8c-0.5-0.5-1-0.9-1.5-1.3c-0.3-0.2-0.5-0.4-0.7-0.6
			c-0.3-0.2-0.5-0.3-0.7-0.5c-0.5-0.3-0.9-0.6-1.3-0.8c-0.4-0.2-0.8-0.3-1-0.5c-0.6-0.3-0.9-0.4-0.9-0.4s-0.2,0.3-0.5,0.9
			c-0.1,0.3-0.4,0.6-0.5,1c-0.1,0.4-0.3,0.9-0.5,1.4c-0.1,0.5-0.2,1.1-0.3,1.8c-0.1,0.6,0,1.3-0.1,2c0,0.3,0.1,0.7,0.1,1.1
			c0,0.4,0.1,0.7,0.2,1.1c0.2,0.7,0.3,1.4,0.6,2.1c0.2,0.7,0.5,1.4,0.8,2c0.1,0.3,0.3,0.6,0.5,1c0.2,0.3,0.3,0.6,0.5,0.9
			c0.4,0.6,0.7,1.1,1.1,1.6c0.3,0.5,0.7,1,1.1,1.4c0,0,0,0,0,0.1l0,0c-0.5-0.6-1-1.2-1.4-1.8c-0.6-0.7-1.2-1.5-2-2.2
			c-0.7-0.7-1.6-1.3-2.4-1.8c-0.9-0.5-1.8-0.8-2.8-1.2c-0.9-0.3-1.9-0.6-2.8-0.8c-1.9-0.4-3.8-0.7-5.8-1l-1-0.1l0.4,1
			c0.2,0.4,0.3,0.9,0.5,1.3c0.2,0.4,0.4,0.9,0.6,1.3c0.2,0.4,0.4,0.9,0.7,1.3c0.2,0.4,0.5,0.8,0.8,1.2c0.3,0.4,0.6,0.8,0.9,1.1
			c0.3,0.4,0.7,0.7,1,1l0.5,0.5l0.6,0.5c0.4,0.3,0.8,0.6,1.2,0.8c0.4,0.3,0.8,0.5,1.3,0.7c0.4,0.2,0.9,0.4,1.3,0.6
			c0.8,0.3,1.7,0.6,2.6,0.7c-0.2,0-0.5,0-0.7,0c-0.6,0-1.2,0-1.9,0.1c-0.6,0.1-1.3,0.2-2,0.3c-0.6,0.2-1.3,0.3-1.9,0.6
			c-0.6,0.2-1.2,0.5-1.8,0.8c-0.6,0.3-1.1,0.6-1.5,0.9c-0.5,0.4-0.9,0.7-1.2,1c-0.4,0.3-0.7,0.7-0.9,1c-0.3,0.3-0.5,0.6-0.6,0.8
			c-0.3,0.5-0.5,0.7-0.5,0.7s0.3,0.2,0.8,0.5c0.2,0.2,0.5,0.4,0.9,0.6c0.4,0.2,0.8,0.4,1.3,0.6c0.5,0.2,1,0.3,1.6,0.5
			c0.1,0,0.3,0.1,0.4,0.1c0.1,0,0.3,0.1,0.5,0.1c0.3,0.1,0.6,0.1,0.9,0.1c0.3,0.1,0.6,0.1,1,0.1c0.3,0,0.7,0,1,0
			c0.7-0.1,1.4-0.1,2-0.2l1-0.2c0.3-0.1,0.7-0.2,1-0.2c0.1,0,0.1,0,0.2,0c-0.5,0.3-0.9,0.6-1.4,0.9c-0.3,0.2-0.7,0.5-1,0.8
			c-0.3,0.3-0.6,0.5-0.9,0.8c-0.3,0.3-0.6,0.6-0.8,1c-0.3,0.3-0.5,0.7-0.7,1.1c-0.1,0.2-0.2,0.4-0.3,0.6c-0.1,0.2-0.2,0.4-0.2,0.6
			c-0.1,0.2-0.1,0.4-0.1,0.6c0,0.2-0.1,0.4-0.1,0.7c0,0.4,0,0.9,0.1,1.3c0.1,0.4,0.2,0.8,0.3,1.3l0.1,0.4l0.4,0
			c0.4,0,0.8,0.1,1.3,0.1c0.4,0,0.8,0,1.3,0c0.4,0,0.8-0.1,1.3-0.2c0.4-0.1,0.8-0.2,1.2-0.3c0.4-0.1,0.8-0.3,1.2-0.5
			c0.4-0.2,0.8-0.4,1.1-0.6c0.4-0.2,0.7-0.5,1-0.7c0.3-0.3,0.6-0.6,0.9-0.9c0.6-0.6,1.1-1.3,1.6-1.9c0.5-0.7,0.9-1.4,1.2-2.1
			c0.4-0.7,0.7-1.5,0.9-2.3c0.2-0.5,0.4-1,0.6-1.6c-0.2,0.5-0.4,1.2-0.6,2c-0.3,1.3-0.4,2.5-0.4,3.8c0,2.8,0.9,5.9,2.5,8.2
			c0.3,0.4,0.6,0.9,0.9,1.2c0.3,0.4,0.6,0.7,0.9,1c0.3,0.2,0.5,0.5,0.7,0.6c0.4,0.3,0.7,0.5,0.7,0.5s0.2-0.2,0.6-0.6
			c0.2-0.2,0.4-0.4,0.6-0.8c0.2-0.3,0.4-0.7,0.7-1.1c0.2-0.4,0.4-0.9,0.6-1.4c0.1-0.5,0.3-1.1,0.4-1.7c0-0.3,0.1-0.6,0.1-0.9
			c0-0.3,0-0.6,0-0.9c0-0.6,0-1.3,0-1.9c-0.1-0.6-0.1-1.2-0.3-1.9c-0.1-0.6-0.3-1.2-0.4-1.8c-0.2-0.6-0.3-1.1-0.5-1.6
			c-0.2-0.5-0.4-1-0.5-1.4c-0.3-0.7-0.5-1.3-0.7-1.7l0,0c0.2,0.5,0.6,1.1,1,1.8c0.2,0.4,0.5,0.9,0.8,1.3c0.3,0.5,0.7,0.9,1,1.4
			c0.4,0.5,0.8,0.9,1.3,1.4c0.5,0.4,1,0.9,1.5,1.3c0.3,0.2,0.5,0.4,0.8,0.5c0.3,0.2,0.6,0.4,0.8,0.5c0.6,0.3,1.1,0.6,1.7,0.8
			c0.3,0.1,0.6,0.2,0.8,0.4c0.3,0.1,0.5,0.2,0.8,0.3c0.5,0.2,1,0.4,1.5,0.5c0.6,0.2,1.1,0.3,1.5,0.4l0,0l0.1,0
			c0.2,0,0.5,0.1,0.7,0.1c0.6,0.1,0.9,0.2,0.9,0.2s0-0.2,0-0.4l0-1.3l0,0c0-0.1,0-0.1,0-0.2c-0.1-0.4-0.2-0.8-0.3-1.3
			c-0.1-0.2-0.1-0.5-0.2-0.8c-0.1-0.2-0.2-0.5-0.3-0.8c-0.1-0.3-0.2-0.5-0.3-0.8c-0.1-0.3-0.3-0.5-0.5-0.8c-0.2-0.3-0.3-0.6-0.5-0.8
			c-0.2-0.3-0.4-0.5-0.6-0.8c-0.4-0.5-0.9-1-1.3-1.5c-0.5-0.5-1-0.9-1.5-1.3c-0.5-0.4-1.1-0.8-1.6-1.1c-0.4-0.2-0.7-0.4-1.1-0.6
			c0.2,0,0.3,0.1,0.5,0.1c0.5,0.1,1.1,0.2,1.7,0.2c0.6,0.1,1.2,0.1,1.8,0.1c0.6,0,1.2-0.1,1.8-0.1c0.6-0.1,1.1-0.2,1.7-0.3
			c0.5-0.1,1.1-0.3,1.5-0.5c0.5-0.2,0.9-0.4,1.3-0.6c0.4-0.2,0.7-0.5,1-0.7c0.3-0.2,0.5-0.4,0.7-0.6c0.4-0.3,0.6-0.5,0.6-0.5
			S299.6,207.8,299.2,207.4z M265.1,200.8c0,0,0.7,0.1,1.8,0.4c0.3,0.1,0.6,0.1,0.8,0.3c0.3,0.1,0.6,0.2,0.9,0.3
			c0.3,0.1,0.7,0.2,1,0.4c0.3,0.2,0.6,0.3,1,0.5c0.7,0.3,1.3,0.7,1.8,1.1c0.3,0.2,0.6,0.4,0.8,0.6c0.3,0.2,0.5,0.4,0.7,0.5
			c0.9,0.7,1.3,1.3,1.3,1.3s-0.2-0.1-0.5-0.2c-0.3-0.1-0.7-0.3-1.2-0.5c-0.5-0.2-1.1-0.5-1.7-0.8c-0.3-0.1-0.6-0.3-0.9-0.5
			c-0.3-0.2-0.6-0.3-0.9-0.5c-0.6-0.3-1.3-0.7-1.9-1c-0.6-0.3-1.1-0.6-1.6-0.9C265.8,201.3,265.1,200.8,265.1,200.8z M266.5,209.3
			c-0.3,0-0.5,0.1-0.7,0.1c-0.2,0-0.4,0.1-0.5,0.1c-0.3,0.1-0.5,0.1-0.5,0.1s0.1-0.1,0.4-0.3c0.3-0.2,0.7-0.4,1.1-0.6
			c1-0.4,2.3-0.7,3.7-1c0.7-0.1,1.4-0.2,2-0.2c0.6,0,1.2-0.1,1.8-0.1c1,0,1.7,0.1,1.7,0.1s-0.7,0.3-1.7,0.5
			c-0.5,0.1-1.1,0.3-1.7,0.4c-0.6,0.1-1.3,0.3-2,0.4c-0.7,0.1-1.3,0.2-2,0.3C267.6,209.2,267,209.3,266.5,209.3z M276,209
			c-0.2,0.3-0.5,0.7-0.8,1.1c-0.4,0.4-0.8,1-1.3,1.5c-0.2,0.3-0.5,0.5-0.7,0.8c-0.3,0.3-0.5,0.5-0.8,0.8c-0.3,0.3-0.5,0.5-0.8,0.8
			c-0.3,0.3-0.5,0.5-0.8,0.8c-0.5,0.5-1,1-1.4,1.3c-0.8,0.8-1.5,1.2-1.5,1.2s0.4-0.7,1-1.6c0.3-0.5,0.7-1,1.2-1.6
			c0.5-0.6,1-1.1,1.5-1.7c0.5-0.5,1.1-1.1,1.6-1.6c0.5-0.5,1.1-0.9,1.5-1.2c0.9-0.7,1.6-1.1,1.6-1.1S276.2,208.8,276,209z
			 M277.1,203.9c-0.1-0.4-0.3-0.9-0.6-1.5c-0.2-0.6-0.5-1.3-0.8-2.1c-0.1-0.4-0.3-0.8-0.4-1.2c-0.1-0.4-0.3-0.8-0.4-1.2
			c-0.2-0.4-0.3-0.8-0.4-1.2c-0.2-0.4-0.3-0.8-0.4-1.2c-0.2-0.4-0.3-0.7-0.4-1.1c-0.1-0.4-0.3-0.7-0.4-1c-0.5-1.2-0.8-2-0.8-2
			s0.6,0.7,1.4,1.8c0.2,0.3,0.4,0.6,0.5,0.9c0.2,0.3,0.4,0.7,0.6,1.1c0.2,0.4,0.4,0.8,0.5,1.2c0.2,0.4,0.3,0.8,0.5,1.2
			c0.3,0.9,0.6,1.7,0.7,2.5c0.2,0.8,0.4,1.6,0.4,2.2c0.2,1.3,0.2,2.2,0.2,2.2S277.3,204.3,277.1,203.9z M279.3,218.7
			c0,1.1-0.1,1.8-0.1,1.8s-0.3-0.7-0.5-1.8c-0.1-0.5-0.3-1.2-0.3-1.8c-0.1-0.7-0.2-1.4-0.2-2.1c-0.1-0.7-0.1-1.4-0.1-2.1
			c0-0.7,0-1.3,0-1.9c0.1-1.1,0.2-1.8,0.2-1.8c0,0,0.2,0.7,0.4,1.8c0.1,0.5,0.2,1.2,0.3,1.8c0.1,0.7,0.2,1.4,0.2,2.1
			c0.1,0.7,0.1,1.4,0.1,2.1c0,0.3,0,0.7,0,1C279.3,218.1,279.3,218.4,279.3,218.7z M280.6,202.6c0.1-0.3,0.3-0.6,0.5-0.9
			c0.2-0.3,0.4-0.6,0.6-0.9c0.4-0.6,0.9-1.3,1.4-1.9c0.5-0.6,1-1.3,1.6-1.8c0.3-0.3,0.5-0.5,0.8-0.8c0.2-0.2,0.5-0.5,0.7-0.7
			c0.9-0.8,1.6-1.2,1.6-1.2s-0.4,0.7-1.2,1.7c-0.2,0.2-0.4,0.5-0.6,0.8c-0.2,0.3-0.4,0.6-0.7,0.9c-0.2,0.3-0.5,0.6-0.7,0.9
			c-0.2,0.3-0.5,0.6-0.7,0.9c-0.3,0.3-0.5,0.6-0.7,0.9c-0.2,0.3-0.5,0.6-0.7,0.9c-0.5,0.6-0.9,1.1-1.3,1.6c-0.4,0.5-0.7,0.8-1,1.1
			c-0.2,0.3-0.4,0.4-0.4,0.4S280,203.7,280.6,202.6z M287.7,215.3c0.1,0.3,0.2,0.4,0.2,0.4s-0.1-0.1-0.4-0.3
			c-0.2-0.2-0.6-0.5-0.9-0.9c-0.8-0.7-1.8-1.7-2.8-2.6c-0.5-0.5-1-0.9-1.5-1.4c-0.5-0.4-1-0.8-1.4-1.2c-0.8-0.7-1.4-1.2-1.4-1.2
			s0.7,0.2,1.7,0.7c0.5,0.2,1,0.6,1.6,0.9c0.6,0.4,1.1,0.8,1.7,1.3c0.5,0.5,1,1,1.5,1.5c0.4,0.5,0.8,1,1.1,1.5
			C287.4,214.6,287.6,215,287.7,215.3z M289.4,207.3c-0.5,0-1.1,0-1.7,0c-0.6,0-1.3,0-1.9,0c-0.3,0-0.6,0-1,0
			c-0.3,0-0.6-0.1-0.9-0.1c-0.6,0-1.2-0.1-1.6-0.1c-0.2,0-0.5,0-0.7,0c-0.2,0-0.4,0-0.5,0c-0.3,0-0.5,0-0.5,0s0.1-0.1,0.4-0.2
			c0.1-0.1,0.3-0.1,0.5-0.2c0.2-0.1,0.4-0.1,0.7-0.2c0.2-0.1,0.5-0.1,0.8-0.1c0.3,0,0.6-0.1,0.9-0.1c0.6,0,1.3,0,1.9,0
			c0.7,0,1.3,0.1,1.9,0.2c0.6,0.1,1.2,0.2,1.7,0.3c1,0.2,1.6,0.5,1.6,0.5S290.4,207.3,289.4,207.3z"/>
	</g>
</g>
<path fill="#944836" d="M166.5,51.7c-0.1,0-0.2-0.1-0.3-0.1c-0.1-0.1-0.2-0.2-0.2-0.3c0-0.1,0.2-0.2,0.3-0.2
	c0.5-0.1,1.1-0.2,1.6-0.2c2-0.2,3.9-0.4,5.9-0.6c0.6-0.1,1.2,0,1.9,0c0,0.1,0,0.2,0,0.3c-0.4,1.1-0.8,2.3-1.2,3.4
	c-0.2,0.6-0.3,0.7-0.9,0.4c-1.2-0.4-2.3-0.8-3.5-1.3C168.9,52.6,167.7,52.2,166.5,51.7z M139.2,58.5c0.3-0.7,0.2-0.9-0.6-1
	c-1.1-0.1-2,0.4-2.8,1c-0.5,0.3-0.7,0.8-0.8,1.3c-0.1,0.8-0.2,1.7-0.3,2.5c0,0,0,0,0,0c0,0.2,0,0.4,0,0.7c0,0.5,0.3,0.8,0.7,0.8
	c0.9,0.1,1.8,0.1,2.6,0.1c0.6,0,0.8-0.3,0.7-0.9c-0.1-0.4-0.2-0.7-0.3-1.1c-0.2-0.6-0.2-1.2,0-1.8C138.7,59.6,139,59,139.2,58.5z
	 M157.9,54.2c0,0,1,0.1,1.5,0.1c0.4,0,1.2-0.6,1.3-0.7s0.4-1.3-0.4-2.6c-0.8-1.1-2.4-0.4-2.7-0.2c0.2,0.3,0.3,0.6,0.4,0.9
	C158.2,52.6,158.2,53.5,157.9,54.2L157.9,54.2z M170.3,63.1c-0.1,0.5,0.1,0.8,0.7,0.9c0.1,0,0.3,0,0.4,0c0.6,0,1.3-0.1,1.9-0.1
	c0.8,0,1.1-0.4,1.1-1.1c0-0.7-0.1-1.3-0.1-2c0-0.9-0.1-1.7-0.9-2.3c-0.6-0.4-1.3-0.8-2.1-0.9c-0.3,0-0.7,0-1,0
	c-0.4,0.1-0.5,0.2-0.4,0.6c0.1,0.4,0.2,0.8,0.4,1.1c0.5,0.9,0.5,1.8,0.3,2.7C170.4,62.4,170.3,62.7,170.3,63.1z M170.7,107.5l-1.5,0
	l-0.3,0c-0.7,0.1-1.4,0.2-2.1,0.3c0,0-0.1,0.1-0.1,0.1c-0.1,0.2-0.1,0.4-0.1,0.6c0,0.6,0.1,1.2,0.2,2c0.1,0.5,0.4,0.8,0.8,0.8h0
	c0.8,0,1.5,0,2.3-0.1l1,0l0.1-0.3c0-0.4,0.1-0.8,0-1.2c0-0.4-0.1-0.8-0.1-1.2C170.8,108.1,170.8,107.8,170.7,107.5
	C170.7,107.5,170.7,107.5,170.7,107.5z M175,107.1c-0.1,0-0.2,0-0.3,0l-0.7,0l-0.2,0c-0.5,0.1-1,0.1-1.4,0.2
	c-0.5,0.1-0.5,0.1-0.5,0.6c0,0.1,0,0.2,0,0.3l0.1,0.6c0,0.3,0.1,0.6,0.1,0.9c0,0.1,0,0.3,0,0.4c0,0.1,0,0.2,0,0.3
	c0,0.3,0.1,0.3,0.4,0.3c0.2,0,0.4,0,0.6,0.1c0.1,0,0.3,0,0.4,0.1l0.2,0c0.6,0.1,1.2,0.1,1.7,0.2l0.1,0c0.6,0,0.7-0.5,0.8-0.8
	c0-0.9,0-1.6-0.2-2.3C176,107.7,175.8,107,175,107.1z M179.1,105.5c0.4,0,0.8,0,1.2,0l0.5,0c0-0.7,0-1.3-0.3-1.9
	c-0.6-1.1-1.3-1.8-2.3-2.2c-0.1,0-0.1-0.1-0.2-0.1c-0.3,0.2-0.6,0.2-0.7,0.2l-0.4,0c-0.5,0-1,0-1.5,0c-1.2,0-2.4,0-3.6,0
	c-1.7,0.1-3.5,0.2-5.2,0.3c-0.7,0.1-1.5,0.1-2.2,0.2c-0.5,0-1.1,0.6-1.2,1c-0.2,0.8-0.3,1.6-0.4,2.4l-0.1,0.5c0.1,0,0.1,0,0.2,0
	l2.1-0.1c0.9,0,1.8-0.1,2.7-0.1c2.2,0,4.3-0.1,6.5-0.1l0.5,0c0.8,0,1.5,0,2.3,0C177.6,105.5,178.3,105.5,179.1,105.5z M154.8,56.5
	c-0.3,0-0.6,0.1-0.8,0.5c-0.1,0.2-0.2,0.5-0.3,0.7c-0.3,0.5-0.5,1.1-0.7,1.6c-0.1,0.3-0.1,0.3,0.2,0.5c0.1,0,0.1,0.1,0.2,0.1
	c0.6,0.1,1.1,0.2,1.7,0.3c0.4-0.1,0.9-0.2,1.3-0.3c0.4-0.1,0.4-0.2,0.2-0.6c-0.5-0.9-1-1.8-1.5-2.7C155,56.6,154.9,56.5,154.8,56.5z
	 M132.6,55.9c1.5-0.5,3.1-0.6,4.7-0.8l0.3,0c1.2-0.1,2.4-0.5,3.7-1.1c0.5-0.2,0.9-0.5,1.3-0.8c0.1-0.1,0.3-0.2,0.5-0.3
	c0,0,0.1-0.1,0.1-0.1c0,0,0.1-0.1,0.1-0.1c0,0,0.1,0.1,0.1,0.1c0,0.1,0,0.1,0,0.2c-0.3,0.4-0.6,0.8-1,1.1c-0.6,0.5-1.2,0.9-1.9,1.1
	c-0.4,0.1-0.8,0.3-1.2,0.5c-0.3,0.1-0.6,0.3-0.9,0.4c-0.6,0.2-1.2,0.4-1.8,0.6c-0.2,0.1-0.5,0.1-0.7,0.1c-0.2,0-0.4,0.1-0.6,0.1
	l-0.2,0c-0.4,0.1-0.7,0.1-1.1,0.3c-0.5,0.2-0.9,0.7-1.1,1.3c-0.2,0.7-0.3,1.5-0.4,2.5c0,1.2,0,2.4,0,3.4c0,0.6,0.4,1,1,1.2
	c0.8,0.2,1.4,0.3,2,0.4l0.1,0c0.4,0,0.9,0,1.3,0c0.9,0,1.6-0.1,2.3-0.2c0,0,0.1,0,0.1,0l0.2,0c1.2,0.1,2.4,0.1,3.6,0.2l1.6,0.1
	c0.9,0,1.9,0.1,2.8,0.1c0.3,0,0.6,0,0.9,0l1.3,0c0.6,0,1.2,0,1.7-0.1c0.5,0,1,0,1.6,0c0.3,0,0.6,0,0.8,0.1l0.2,0c0,0,1.1,0,1,0
	c0,0,0.3,0,0.4,0c0.3,0,0.5,0,0.8,0l0.7,0l0.3,0c0.2,0,0.3,0,0.5,0c0.2,0,0.3,0,0.5,0h0.1c0.4,0,0.7,0,1.1,0.1
	c0.5,0,1.1,0.1,1.6,0.1h0.1c0.8,0,1.6,0,2.4-0.1c0.4,0,0.7,0,1.1-0.1c0.1,0,0.3,0,0.4,0l1.2-0.1c1.2-0.1,2.4-0.1,3.7-0.1
	c0.2,0,0.5,0,0.7,0.1c0.2,0,0.4,0.1,0.7,0.1l0.3,0c0.5,0,1,0,1.5,0c0.9,0,1.6-0.1,2.3-0.2c0.3-0.1,0.7-0.2,1-0.5
	c0.3-0.3,0.4-0.7,0.4-1.1c0-0.2,0-0.5,0-0.7c0-0.3,0-0.6,0-0.8c0-0.9,0-2-0.1-3.1c-0.1-0.5-0.2-1-0.5-1.6c-0.3-0.7-1-1.1-2-1.2
	c-1.7-0.1-3.3-0.8-4.9-1.4c-0.1,0-0.2-0.1-0.3-0.1c-0.2-0.1-0.3-0.1-0.5-0.2c-1-0.4-1.9-1-2.6-2c0-0.1-0.1-0.1-0.1-0.1
	c0-0.1,0.1-0.2,0.1-0.3c0,0,0.1,0,0.1,0c1.3,1.3,3,1.8,4.5,2.2c0.9,0.2,1.9,0.3,2.7,0.4c1.4,0.1,2.8,0.5,4.1,0.9
	c0.8,0.2,1.5,0.5,2.1,0.9c0.8,0.5,1.2,1.1,1.4,1.7c0.1,0.5,0.2,1,0.2,1.7c0,1.3,0,2.3,0,3.2c0,0.7-0.1,1.4-0.3,2.1l0,0.1
	c-0.1,0.5-0.3,0.8-0.7,0.9c-0.7,0.3-1.2,0.4-1.8,0.3l-1.4-0.1c-1.8-0.2-3.6-0.3-5.4-0.4c-0.2,0-0.5,0-0.7,0c-0.9,0-2.1,0-3.3,0.4
	l-0.3,0.1c-0.5,0.1-1,0.3-1.5,0.5c-0.4,0.1-0.8,0.5-0.9,0.9l-0.5,1.5c-0.4,1.2-0.8,2.3-1.2,3.5c-0.2,0.5-0.3,1.1-0.4,1.7
	c-0.2,1.4-0.4,2.8-0.5,4.3l-0.3,2.3c0,0.4,0,0.4-0.4,0.4c-0.8,0-1.6,0-2.4-0.1c-0.7,0-1.5,0-2.2-0.1c-0.8,0-1.6,0-2.4,0l-1.3,0
	c-0.1,0-0.1,0-0.2,0c0,0-0.1,0-0.1,0l-1.1,0c-1,0-2,0-2.9,0h-0.1c0,0,0,0,0,0c-0.5,0-0.5,0-0.6-0.5c-0.2-1.5-0.4-3-0.5-4.4
	c0-0.3-0.1-0.6-0.1-0.9c-0.1-0.6-0.1-1.2-0.2-1.8c-0.2-0.8-0.5-1.7-0.8-2.4l-0.1-0.3c-0.2-0.6-0.4-1.1-0.6-1.7
	c-0.2-0.5-0.4-1-0.6-1.5c-0.2-0.5-0.5-0.8-1-1l-0.2-0.1c-1.1-0.3-2.2-0.7-3.4-0.7l-0.6,0c-0.7,0-1.5-0.1-2.2-0.1
	c-0.9,0-1.6,0-2.3,0.1c-1.4,0.2-2.7,0.3-4.1,0.4c-0.7,0-1.4-0.2-2-0.6c-0.1-0.1-0.2-0.3-0.3-0.6c-0.2-0.7-0.3-1.5-0.3-2.3
	c0-0.3,0-0.7,0-1c0-0.8,0-1.6,0-2.4c0-0.5,0.1-1.1,0.3-1.8c0.1-0.5,0.5-0.9,1-1.3C130.4,56.6,131.5,56.2,132.6,55.9z M159.3,80.3
	l0.1,0l0-0.1c0-0.1,0.1-0.1,0.1-0.2c0.1-0.1,0.1-0.3,0.2-0.5c0.1-1.1,0.2-2.1,0.3-3.2c0.1-0.6,0.1-1.1,0.2-1.7
	c0.1-0.9,0.2-1.9,0.3-2.8l0.3-2.3c0-0.3,0.1-0.7-0.4-1l-0.1,0l-0.1,0c-0.4,0.2-0.4,0.5-0.4,0.8c0,0.1,0,0.1,0,0.2
	c-0.1,0.7-0.2,1.3-0.2,2c0,0.3-0.1,0.6-0.1,0.9c-0.1,0.6-0.1,1.2-0.2,1.7c-0.1,0.8-0.2,1.6-0.3,2.4c-0.1,0.7-0.2,1.5-0.2,2.2
	l-0.1,0.6C158.8,79.6,158.7,80,159.3,80.3z M155.7,79.8c0,0.2,0,0.6,0.3,0.8l0,0l0,0c0.5,0,0.5-0.4,0.5-0.6c0-0.6,0.1-1.2,0.1-1.8
	c0-0.2,0-0.4,0-0.6c0-0.3,0-0.6,0-0.9c0.1-1.2,0.1-2.5,0.2-3.7c0-0.6,0.1-1.2,0.1-1.8c0-0.8,0.1-1.6,0.1-2.3c0-0.3,0-0.7-0.4-0.9
	l-0.1,0l-0.1,0c-0.4,0.2-0.4,0.5-0.4,0.7c0,0.9-0.1,1.9-0.1,2.8c0,0.7-0.1,1.4-0.1,2.2l-0.1,1.7c0,0.3,0,0.6,0,0.9l-0.1,1.4
	C155.8,78.3,155.8,79.1,155.7,79.8z M152.4,68.8c0.1,1.2,0.1,2.4,0.2,3.5c0,0.6,0.1,1.2,0.1,1.8c0,0.7,0.1,1.3,0.1,2
	c0,0.8,0.1,1.5,0.1,2.3c0,0.5,0,1.1,0.1,1.6c0,0.2,0,0.6,0.4,0.7l0,0c0.4,0,0.4-0.4,0.4-0.5c0,0,0-0.1,0-0.1c0-0.1,0-0.2,0-0.3
	c0-0.4,0-0.7-0.1-1.1c0-0.4,0-0.9-0.1-1.3c-0.1-1.8-0.2-3.6-0.3-5.4c0-0.7-0.1-1.5-0.1-2.2l0-1c0-0.3,0-0.6-0.5-0.8l-0.1,0l-0.1,0
	C152.4,68.2,152.4,68.5,152.4,68.8z M148.8,69.5L148.8,69.5c0.1,0.7,0.1,1.3,0.2,2l0.2,2.3c0.2,1.9,0.4,3.7,0.6,5.6l0,0
	c0,0.3,0.1,0.6,0.4,0.8l0.1,0l0.1-0.1c0.3-0.3,0.4-0.4,0.4-0.7c0-0.3-0.1-0.6-0.1-0.9l-0.2-2.1c-0.1-0.8-0.2-1.7-0.3-2.5
	c-0.1-0.6-0.1-1.1-0.2-1.6c-0.1-1-0.2-2-0.3-3c0-0.2-0.1-0.3-0.1-0.5c0-0.1-0.1-0.1-0.1-0.2l0-0.1l-0.1,0.1
	C148.7,68.8,148.8,69.2,148.8,69.5z M153.4,80.5L153.4,80.5L153.4,80.5L153.4,80.5z M135.5,54.4c0.1,0,0.1,0,0.2-0.1
	c2.3-0.9,4.6-1.7,6.9-2.6c0.3-0.1,0.7-0.1,0.6-0.5c-0.1-0.3-0.4-0.2-0.7-0.3c-1-0.1-2-0.2-3-0.3c-1.8-0.2-3.6-0.4-5.4-0.5
	c-0.2,0-0.4,0-0.6,0.1c0.2,0.8,0.5,1.5,0.7,2.2c0.2,0.5,0.4,1.1,0.6,1.6C134.9,54.5,135,54.5,135.5,54.4z M146.4,112.4
	c-0.2,0-0.3,0-0.5,0c-0.2,0-0.5,0-0.7,0c-3.2,0-6.5,0-9.8-0.2c-0.7,0-1.4-0.1-2.3-0.1c-0.6,0-1.2,0-1.7,0c-0.6,0-1.2,0-1.7,0h-0.5
	c-0.5,0-1,0.1-1.5,0.4c-0.2,0.1-0.3,0.2-0.3,0.4v0.2c0,0.5,0,0.9,0,1.4c0,0.1,0,0.2,0,0.2c0,0,0,0,0,0c0,0,0.1,0,0.2,0
	c2.5,0.1,5,0.2,7.5,0.3c0.8,0,1.6,0.1,2.3,0.1c1,0,1.9,0.1,2.9,0.1c2,0.1,3.9,0.1,5.9,0.2l0.3,0
	C146.6,114.4,146.5,113.4,146.4,112.4C146.5,112.4,146.5,112.4,146.4,112.4z M142.2,60.6c-0.4-0.4-0.8-0.7-1.3-1
	c-0.2-0.2-0.4-0.3-0.7-0.3c-0.3-0.1-0.6,0.1-0.7,0.4c-0.1,0.3,0,0.5,0.3,0.7c0.6,0.4,1.2,0.8,1.7,1.3c0.4,0.4,0.9,0.5,1.5,0.6
	c2.3,0.2,4.6,0.5,6.9,0.8c1.9,0.2,3.7,0.6,5.6,0.5c0.1,0,0.2,0,0.3,0c2-0.2,4.1-0.5,6.1-0.7c1.4-0.2,2.9-0.4,4.3-0.5
	c0.6-0.1,1.1-0.3,1.6-0.7c0.5-0.4,1-0.8,1.5-1.2c0.4-0.3,0.6-0.5,0.4-0.8c-0.2-0.3-0.5-0.4-0.9-0.2c-0.1,0-0.3,0.1-0.4,0.2
	c-0.3,0.2-0.6,0.5-0.9,0.7c-0.5,0.5-1.1,0.8-1.9,0.7c-0.7-0.1-1.3-0.1-2-0.1c-1.6,0-3.2-0.1-4.8-0.1c-3.1,0-6.2,0-9.3,0.1
	c-2.2,0-4.3,0-6.5,0.1C142.7,61,142.4,60.9,142.2,60.6z M151.6,50.8c-0.4-0.2-2-0.8-2.7,0.3c-0.8,1.2-0.5,2.5-0.3,2.6
	c0.2,0.1,0.9,0.7,1.4,0.7c0.4,0,1.4-0.2,1.4-0.2l0-0.1c-0.3-0.7-0.3-1.5-0.1-2.3C151.3,51.4,151.4,51.1,151.6,50.8z M156.8,50.8
	c-0.1-0.8-0.3-1.6-0.3-2.5c-0.1-1.8-0.2-2.4-0.3-4.3c0-0.4-0.1-0.8-0.1-1.3c0-0.7-0.3-1.9-1.3-2.1c0,0,0,0-0.1,0c0,0,0,0,0,0
	c0,0,0,0-0.1,0c0,0,0,0,0,0c0,0,0,0,0,0c0,0,0,0,0,0c0,0,0,0,0,0c0,0,0,0,0,0c0,0,0,0,0,0c0,0,0,0,0,0c0,0,0,0,0,0c0,0,0,0-0.1,0
	c0,0,0,0,0,0c0,0,0,0-0.1,0c-1,0.2-1.3,1.4-1.3,2.1c0,0.4,0,0.8-0.1,1.3c-0.1,1.8-0.2,2.4-0.3,4.3c0,0.8-0.2,1.6-0.3,2.5
	c-0.1,0.7-0.3,1.5-0.3,2.2c0,1.4,1,2.5,2.4,2.7c0,0,0.1,0,0.2,0c0.1,0,0.2,0,0.2,0c1.3-0.2,2.4-1.3,2.4-2.7
	C157.1,52.3,156.9,51.5,156.8,50.8z M178,110.8C178,110.8,178.1,110.8,178,110.8c0.8,0.1,1.6,0,2.5,0c0,0,0.1,0,0.1,0
	c0.6-1.1,0.7-2.1,0.3-3.1c-0.1-0.3-0.3-0.4-0.6-0.4c-0.2,0-0.4-0.1-0.6-0.1c-0.6-0.3-1.3-0.1-2,0.2l-0.1,0c0,0.2,0,0.3,0,0.5
	c0,0.5,0,1,0,1.5C177.7,109.8,177.9,110.3,178,110.8z M140.9,107.5c-0.4,0-0.7,0-1.1,0l-1.1,0c0,0,0,0,0,0c0,0.3,0,0.6-0.1,0.9
	c-0.2,0.8-0.2,1.7-0.1,2.5c0,0.1,0,0.1,0,0.2c0,0,0,0,0,0c0,0,0.1,0,0.1,0c0.5,0,1,0,1.5,0c0.2,0,0.5,0,0.7,0.1c0.3,0,0.7,0.1,1,0.1
	h0c0.3,0,0.7-0.3,0.8-0.7c0.2-0.6,0.2-1.2,0.2-1.9l0-0.2c0-0.2,0-0.4-0.1-0.6c0,0-0.1-0.1-0.1-0.1
	C142.1,107.6,141.5,107.5,140.9,107.5z M142.5,39.2c-0.6-0.4-1.3-0.6-2-0.3c-0.2,0.1-0.5,0.2-0.8,0.2c-0.9,0.3-1.6,0.8-1.9,1.6
	c-0.2,0.5-0.3,1.1-0.3,1.7c0,0.3,0.1,0.6,0.2,0.9c0.2,0.4,0.5,0.7,0.8,1c0.4,0.4,0.9,0.6,1.4,0.6c0.5,0,1.1-0.1,1.6-0.3
	c1.3-0.4,1.9-1.3,1.9-2.7c0.1-0.6-0.2-1.3-0.5-2C142.9,39.6,142.7,39.4,142.5,39.2z M181.2,75c0-0.2,0-0.4-0.1-0.6
	c0-0.5-0.1-0.9-0.3-1.4c-0.1-0.2-0.2-0.4-0.3-0.6c-0.2-0.3-0.3-0.6-0.4-0.9c-0.3-0.9-1-1.5-2.2-1.8c-1.8-0.5-3.6-0.8-5.4-0.7
	c-0.4,0-0.9,0.1-1.3,0c-1.1-0.1-2.2,0-3.5,0.2l-0.1,0c-0.3,0-0.6,0.1-0.7,0.2c-0.3,0.3-0.6,0.7-0.8,1.1c-0.3,0.7-0.6,1.5-0.8,2.2
	c-0.1,0.3-0.2,0.7-0.4,1l-0.1,0.3c-0.3,0.8-0.6,1.6-0.6,2.4c0,0.4,0,0.9-0.1,1.3l0,0.4c-0.1,1.5-0.3,3.1-0.4,4.6
	c0.1,0,0.2,0.1,0.2,0.1c0.7,0.3,0.9,0.7,0.9,1.5l-0.1,1.4c-0.1,1.1-0.2,2.3-0.3,3.4c-0.1,0.8-0.1,1.7-0.1,2.5l0,0.6l0.1,0
	c0.4,0,0.8,0.1,1.2,0.1c0.5,0.1,0.8-0.2,1-0.7l0.1-0.2c0.2-0.7,0.4-1.4,0.5-2.2c0.1-1.1,0.2-2.3,0.3-3.3c0.1-0.4,0.1-0.8,0.2-1.3
	l0.6-4.9c0.2-1.4,0.5-2.7,0.9-3.9l0.2-0.6c0.2-0.7,0.7-1.2,1.4-1.5c0.2-0.1,0.4-0.1,0.6-0.1c0.3,0,0.6,0.2,0.8,0.5l0.1,0.2l-0.1,0.2
	c0,0.1-0.1,0.2-0.1,0.3c-0.1,0.1-0.1,0.2-0.2,0.3c-0.9,0.6-1.1,1.8-1.1,2.8c-0.1,1.1-0.4,2.2-0.5,3.4c-0.1,1.3-0.3,2.6-0.5,3.8
	c-0.1,0.7-0.2,1.4-0.4,2c-0.1,0.5-0.2,1-0.3,1.5l-0.2,1.2c-0.1,0.3-0.1,0.6-0.1,0.8c-0.1,0.5-0.2,1.1-0.3,1.6
	c-0.1,0.4-0.2,0.7-0.5,0.9l-2.1,0.2c-0.2,0-1.2,0.2-2.3,0.3l-0.4,6.3c2.2,0,4.4,0,6.6,0c1.3,0,2.5,0,3.8,0l1.8,0c0.1,0,0.2,0,0.3,0
	c0.1,0,0.2,0,0.2,0c0.7-0.1,1.5,0,2.2,0.1l0.1,0c0.2-0.1,0.3-0.1,0.4-0.2c0.1,0,0.3-0.1,0.4-0.1c0.2,0,0.3-0.1,0.5-0.2
	c0.5-0.2,0.6-0.4,0.6-0.9c0-0.6,0.1-1.1,0.1-1.6c0-0.3,0.1-0.7,0.1-1c0-0.2,0-0.4,0.1-0.6c0.1-0.5,0.1-0.9,0-1.4
	c-0.1-0.6,0-1.1,0.1-1.6c0.2-0.7,0.3-1.4,0.4-2.1c0.1-1.1,0.2-2.1,0.3-3.2c0,0,0.2-9.5,0.2-9.5c0,0,0-0.1,0.1-0.3
	C181.3,76.5,181.3,75.7,181.2,75z M181.4,112.6c-0.5-0.2-1-0.3-1.5-0.3c-3.7,0-7.3,0-10.8,0.2c-0.3,0-0.6,0-0.9,0l-1.9,0v-0.1
	l-3.5,0c-0.1,0-0.1,0-0.1,0c0,1-0.1,2-0.1,3l2.2-0.1c1.1,0,2.2-0.1,3.3-0.1c1.4,0,2.8-0.1,4.2-0.1c1.2,0,2.4-0.1,3.5-0.1
	c1,0,2-0.1,3-0.1c0.8,0,1.6,0,2.4-0.1l0.3,0c0.1,0,0.2,0,0.2,0c0-0.3,0-0.5,0-0.7c0-0.4,0-0.7,0-1.1
	C181.6,112.8,181.6,112.7,181.4,112.6z M171.4,41.4c0-0.7-0.4-1.2-0.9-1.7c-0.6-0.6-1.4-0.8-2.2-0.9c-0.8-0.2-1.9,0.1-2.2,1.2
	c-0.2,0.6-0.5,1.2-0.4,1.9c0.1,0.4,0.1,0.9,0.3,1.3c0.3,0.7,0.8,1.2,1.6,1.4c0.3,0.1,0.7,0.2,1,0.3c1,0.2,1.8-0.1,2.3-0.9
	c0.1-0.1,0.2-0.2,0.2-0.3c0.5-0.5,0.6-1.2,0.4-1.8C171.5,41.7,171.4,41.6,171.4,41.4z M199.4,24.3c0,0.1-0.1,0.2,0,0.3
	c0.1,1.2-0.3,2.1-1.1,2.9c-0.4,0.3-0.8,0.6-1.2,0.7c-0.6,0-1.1,0-1.7,0c-2.6,0-5.1-0.1-7.7-0.1c-1.8,0-0.6-0.1-2.4-0.1
	c-2.5-0.1-5-0.1-7.5-0.1c-1.1,0-2.2,0-3.3-0.1c-2,0-4.1,0-6.1-0.1c-2,0-3.9-0.1-5.9-0.1c-2.3,0-4.5-0.1-6.8-0.1
	c-2.5,0-4.9,0-7.4,0.1c-2,0-4.1,0.1-6.1,0.1c-3.2,0.1-6.5,0.1-9.7,0.1c-2.1,0-4.3,0.1-6.4,0.1c-2.2,0-1.3,0.1-3.5,0.1
	c-2.2,0-4.3,0.1-6.5,0.1c-1,0-1.9,0.1-2.9,0.1c-0.8,0-1.4-0.3-1.7-1c-0.5-0.9-1-1.8-1.4-2.8c-0.2-0.6-0.3-1.2-0.1-1.9
	c0.1-0.4,0.1-0.8,0.1-1.2c0-0.3,0.1-0.5,0.4-0.7c0.7-0.5,1.5-0.8,2.4-0.8c3.2,0,6.3,0,9.5-0.1c2.8,0,2.7,0,5.5,0c0.6,0,1.3,0,1.9,0
	c0.1-0.3,0.1-0.4,0.1-0.6c0.3-2.4,0.5-4.8,0.7-7.3c0-0.1,0-0.2,0-0.3c-0.1-1.1,0.5-2.1,1-3c0.4-0.7,1-1.3,1.9-1.5
	c0.1,0,0.3-0.1,0.4-0.2c0.4-0.3,0.8-0.4,1.2-0.4c0.7-0.1,1.3-0.2,2-0.2c2.3,0,4.6,0,6.9,0.1c2.6,0,5.1,0.1,7.7,0.1
	c1.4,0,2.9,0.1,4.3,0.1c2.8,0,5.6-0.1,8.3-0.1c2.9,0,5.9-0.1,8.8-0.1c1,0,2,0.1,2.8,0.5c1.7,0.7,2.6,1.7,2.6,3.5
	c0,1.2,0.2,2.4,0.3,3.5c0.2,1.7,0.3,3.4,0.5,5c0,0.2,0.1,0.5,0.1,0.8c0.8,0,1.4,0,2.1,0c3.9,0,4.8,0,8.7,0c2.3,0,4.7,0,7,0.1
	c0.4,0,0.9,0.1,1.2,0.4c0.3,0.3,0.5,0.8,0.7,1.2C199.6,22.3,199.5,23.3,199.4,24.3z M138.4,15.4C138.4,15.4,138.4,15.4,138.4,15.4
	c-0.1-0.3-0.1-0.5-0.1-0.8c-0.1-0.9-0.6-1.4-1.5-1.6c-1-0.1-2-0.1-3,0c-0.4,0.1-0.6,0.2-0.8,0.5c-0.4,0.6-0.5,1.3-0.5,1.9
	c-0.1,0.9-0.1,1.8,0.1,2.6c0.1,0.6,0.5,0.9,1.1,0.9c0.8,0,1.5,0,2.3-0.1c0.4,0,0.8-0.2,1.1-0.5c0.4-0.4,0.8-0.8,0.9-1.4
	C138.3,16.5,138.4,15.9,138.4,15.4z M147.6,17.8c0-0.7-0.1-1.4-0.2-2.2c0-0.3-0.1-0.7-0.1-1c0-0.6-0.2-1.1-0.9-1.2
	c-0.2-0.1-0.4-0.1-0.6-0.1c-0.8-0.2-1.5,0.1-2.2,0.2c-0.8,0.1-1.5,0.5-1.7,1.4c-0.2,1.2-0.1,2.3,0.1,3.5c0.1,0.5,0.5,0.8,1.1,0.9
	c0.3,0,0.7,0.1,1,0.1c0.7-0.1,1.5-0.1,2.2-0.2C147,19,147.6,18.5,147.6,17.8z M158.1,17.9c0-0.4,0-0.8,0-1.3c0-0.5,0-1,0-1.4
	c0-0.7-0.3-1.4-0.9-1.7c-0.5-0.2-1-0.4-1.6-0.4c-1,0-2,0.2-3,0.6c-0.3,0.1-0.5,0.3-0.5,0.6c0,0.4-0.1,0.9-0.1,1.3
	c-0.1,1,0.3,2,0.4,3c0,0.3,0.3,0.6,0.7,0.6c1.2,0.2,2.5,0.2,3.7,0C157.6,19.2,158.1,18.8,158.1,17.9z M167.4,18.1
	c-0.1-1.1-0.1-2.2-0.2-3.3c0-0.7-0.2-0.9-0.9-1c-0.6-0.1-1.2-0.3-1.8-0.4c-0.6-0.1-1.2,0-1.8,0c-0.5,0.1-0.7,0.3-0.7,0.9
	c0,0.3,0,0.5-0.1,0.8c-0.4,1.1-0.3,2.2-0.4,3.4c0,0.1,0,0.1,0,0.2c0.1,0.5,0.4,0.8,0.9,0.8c0.4,0,0.7,0,1.1,0c0,0,0,0,0-0.1
	c0.9,0,1.8,0,2.7,0C167.1,19.4,167.4,19,167.4,18.1z M176.5,17.8c0-0.5-0.2-0.9-0.1-1.4c0.1-0.8-0.2-1.6-0.3-2.4
	c0-0.2-0.2-0.3-0.3-0.4c-0.5-0.3-0.9-0.5-1.5-0.5c-1,0-2,0.2-3,0.3c-0.5,0.1-0.7,0.3-0.7,0.9c0,0.6,0,1.2,0,1.8c0,0,0,0,0,0
	c0,0.7,0,1.4,0,2c0,0.7,0.3,0.9,0.9,1c0.2,0,0.5,0.1,0.7,0.1c1.1-0.1,2.1-0.2,3.1-0.3C176.2,19,176.5,18.7,176.5,17.8z M131.7,35.1
	c0.1,0.4,0.3,0.4,0.6,0.2c0.2-0.1,0.4-0.3,0.7-0.4c0.8-0.3,1.5-0.7,2.3-1c2-0.8,4-1.4,6-1.9c2.7-0.6,5.3-0.8,8-0.9
	c2.9,0,5.8,0,8.7,0c2,0,4,0.1,5.9,0.3c2.6,0.2,5.1,0.8,7.5,1.7c1.3,0.4,2.5,1,3.7,1.5c0.6,0.2,1.2,0.3,1.7,0.8
	c0.2,0.2,0.4,0.1,0.5-0.2c0.1-0.1,0.1-0.3,0.1-0.5c0.1-0.6,0.1-1.2,0.2-1.8c0.2-1.4,0.3-2.8,0.5-4.2c-0.2-0.3-0.5-0.4-0.9-0.4
	c-1.7,0-3.4,0.1-5.2,0.1c-4,0-7.9,0.1-11.9,0.1c-5.4,0-10.9,0-16.3,0.1c-4.1,0-8.2,0-12.2,0.1c0,0,0,0-0.1,0c-0.6,0-0.7,0.2-0.6,0.8
	c0.2,1.4,0.3,2.7,0.5,4.1C131.5,34.2,131.6,34.7,131.7,35.1z M183.4,37c0,0.8-0.1,1.6-0.2,2.4c-0.1,0.7-0.2,0.8-1,0.8
	c-0.4,0-0.7,0-1,0c-0.2,0.7-0.3,1.2-0.5,1.8c-0.4,1.2-0.9,2.4-1.4,3.4c-0.4,0.7-0.9,1.3-1.5,1.8c-1.3,1.2-3,1.8-4.6,2.2
	c-1.4,0.4-2.8,0.5-4.2,0.6c-1.2,0-2.3-0.2-3.5-0.5c-1-0.2-2-0.6-3-0.9c-0.4-0.1-0.8-0.3-1.1-0.5c-0.4-0.2-0.8-0.5-1.3-0.7
	c-0.6-0.3-1-0.7-1.2-1.4c0-0.1,0-0.2-0.1-0.2c-0.6-0.8-0.8-1.8-1-2.8c0-0.1,0-0.1-0.1-0.2c-0.4-0.7-0.4-1.5-0.6-2.3
	c0-0.2-0.1-0.5-0.3-0.6c-0.7-0.5-1.5-0.9-2.4-0.7c-0.4,0.1-0.8,0.1-1.2,0.2c-0.5,0-0.7,0.5-1.1,0.7c-0.1,0-0.1,0.2-0.1,0.3
	c-0.1,0.6-0.2,1.2-0.3,1.8c-0.2,0.7-0.5,1.4-0.7,2c-0.3,0.7-0.5,1.4-0.9,2.1c-0.2,0.5-0.6,0.8-1.1,1c-0.4,0.2-0.7,0.4-1.1,0.6
	c-1,0.6-2.1,0.9-3.2,1.2c-0.9,0.2-1.8,0.4-2.7,0.6c-0.8,0.2-1.5,0.2-2.3,0.2c-1.6,0-3.1-0.3-4.6-0.8c-0.8-0.3-1.5-0.6-2.2-0.9
	c-1.3-0.6-2.2-1.6-2.9-2.7c-0.5-0.7-0.7-1.5-1-2.3c-0.3-0.7-0.5-1.4-0.7-2c-0.1-0.3-0.2-0.6-0.2-1c-0.4,0-0.8,0-1.2,0
	c-0.5,0-0.7-0.1-0.8-0.6c-0.1-0.9-0.2-1.8-0.2-2.7c0-0.4,0.2-0.5,0.7-0.6c0.8-0.1,1.5-0.1,2.3-0.1c1.1,0,2.3,0,3.4,0
	c0.7,0,1.4-0.1,2.2-0.1c0.7,0,1.4,0.1,2,0c1.1-0.1,2.2-0.1,3.4-0.3c2-0.3,4-0.2,5.9-0.1c0.3,0,0.6,0,0.9,0c1,0.1,2,0.1,3,0.3
	c0.5,0.1,0.9,0.4,1.4,0.7c0.1,0.1,0.2,0.3,0.2,0.4c0.3,0.8,1,1,1.7,0.6c0.5-0.3,1.1-0.5,1.7-0.4c0.3,0,0.7,0.1,1,0.3
	c0.6,0.2,1.2,0.6,1.9,0.2c0.1-0.1,0.3-0.2,0.4-0.4c0.2-0.8,0.8-1,1.4-1.3c0.2-0.1,0.5-0.2,0.8-0.2c0.8-0.1,1.5-0.1,2.3-0.1
	c1.5,0,3-0.1,4.5-0.1c0.8,0,1.6,0.1,2.4,0.2c1.1,0.1,2.1,0.2,3.2,0.3c2.8,0.1,5.5,0,8.3,0.1c0.7,0,1.4,0.1,2.1,0.1
	C183.2,36.4,183.4,36.6,183.4,37z M150.2,40.1c-0.3-0.2-0.5-0.4-0.7-0.6c-0.3-0.2-0.5-0.4-0.8-0.6c-1.5-0.9-3.2-1.1-4.8-1.2
	c-1-0.1-1.9-0.1-2.9-0.2c-2.9-0.3-5.6,0.3-8.2,1.4c-0.6,0.2-1,0.6-1,1.3c0,0.2-0.1,0.4-0.1,0.5c-0.3,0.8-0.3,1.5-0.3,2.3
	c0,0.3,0.1,0.7,0.2,1c0.4,0.8,0.9,1.4,1.5,2c0.4,0.4,1,0.7,1.5,0.9c0.6,0.3,1.2,0.5,1.8,0.6c1.6,0.3,3.2,0.2,4.8,0.1
	c2.4-0.2,4.6-1,6.9-1.8c0.6-0.2,1-0.7,1.3-1.2C150.2,43.1,150.3,41.6,150.2,40.1z M177.7,42c-0.1-0.6-0.3-1.3-0.4-1.9
	c-0.1-0.6-0.4-1-0.9-1.2c-0.9-0.3-1.7-0.6-2.6-0.9c-1.5-0.4-3-0.6-4.5-0.6c-1.1,0-2.2,0.1-3.4,0.1c-1.5,0.1-2.9,0.3-4.3,0.8
	c-0.6,0.2-1.2,0.6-1.8,0.9c-0.3,0.2-0.5,0.5-0.9,0.8c0,0.2,0,0.6,0,0.9c0,1.1,0.2,2.2,0.7,3.2c0.4,0.8,1,1.5,2,1.7
	c0.1,0,0.2,0.1,0.3,0.1c1.8,0.7,3.8,1.3,5.7,1.5c1.5,0.2,2.9,0.1,4.4,0.1c0.1,0,0.2,0,0.3,0c0.9-0.2,1.7-0.5,2.5-0.9
	c1.2-0.5,1.9-1.5,2.6-2.5C177.8,43.6,177.8,42.8,177.7,42z M163.1,111.2L163.1,111.2c0.2,0,0.4,0,0.6,0c0.1,0,0.3,0,0.4,0
	c0.6,0,0.9-0.3,0.9-0.9c0-0.3,0-0.5,0-0.8l0-1.7c0-0.1,0-0.1,0-0.1c-0.8,0-1.6-0.1-2.3-0.1c-0.1,0.2-0.2,0.4-0.2,0.5
	c0,0.4,0,0.7,0,1.1c0,0.5,0,1,0,1.5c0,0.2,0,0.4,0.1,0.5C162.7,111.1,162.9,111.2,163.1,111.2z M128.5,90.2l0,0.4
	c0,0.5,0.1,1,0.2,1.5c0.2,0.6,0.2,1.2,0.2,1.8l0,0.3c0,0.1,0,0.2,0,0.4c0,0.2,0,0.3,0,0.5c0.1,1.3,0.2,2.7,0.4,4.1
	c0,0.1,0.1,0.2,0.1,0.3c0.3,0.2,0.6,0.3,1,0.5l0.1,0c0.4,0.1,0.8,0.3,1.2,0.2c0.3,0,0.7-0.1,1-0.1l0.3,0c0.6,0,1.2,0,1.8,0.1
	c0.7,0,1.4,0.1,2.2,0.1c1.5,0,2.9,0,4.4,0l2,0c0.4,0,0.9,0,1.3,0c0.4,0,0.8,0,1.2,0l-0.3-6c-0.8,0-1.7,0-2.7,0c-0.1,0-0.2,0-0.2,0
	c-1.2-0.3-1.8-0.9-2.1-2.1c-0.4-1.9-0.3-4.3-0.7-6.2c-0.1-0.6-0.2-1.1-0.3-1.7c0,0-0.5-6.2-0.6-6.7c-0.1-0.6-2.3-2.8-0.3-2.8
	c0.8,0,1.6,0.7,1.9,1.5c0.2,0.6,0.3,1.2,0.5,1.7c0.4,1.7,0.7,3.2,0.8,4.7c0,0.3,0,0.6,0.1,0.8c0,0.4,0.1,0.7,0.1,1.1
	c0.1,0.7,0.2,1.3,0.2,1.9c0.1,1.1,0.3,2.3,0.4,3.5c0.1,1,0.3,1.9,0.5,2.8c0.1,0.4,0.5,0.7,0.8,0.7c0.4,0,0.9-0.1,1.3-0.1l0.3,0
	l0-0.1c0-0.4-0.1-0.8-0.1-1.1c0-0.3,0-0.5,0-0.8c0-0.3,0-0.7,0-1c-0.1-0.7-0.1-1.4-0.2-2.2c-0.1-0.8-0.1-1.6-0.2-2.4
	c-0.1-1.3,0-1.5,1-2l-0.1-1.4c-0.1-1.7-0.3-3.3-0.4-5c0-0.5-0.1-1-0.3-1.5c-0.6-1.6-1.1-3.1-1.6-4.5c-0.1-0.3-0.3-0.6-0.6-0.9
	l-0.2-0.2c0,0-0.1,0-0.1,0l-0.3,0c-0.8-0.1-1.7-0.2-2.6-0.3c-0.3,0-0.5,0-0.8,0c-0.3,0-0.6,0-0.9,0c-2.2-0.2-4.5,0.1-6.6,0.7
	c-0.8,0.3-1.4,0.6-1.7,1.2c-0.1,0.1-0.1,0.2-0.2,0.4c-0.1,0.2-0.1,0.3-0.2,0.5c-0.5,0.8-1,1.9-0.9,3.1c0,0.2,0,0.3,0,0.4
	c-0.2,0.5-0.1,1,0,1.6l0,1.7l-0.6,8.3C128.3,88.6,128.4,89.4,128.5,90.2z M162.3,93.9C162.3,93.9,162.3,93.9,162.3,93.9l-0.5,6.3
	c0,0,0,0,0,0c0,0.6-0.1,0.9-0.1,0.9c0,0.7-0.1,1.4-0.1,2c-0.1,1.6-0.2,3.1-0.3,4.7c-0.1,1.8-0.3,3.7-0.5,5.5c0,0.5-0.1,1.1-0.1,1.6
	c-0.1,0.4-0.2,0.6-0.6,0.6c-0.1,0-0.2,0-0.3,0c-3.4,0-6.9,0-10.3,0c-0.1,0-0.2,0-0.3,0c-0.4,0-0.6-0.2-0.7-0.6
	c-0.1-1.2-0.2-2.5-0.3-3.7c-0.1-1.3-0.2-2.7-0.3-4c0-0.5,0-0.9,0-1.4c-0.1-1.5-0.4-5.4-0.4-5.4s0,0,0,0l-0.5-6c0,0,0,0,0,0l-0.2-2.8
	l0,0c-0.2-2.3-0.4-4.6-0.6-6.9c0.5-0.3,0.9-0.4,1.4-0.4c3.9,0,7.9,0,11.8-0.1c0.9,0,1.8,0,2.7,0.1c0.3,0,0.5,0.1,0.8,0.3
	c0.3,0.1,0.2,0.4,0.2,0.6c-0.2,2-0.3,4-0.5,6C162.5,91.2,162.4,92.4,162.3,93.9z M161.2,85.7c-4.5,0-8.9,0-13.4,0
	c0.1,2.2,0.2,4.4,0.3,6.7l0.3,8.6c0,0,0.5,8.7,0.7,13.1c3.6,0.2,7.2,0.2,10.8,0c0.2-4.4,0.6-13.1,0.7-13.1
	C160.6,101,161.2,88.1,161.2,85.7z M135.4,107.1l-0.2,0l0,0l-0.7,0c-0.1,0-0.2,0-0.3,0c0,0-0.1,0-0.1,0c-0.4,0-0.8,0.3-0.9,0.8
	c-0.2,0.9-0.2,1.8-0.1,2.5c0,0.3,0.2,0.5,0.5,0.6c0.4,0,0.9,0,1.3,0c0.4,0,0.8-0.1,1.2-0.2c0.3,0,0.5-0.1,0.8-0.1
	c0.2,0,0.2-0.1,0.2-0.2c0-0.2,0.1-0.4,0.1-0.6l0-0.6c0-0.2,0-0.5,0.1-0.7c0-0.1,0-0.3,0-0.4c0-0.2,0-0.4,0-0.5c0-0.2,0-0.2,0-0.2
	c0,0,0,0-0.2-0.1C136.5,107.3,135.9,107.2,135.4,107.1z M146.6,105.8l0,0.4L146.6,105.8C146.6,105.8,146.6,105.8,146.6,105.8
	c0.1,0,0.1-0.1,0.1-0.1l-0.1-1c-0.1-0.5-0.2-1-0.2-1.5c-0.1-0.7-0.7-1.3-1.5-1.3c-0.8,0-1.7-0.1-2.5-0.2c-0.5,0-0.9-0.1-1.4-0.1
	l-1-0.1c-1.4-0.1-2.7-0.2-4.1-0.2c-0.8,0-1.6,0-2.4,0c-0.3,0-0.7,0-1,0l-0.2,0c-0.2,0-0.4,0-0.7-0.1c-0.1-0.1-0.1-0.1-0.1-0.1
	c-0.1,0-0.2,0.1-0.3,0.1l-0.2,0.1c-0.4,0.2-0.7,0.4-1,0.7c-1,0.9-1.4,2-1.3,3.2l0.2,0c0.5,0,0.9,0.1,1.3,0.1c2,0,4.1,0.1,6.1,0.1
	l0.4,0c1.7,0,3.4,0,5.1,0.1h0c0.1,0,0.2,0,0.3,0l0.2,0l1.6,0C144.5,105.7,145.5,105.8,146.6,105.8z M146.2,107.5c-0.7,0-1.3,0-2,0.1
	c-0.1,0-0.1,0-0.1,0c0,0,0,0.1,0,0.1c0,0.3,0,0.5,0,0.8l0,1.7c0,0.4,0.2,0.8,0.5,0.8c0.5,0.1,1.1,0.1,1.7,0c0.2,0,0.4-0.2,0.4-0.3
	c0-1.2,0-2.2-0.1-3.1C146.5,107.6,146.5,107.5,146.2,107.5z M149.9,100.4l0.1,0.7c0,0.6,0.1,2.6,0.2,3.5c0.1,2,0.2,3.9,0.4,5.9
	c0,0.6,0.1,1.1,0.1,1.7c0,0.4,0.1,0.4,0.5,0.4c0.4,0,0.8,0,1.3,0c0.8,0,1.7,0.1,2.5,0.1c1.1,0,2.2-0.1,3.3-0.1c0.4,0,0.5,0,0.5-0.4
	c0.1-0.6,0.1-1.3,0.1-1.9c0.1-1.1,0.5-9.7,0.5-9.9h0l0,0l0.2-6.4c0,0,0-0.1,0-0.1c0-0.9,0.1-1.8,0.1-2.6c0-0.6,0-0.6-0.6-0.6
	c-3.1,0.1-6.1,0.1-9.2,0.2c-0.2,0-0.3,0-0.6,0.1c0,0.7,0.1,1.5,0.1,2.2C149.4,93.3,149.9,100.3,149.9,100.4z M128.4,110.5
	c0.2,0.3,0.3,0.4,0.5,0.4c0.4,0,0.9,0,1.3,0l0.9,0l0,0c0,0,0,0,0,0c0-0.1,0.1-0.2,0.1-0.3c0-0.1,0.1-0.2,0.1-0.3
	c0.1-0.5,0.2-1,0.2-1.6l0-0.1l0,0l0-0.7c0-0.2,0-0.4,0-0.6c0-0.1,0-0.1,0-0.1c-0.5-0.3-1-0.4-1.4-0.4l-0.1,0c-0.3,0-0.7,0.1-1.1,0.3
	l-0.3,0.1c0,0-0.1,0.1-0.1,0.1c-0.3,0.5-0.4,1-0.4,1.5C128,109.5,128.1,110,128.4,110.5z"/>
</svg>
