<?xml version="1.0" encoding="utf-8"?>
<!-- Generator: Adobe Illustrator 18.1.1, SVG Export Plug-In . SVG Version: 6.00 Build 0)  -->
<!DOCTYPE svg PUBLIC "-//W3C//DTD SVG 1.1//EN" "http://www.w3.org/Graphics/SVG/1.1/DTD/svg11.dtd">
<svg version="1.1" id="Layer_2" xmlns="http://www.w3.org/2000/svg" xmlns:xlink="http://www.w3.org/1999/xlink" x="0px" y="0px"
	 viewBox="0 0 223.8 33.3" enable-background="new 0 0 223.8 33.3" xml:space="preserve">
<path fill="#FFF3D2" d="M170.9,25.7l0.3,5.7L159,31.2v-1.1l0.3-1l-0.3-1.3l-0.1-12.4l0.2-0.8l-0.3-0.9l-0.1-5.6l-8.6,0.2l-1-0.3
	l-1,0.3l-6.6,0l0.1-5.1l-0.1-1l11,0.3l6.7,0.4l0.3,0.1l4.8-0.3l6.3,0.3l-0.3,4.9L167.6,8l-2,0.2l-1.1,0.1L165,9l0,3.2l2.8,0.3
	l3.1-0.1l0.2,4.2l-0.1,1.7l-5.5,0.5l-1.4-0.1l0.3,0.7l0.2,6.4l2,0l0.8,0.2l0.6-0.4L170.9,25.7z M204.4,30.3l0.4,0.9l-7-0.4l0.2-8.1
	l-1.5-3.9l-1.2-0.1l-0.6-0.4v4.9l0.5,1.7l-2.1-0.2l-3.9,0.2l0.2-5.9L189.1,9l0-4.9l-0.4-1l11.2,0.1l3.1,2.5l1.3,3.2l-1.3,6.6l-2.6,2
	l3.5,3.2l0.2,2.4l-0.2,2.5l0.4,1.8L204.4,30.3z M197.4,8.8l0.4-0.7l-3,0l0,1.6l-0.3,1.2l0.3,0.8l0,2.2l2.6-0.3L197.4,8.8z
	 M214.5,3.5l-0.1,9.5l0,4.9l-0.8-0.5l-2.4,0.2l-0.4-12.6L205.1,5l0.4,1.8l0.2,2.2l-0.3,1.9l-0.2,7.4l3.7,4.9l5.5,0.4l-1,2.7
	l-6.1-0.6l-1.5-0.5l-0.2,5.8l3.9,0l7,0.2l2.8-4.8l0.9-8.4l-0.2-5.3l0.3-1.2l0.1-5.5l0.4-2.4L214.5,3.5z M195.9,26.6l0.3,4.5l-14-0.1
	v-0.3l-0.1,0l-0.6-5.5l-1.8-4.8l-1.6,0.3v2.4l0.4,3.9l0.4,4.8l-2.1-0.2l-3.9,0.2l-0.3-2.7l0.3-0.8l-0.3-1.8l0.1-5.2l-0.1-10.1
	l0.3-1.4L172.6,9l0-4.9l-0.4-1l11.2,0.1l3.1,2.5l0.9,9.3l-0.9,2.9l-2.6,2l2.6,1.5l1.1,4.1l-0.2,1l0.9,0.1l2.1,0l0.9,0.2l0.6-0.3
	L195.9,26.6z M181.3,10.5l-0.6-2.5l-2.4,0.3l0,4l0.3,1.4l-0.3,0.5l0,2.2l2.1,0L181.3,10.5z M156.8,24.4l0.5,2.1l-0.1,1l-1.2,2.9
	l-2.4,1.5l-2.7-0.3l-0.7-0.5l-0.6,0.4l-6.3,0l-0.2-11l0.3-0.9l-0.4-0.1L143,12l-0.4-1.4l2.2-0.2l0.8,0.3l0.6-0.3l7.4,0l2.8,6.1
	l-0.6,2.3l-1.5,1.6L156.8,24.4z M147,19.8l4.4,0l0-0.4l0.2-0.1l-0.2-0.6v-3.5l-4.5,0.3L147,19.8z M151.7,26.9l-0.5-3.5l-3.9,0.3v0.7
	l-0.3,0.9l0.3,0.7v0.4L151.7,26.9z M56.8,24.9l4.8-0.9l-0.3-1l0.3-3.2l0.3-4.1h-4.6L57.3,17l-0.4,1.8l0.2,0.9l-0.8-0.1l-1.9-0.2
	l-0.5-3.2l0.1-1.4l0.2-5.6l-0.3-0.9l1.1,0l2.3-0.1l0.3,3.4l0,1.4l-0.4,0.9l4.7,0l-0.2-4V9.9l-0.3-0.4l0.3-1.1v-2l-3.9-2.7l-3.3-0.2
	l-2.7,1.1L49,9.6l-0.4,2.2l-0.4,4.6l3.2,6.6L56.8,24.9z M76.4,26.6l0.1,2.5l-5,0.2l0.3-7.8l0.5-0.8l-1.5,0l-1.6,0.1l0.1,6.7l0.2,4.4
	l-5.9-0.3l0-0.3l-1.1,0L61,30.8l-0.5,0.3l-5.7-0.1L48,30.9c-1.3,0.1-3.7,0.6-4.8,0c-0.2-0.1-0.3-0.2-0.5-0.4c-1.1-1.3-1-4.2-1.3-5.6
	l0.2-0.7l-0.3-0.4l-3.1,0.3l-0.2,4l0,1.6l-0.8,0l-0.8-0.3l-0.6,0.3l-3.2-0.2l2.3-12l1.3-7.8l0.5-1.1l-0.2-0.7l-1.5,0l0-0.1l-0.4,0
	l-7.7,0.2l-0.7-0.2l-0.8,0.2l-6.2,0L19,4l-0.1-0.7l9.8,0.2l5,0.3l0.6,0.3l1-0.2L36.2,4l0,0.1l0.6,0.1L37.5,4l5-0.1l5.6,0.1L48,4.6
	l0,3.8l-2.3-0.2l-0.5-0.2l1,8.3L46,17.3l0.4,0.4l1.1,7.7l9,0.6l7.1-0.2l-0.1-13.2l-0.2-6.9l5.6-0.2l0.2,8.2l0.1,1.1l0.8-0.5l1.9-0.2
	v-6l0.2-0.6L72,6.8v-4L76,3l0,10.8l0,2.9L76.4,26.6z M41.3,18l-1.1-8.5l-1.3,8.2l-0.3,0.8l0.5,0.1L41.3,18z M92.1,23.4l0.5,2.1
	l-0.1,1l-1.2,2.9L89,30.7l-2.7-0.3l-0.7-0.5L85,30.3l-6.3,0l-0.2-11l0.3-0.9l-0.4-0.1L78.3,11l-0.4-1.4l2.2-0.2l0.8,0.3l0.6-0.3
	l7.4,0l2.8,6.1l-0.6,2.3l-1.5,1.6L92.1,23.4z M82.3,18.8l4.4,0l0-0.4l0.2-0.1l-0.2-0.6v-3.5l-4.5,0.3L82.3,18.8z M87,25.9l-0.5-3.5
	l-3.9,0.3v0.7l-0.3,0.9l0.3,0.7v0.4L87,25.9z M106.4,3.4l-6.6,0l0.7,5l-0.7,16.9l-1.5,0.1l-0.7,0.5l-0.1-1.5l-0.2-1.4l0.2-1l0-13
	l0-1l0.3,0l0.1-3.8L97,4.1l-1,0.2l-0.6-0.3l-4.5-0.3l0-0.2l-2.1,0.1l-0.1,0l-3.6-0.1l0,0.1l-5.4,0.1L78,3.8l-0.1,3.8l0.9,0.1l1-0.2
	l0.6,0.3L85,8l0,0.2l2.1-0.1l0.1,0l3.6,0.1l0-0.1L93,8l-0.2,3l1.4,17.2L94,29.3l6.4,1.1l5.2-2.3l0.8-14l-0.3-1.1l0.5-0.7l0.2-1.7
	l-0.1-4.4L106.4,3.4z M131.3,25.6l0.4-0.6l-0.1-6.9l-0.3-10.6l0-3l0.5-1.4l-6.4,0l-1.7,0.3l-1.1-0.3l-2.1,0L120,9l0.1,2.1l-0.4,1.3
	l-0.8,9.6l-2.6-16.2l-0.2-2l-8.3-0.2l0.3,1.1L108,20.3L108,31l4.2,0l-0.1-3.3l-0.2-1.3l0.2-0.9l-0.4-10.3l0.2-7l0.6,1.1l1,6.4
	l0.6,1.1l-0.1,1.6l1.9,12.1l3.7,0.1l2.8-0.1l-0.3-1.5l2-19.4l0.6-1.6l0.8,12.1l-0.2,10.1l6.5-0.1l0-2.9L131.3,25.6z M17.4,14.2
	l-2.5,2.4l2.4,4l0.5,4.7l-0.1,1L16.6,29l-2.4,1.5l-2.7-0.3l-0.7-0.5l-0.6,0.4l-6.3,0L3.8,16.5l0.3-0.9l-0.4-0.9L3.5,5.1L3.2,3.7
	l2.2-0.2l0.8,0.3l0.6-0.3l7.4,0l3.1,2.7l0.8,4.2L17.4,14.2z M9.1,8.6L9.2,16l2.7-0.1l0-0.4l0.2-0.8L11.8,14V8.2L9.1,8.6z M12.3,25.7
	l-0.4-5.3L9,20.7V22l-0.2,0.6L9,23.2v2.2L12.3,25.7z M30.5,24.4l1.6-0.2l-1,5.2L23,29.6L21.8,28l0-0.5l-0.6-0.2l-1.7-2.2L19,17.2
	l0.2-0.4L19,16l0-1.1l2.6-5.6l8.8,0.2l2.6,5.4l-1,3.3l-0.4,0.8l0,0.8l-0.4,1.6l-6.7,0.2l-1.2,0.1l0.3,0.5l-0.1,2.6L30.5,24.4z
	 M23.3,17.5l0.9,0l3.8-0.1v-3.8l-4.1-0.2l-0.2,3.5L23.3,17.5z"/>
</svg>
